<mxfile host="app.diagrams.net" modified="2022-05-10T03:56:53.315Z" agent="5.0 (Macintosh; Intel Mac OS X 10_15_7) AppleWebKit/537.36 (KHTML, like Gecko) Chrome/100.0.4896.127 Safari/537.36" etag="-YdFwefwf8rau_G38b5v" version="18.0.2" type="github">
  <diagram id="AnRcx6A_s7QQr_70LzzW" name="Page-1">
    <mxGraphModel dx="901" dy="484" grid="1" gridSize="10" guides="1" tooltips="1" connect="1" arrows="1" fold="1" page="1" pageScale="1" pageWidth="827" pageHeight="1169" math="0" shadow="0">
      <root>
        <mxCell id="0" />
        <mxCell id="1" parent="0" />
        <mxCell id="c27LXQE5OpBkn1K789Q8-1" value="" style="shape=image;verticalLabelPosition=bottom;labelBackgroundColor=default;verticalAlign=top;aspect=fixed;imageAspect=0;image=data:image/png,iVBORw0KGgoAAAANSUhEUgAAATUAAAJcCAYAAACYDDMLAAABRWlDQ1BJQ0MgUHJvZmlsZQAAKJFjYGASSSwoyGFhYGDIzSspCnJ3UoiIjFJgf8bAysDFwA0UVkpMLi5wDAjwAbIZYDQq+HaNgRFEX9YFmfVq0eorvS80zvle/WT6ZN/GZkz1KIArJbU4GUj/AeK05IKiEgYGxhQgW7m8pADE7gCyRYqAjgKy54DY6RD2BhA7CcI+AlYTEuQMZN8AsgWSMxKBZjC+ALJ1kpDE05HYUHtBgMfH1U8hxMi8UNfIgIBzSQclqRUlINo5v6CyKDM9o0TBERhKqQqeecl6OgpGBkZGDAygMIeo/nwDHJaMYhwIsQIxBgZLFwYG5sUIsSQpBobtQPdLciLEVJYzMPBHMDBsayhILEqEO4DxG0txmrERhM29nYGBddr//5/DGRjYNRkY/l7////39v///y4Dmn+LgeHANwAUbWDdaVCHLgAAADhlWElmTU0AKgAAAAgAAYdpAAQAAAABAAAAGgAAAAAAAqACAAQAAAABAAABNaADAAQAAAABAAACXAAAAADyCS8cAABAAElEQVR4Aey9Z1RcWZY1eIQRCA9CwgjvZUDeG+RSPo1Mpip9VdfX3dXlcqq6p3t9s3qt6T+z1vT0dK/ur6eq0lRVVnqf8i5TKe+9F04OBEgCIeEkIQlpzr7BDYIgIoiAeBEBnMMi4pn7rtnvvRPn3vve3gOmL1z1lMQEAUFAEOgjCPj1kXZIMwQBQUAQUAgECA6CgCAgCPgCAv/w8zddqsb/+/sPbKZ32qkte3aJzQy62rhxw+auksh+QUAQEATchoDTTs1tJRqQ0eRx+XTtehXduHXbgNwlS0FAEPAEAvYiL1fL9ppT+5d/+FtV16c8TfH48WO6UVNLG77bS7dq61xqw8DAAJozfQIdPnG2R05t2TMz6cTZIqq6UeNS+ZJYEBAEjEFgwIABfG9PVJnv3H+UnsJZOGEuOTVXu5JddVk3fr+XrnKElZIYT9MmjqYXFs2mdz/+1olqtyd5+Ogx/cfbHxG+e2Lj8vPoakWVOLWegCjHCgJuQiCQg5VnnymkjLQklWNURDht+H43PXLiPnfJqSF3/7mrnKp2646vHaaD022+d59qb99V/8HBQTRvxiQKGhhIzy6YRQEBATQ0NoYGcC7/9cfPKCoynJ5fWEiJ8UPp/v0HdK6ojLbvPaLK+OkrL9Dhk+fpxJmLhMY/v6iQhiUMpcame3To+Fk6euq8SpeTmUpzpk2gIYOjqaGxiXYdPE5nLpTS3//sNfLz86Nlz8yinIxU+nbzDod1l52CgCBgHALhoSG0fOk8df/rUuDcXl6+mNZs+oEam+/pzTa/XXZqNnNxw0Y05NHjR9Ty8BEFBQ2kzNQkOnD0DFVU3VC5L188h0JDBtHm7XspJjqSZk4eS3caGun46YsUMiiYAtkJwp7naC8sdBBt5K5sSlI8LZg9hapv1SonBqeIcbe1W3fRiJwM/iWYRVfKK2ndtt30CgN24OhpKrtSofJx5QOO9OUVS7h+wTYPa773gD77djPd5fqKCQKCgGME4LQ+/HKD40QO9nrNqXF3mR1LunJQ8UMHqwip7Eq5uaqX2dls33tYrQezk0tOjKOvN26nCyVX1LbEuCGUnZasnJo+CFFeekqiSne1opqQR1Z6MmWxl79b30gDAwPVvvsPWqjk0lWaxBMMcKAmR/aU6u7WU9VN18fU4Ky+3bSdVr+wUJWh64Pvh48eqX3i0CxRkWVBwDgEvObU0KT84dnsrBrVeBi6k9t2HjC3FF1MbYnxQ1T3sLK63eHcqW+glGEJOon6RtcUtmrZfPWtP6IjIyjA35+7o80EhwbDGNy+wyd1kh5/36y5Teu27qQVS+eTP3dlYa1Pnqht2CcmCAgCziFgq/uJIzGJ6NPdT4ypfbn+O7pYaoq8HDW3tu4uz3wQDY6JpHoeC4OFcXe1yapvffuOKd37n6+j8kpTt1XnO370cArh7qulJfG4G/J+0PKwbTNG8Lpv1zg63PrDPlrC3VoYlrFNTBAQBJxHAN3Pz9Zs6TBRcPnqdacnCnrFa1INjc3sfO7QrCnj1IRBblaa6lZWVN3sgBTSwbEVTh2vJgzQZf27N1+kiWNGKueCCAqPbmBsDmn+6uXnKSI8TOXR8vAhJSUONUdZHTJ2YQVOejdPP+PfGYftQtaSVBDoNwhglnPNlh1q8g8TgFh2ZuYTAHm1++nKGVrHg/sv8GTBW//jZX6urZWKeExsN89eWptKx5MFv+Z0GLcr5YH/sxdLVTS2hbu3mP2cMHqEGuvaffCE+bm4sxfLCI91xHBX9dM1W62zdWn92OkLLqWXxIKAINAZATyXtmOf6QmHznvtbxngLEsHnjnrznNqrh5jv6qmPZEcWTXfv68cG7YM4kdBfvO3r/Ks6D46db7EfDjSPeKHeu9ZjM3pnTFRkWpSQK/rb0Ry/v5+arxNb5NvQUAQ8AwCHn/3E83q6mFaTzRdj6npshCRNXK380LJZb1JfVuns9yJWU5bhoF9/IsJAoJA70XA6UjNV5uIx0HknU9fPTtSL0HA8wj0iokCR7CIQ3OEjuwTBPofAr3eqfW/UyYtFgQEAUcIiFNzhI7sEwQEgV6HgDi1XnfKpMKCgCDgCAFxao7QkX2CgCDQ6xAIuF/T8VGIXtcCqbAgIAgIAhYIBISER1qsyqIgIAgIAr0bAel+9u7zJ7UXBAQBKwTEqVkBIquCgCDQuxEQp9a7z5/UXhAQBKwQ8E9JS/8Xq21uWV266mXKGZFv/k9JzaDW1sdUf/eOW/JHJhnp6TR2zGilZ1DH1ETWNmd2IRXOnEnXrl1jlg4TOaR1Gr3uSlp9jPX3mNEFNGJ4HpNRNtE91l/whM2cPo3S01LpWnl5p+JGjRxBy5YuZk0HaEF0n6gyIjyc/PhFf6h+ObLBMTFMD/OQnjxh8jsvW1BQEEVGRDApaDvZqNFVGhQczNTyg5iSXvPzdS4xKjKSnvJfa2trp53A7wlvt7XPMnE4kzUEDRxIDx2UY5neetlRHazT9nTdUVnOttfVOngsUgsODaX88ZMoa/hIV+toNz1u5pkzplNGRobNNClJSZSSnESRTCfUlbmS1l5eBfn5qj6xgwfbS+L27VOnTqHp06bazDcuLo6SGYOhQ4bY3O/sxuzMDL5ZQxSWI/Jy7R6Wl5NFwUG2dRrsHmSxA+dqxtTJ6n/6lEk0fkwBxceZ2Iwtkjm1GBsTTZkZaU6ltZcIVO8pScPs7e60fRgzMceyWJAjS09LUc7WOg3k4LK4vjHR0da7Oq0nJSZQYkJ8p+3ObrBXB2ePdyWdvbJcaa8r5SFtJz61CP51e8wCKLYiDTDHBgQEUkNDg6vlmNPnjiwg/NuzTV9/Zm+Xy9s/+fwLimBRFFtRnHVmrqS1PtZX13/YsZNOnzlDtbXdj9ICWddhEAvbNDQ2UiizDYOjzkhDlHuhqETRr8cOjuEbPZ3po+7zNeeaaE1l9Q2WO+xIIupqvYMGBlESO7Xy65VOHYqItrziulNprROBO+zI8ZNOaVteLC61PrzXrbvSXlcb18mpzZs3jx1BBH311ZcdHBsc2osvvqQc2po1a1wtp9vpx40dQ7Nnzep0/Icff2LehovpF3/3t8yKG0nXKyvpy6+/VV2uF1csp4SEBPrqm28pOzuTxhSMptKyMkpNSeYbNFSlXbt+IzU3N5NlWtzEy5YsoUrOKywsjOI4Wqjgi/WHnbuoqrprem50ixcvXKi42couXaa1603KOFFRUZzvYkrkX9qnTHF0vbKKNmzaTE18I4eEhPC+RZSWmkoB7EhqWdx52/bt3HUup6Rhw2jhgvk0dOhQ1T2puH6dNm7e0uFGX8rH5o8cpboke/fvp6PHjtOcwlncPR9Dh48epf0HDprxcmUhkn8U0H19xAIy1pYQH8dShAn8Q+fPbemISxjjm56awviFqu74pStXlbQh8kD0lTQsUYnUNDI9e3HZJXNXCl1clIX/CsZnyJBYZjGOUG0dPWokNTBWcHb4oUKeQ2JjmbE4gYKYVw+Or+zyFZUX0sQxXucvFqlqD4kdbCqTu213mB0Z6Z600UypfYmJBJlGONXSsssUyCI+w3OzyY+9+MTxY+nK1WtUx8dlcO8AeT9hJ3TzVg13+03qY1AzQ9cTdUDbgI2lVTI+VTdMFPPAJJnTBHJd8IODusDyRwxn9bQqVT+0te7uXZaJiyVoYNbduUOll64op5fGuOL6ucbXJOqDqAd447qtraujq9cquhwqwA/UuMQCJTyEdpXydarxSOP7A5gg39tc7uUr11S56PJmZ2UwW3S4wvgqt732tkl8HJHjMP6HtOUdpvYqu3zZzHnoTHstserpcqfu57ZtW1WecGCa0187NOzQ+3tasLPHI2KsqalR/7j5MZ4wEOMJPHajbTh3iR4z/S8MTmEad8lgIXzikB43HbpFWIaTVMYnLCszk5YsWqhWLdMiGkXaPM4XNwvGODI4Yhg/bqzp2C4+ka6Fx/CCeIxldEG+ci445KWVK7hLlM4XfoP6wcjJzqKVy19QuU2fNoWG5+Wpsa/i4hJ2xvG0eMECtW/+vLnKsZWWltItxiI7K6uDo0c0lZeTy3neU/Wey2OJMJSPdqAb1V3DBQyNVGvDdtxQN27eJEQOg7m7h5sABqJNOASMY56/WKwu7uE5OWofbgwcV1lVrfb587lJ5W6nLUN+aBvIPmED2dGgWwkHU8WRWDj/4OTwTVZTW0sXi4qVOM/wnGyVFjquSA/DDY8uNJxQcUmpWofDhZnyyKQaHnO8wLijzOysTHV+cNMiorjAed9loR/c6DHRUXTuQpFyAnBcwAGGHgHG76AedovLwTH4h9NDGxqa2iPNWB47u8xtuMo/WHFDh5i7nHCkWrQHdYezhuMqYaePH0SNExwonAcM38ijms8DnB66rzgXXVkCD01cZwdaVFKmrhF0E2FwTPjRuXy1nErZ2SI/XS6CAdjJM2f5vNdQZnqawjyYxy9xTnHM2fMXlXON5/y1OdNendYd350iNTgRRGlwavjftGkTLV26VJVlHb25owJd5VFUXEz4x4Xx0x+/oZLv2LlT/SLqY0v5pH/2xZc0d04hzZw+nS98++MaV3nS4IOPPqFUvqjffO1VNU6k87H+vs2/Qr9/+13lbF5atYKG8a8rbOKE8SoK0Okv8a8SbiptJ06eok1bttLUKZNpwfx5ytHG8g0BRwWH9qf3P1Dt+cXP/kaVj6gxItw07gf8z5w9S0eOHSMeT1aGXzrYXf4FPHL0OA3wG0APrAbA0X5Ekf/497/hi2qQinDUQV184BcWNwG6eIgm4IhCOWrEYDeiJty0uGGsLZpvbtzo19k5wRBtjB2dr5YR3eJ84caFU7jMEdWkCeNUJPSA1bwOHD6q0sHxoE3RfMNqwzKcB25WRESIlO5wxKIN0ZuODnCz3a2vN9ehhaONCePGdJIpRPsaGhv5RrylsqngCBxODZEenFQ9nxNEzbBiZkrGBAOiFiia4RQ0twn8aEcC/BHtHTrC56jN4NQauQwYHBv+4dzzsrOUY2tiJTNt6BYjmoHFczQJzQxEYtYGx68neCq4CwxHBEdrbTj2Fkf2sGjWxEWPBQ4c0Vgg/0BrwznWkwvVjIU+Bo43LYXxIMaD7x2c09sc8cHQnYZzRbkIDojlxZ/yRBAcIv5hGhc/xqWZf1hPnj6rtusPZ9ur0/f0u5NTQ4aWju2N119XDfSGQ7NsHGbxMPB97vx5vuGPW+7iC8x0QcAJwfxYDs+e6e4junX4ZcUNaC+SqecbBlbd1uXUJw+/5IiWtLU8bOng1MorTBfeJb7JiJ1aOF/ww7h7A0O3SXevcEMmsgMZxhfNyVOnKD09jXI50sA/unyHjx4jdDXhJNGVxIQA/nFDff/DDrrZdpMiktHtwg0Kp2Z5MaNcW4b2wIHUcBcIN/I4HpjHjQw8Tpw6wzelv7oxkKe1YaYPddSGG0YbumFwWFMnTdCb1Peg4EF8Uz1Sv+qD2WEh4rBlyUk8OM/e5N79eyqagyPUhuO1oZ2WUopwyHBGuoeh08WwU4OjnjZ5ot6kvlFH5IHrXRtuekR+tgx4w8kXjByhokc4Dtz0cNzYrp2mPjYjLU39SMA5WZp2LNiGH48BXA9bZokp6ojusS2znG19yMpo+kcQXVw4OG1w4jjXsPsWbUY5OOfAA8LgVdXteGBfMJ9rRLDXyq+r7id+OFAf/MAAqyYevsGPAsY/s3jSDk4WP2h6yMLZ9up69vTb9lXFuWrHNm/uPPphxw8dTnxPC8XxrkwITJk0kQpGjeLxh1o1lmRdfltAY73Z5npMlCk0x3QywmbcmC1mibyOh9jLF9ESujHa0AWzND37Gd82rnKPf+n1L66+4JAe3SIYfjHvcjTyX//9O/VISDrfDPmjRnLUOY0OHzlKBw4eogsXLlJubo5yeNg/c8Y0dqRF6ni+q0zfLn4iEjtz7oK6KdGdwy87bn6MCyHSiGYtB1yYlk5FF4EbCV1JbZbLwBP7j/LAt7Whq4QIDJMBGL9CpIh1bYjK0GV1xlQXn8+hNjhp3Jhwbhii0IYfD3TNi0sv6U3mb6SFzoU23Lw4FnnDTB1q097HPAxxkbuocMZwyuhy4fpB5IhziWhQG34sEHWiq9Zds8RUDbkwpq4Yupb2bKDFkATKwXnGDwLOnSV22AenBMeNKOzUmXPKuaLrnZudyW1uUMcgksOEShQ/aYCnEjAuh3E6b5hdp4bKwLFt2LjRsHoF/NP7NvN+/K8/MW9PSU7mbuVstY6bf05hoVrGQHh3LDc3h15e/ZK6KHEDYIzKVSu71PnmsMxjyuRJPKg/RD1Oge3VPEBcyb9k6HrG8sDv6lUryZ9vDEzIwFHDob3yo9X83F0aR6IX1DgVnndTg+Z8Qf32rV+p8TE4N0QHcGotFtGLZdmuLuNi1YZulu5qYRuiD8sbVafDNxxfLj/CgYsYXSs93oJ9GPsM8A9QDquau1rqQuexznPsmIG56to9uK+6qHH8uEnrk87PbCGfrgwRZB5HtcgfDhI3EpwUnDDqrq2eu8m52dkcjdao9iAyxgQInCf2DUvIUQ4IN2g61zOco3c4I+APJ4d15I/IZxB3Fct47AqOTEWUXAjKQrSso0ZENhhvKi4tM0crui6ufMPhQ/IReCXx4yK2xjZdyc8ybQKPm2GSAvXGRJTOG5iiXPQGVLncw6jncw3DOCn0QNDtRMSHSSIYfvyARTE7UXSr49nRe9McOjVvVkyXjZkejM/AcKNrK+ELxtosb1DrfXod4zspfPEjSsNJ3bL1O73L7rc53/b7325a7MC4XQ7fRKblctq+Y4da/mbNOnpu2RIVcWEDJkDWrNug9u0/cEBdHJhYGE35KrLYtXuPEoLZvXcfYfB/9qyZKi2ivj379qvlTh9O1rHTcTY2YJzoto2HmpEUYy7VHN0Nz81VY0foemmcEOXhhs5IT1VjV7g5MOCN7XAGQ3lGc9L4cTwB80SNZ+kBfRtVcLgJs3boAqG7jugJP8IXOQK0NqSr5BsRNyWiOURhOopAZIi65XDUgTwwVqkjOnS9sH90/kg1WI+ZxbzYbJoycbwqAvkCBwwt6PE07IjnHzSUY/lMH6IYjIt1NvsnDM5kbMEoNQyAHxF06boy5GbxO2U3+R2OXgtGjVD1hMO+dPmKSouICw8uYygCDh3jpui2wm7equUJl/Q2Z/5U4YbIDnqc8fyPbqnpB+sBXeHhHdtmv72207u+dcCMwjmGlII3ChwZup/ORGqO8nBlH2Y5McC/hx3E3v0H1FgaIiSjDGM1GJNC1GJtGL/CU+W4UK0NjgQXVQ1HpdaGh2jRFUB3ymjDBY0xsdPnzneI3qzLReSFtPaegoejQLdNOzx9PG56HGO9Xe939TuAsUY52hBVRfJ4EqJDS8PjEfZEcVEnRGfWpqNLvR1l4ZEO3MCwUSPyVGSDZ+PcZRPZQVziRyngVDHhAK1bdxvOm7280WaYbqNl2fYw7OpasMzDyGXDIjVXxsyMbKCtvHHhGunQUKblILp1HWwNvOs0JkfX2dlhf3e6yjpfV78x9ocbF9GPI7N10Vum149jWG7Dsi3nYZ3GlXVLh4bxHjwrpiMMy3zsOTSksVcn6zZalgXHgO4pIhwjDE7fCIeGujrK27rNlm2zh6GjYyyPN3rZsEjNmYp7MlLDIwgYw6rnPr8nIh1n2u/LafCri4gEXcbeZogOod/qqZsMM4f2Jpu6ix0G6+FkPdWG7tbTF48zLFLztcZi4BP/Ys4hgJvpYVv3yrkjfCeVvejQqBq626GhnpaPQRhV776ar1cjtb4KqrRLEBAEvIeAaTTQe+VLyYKAICAIuBUBcWpuhVMyEwQEAW8jIE7N22dAyhcEBAG3IiBOza1wSmaCgCDgbQTEqXn7DEj5goAg4FYEfP6RDus3Ex4wI0Bp0Xkqv3KpR0CEhzMVDL9L0dhkeqncMrOAgFZ+N7CRX4Fpp8Sx3C/LgoAg4LsIGBqp4XWgFctf6EQF0xM43KV1kJHGHFJptt7FI2aquE9jRnd8vaYndZZjBQFBwHMIGBqpPWKtg/CISEU26W4+tp5qHZw+2/5yvOfglpIEAUHAaAQMdWqak02z6LrbsfUEnKzMa/wKih+zsiarbPJyLzPlyi2mYglgmqC4DlmHhd4j7I+KauS3EiLowsUsJpgM4he5nzK7w1XWHLjFvFtPmTJoCLNEZPA7dQM6HC8rgoAg4DkEDO1+ohnasWHZUvcA6960wMDHTGlkYmRITali+pibTJiYSxcvZjLVt4mmGPXz83vCugbnmYV1EDPu5iunN3bsBVX1IUPqmKL7Fp0+nUeI/BLibzGPmolZ1Jttk7IFgf6MgOFODeDCsUHrAGyzYNL1NYMjKruUwvxq0cz3FU1lZanmKkbwhEJQEPODlaQzjVAIR2KZTArYxHxsD1lgYzDt2j2Z6YsjmfUjnGmNWegl7J75WFkQBAQBzyNgaPdTNwec8RBvAaEeqMF9zdC9vNKcZK4WnJO2UN7n799Kz8zrSMoYwpMJzApDo0aWslhFvYro0B2tq2vnhNd5yLcgIAh4DgHDnZqlvJ4vjalZQozxsaDgdv734CATPz3SPOB99+8H0+69HUU7sG/k8DIWeXlC+/aPV2NsmDGV8TQgIyYIeA8BQ7ufvubQMtIr+Pmzzky0dfw8Gh7xCOIu5cCBrHaU0U7419AIubdHTDp4Q00MREc3sK7oSTUe58/Psz16xBTQLQOZqw0iuyZVK++dTilZEBAEDI3UINPW2FBPW7dt65JB1ehTga5hCk8IIJKqbwjrUBzG08LCmlkD4IiaEb3Os5+YCYXBaZ08NYJGjihT/62t/mp8DduvXE2i8TyJsGD+fm5fMNNzd8y3QyGyIggIAh5BwOf51KzfKHAWFVt04nBsjrqH/tyVfPKEH86w80gG3jR4/Ni/UxUCAh7zdkN/HzqVKRsEAUHANgI+79RsV1u2CgKCgCBgGwFDx9RsFylbBQFBQBAwDgFxasZhKzkLAoKAFxAQp+YF0KVIQUAQMA4BcWrGYSs5CwKCgBcQEKfmBdClSEFAEDAOAXFqxmErOQsCgoAXEBCn5gXQpUhBQBAwDgFxasZhKzkLAoKAFxDw+cfgrd8ocJdGgatYZ2dl8rufA6iktMzVQyW9ICAIeBCBXhepuUujoCuM80eNpJkzppuTjS4oYLLIseZ1X1uwrm9P6od2Iz8xQaA3IuDzkZo9UHuqUWAvX709JTmZX2pPoL37OvKo6f2+9u3O+ubl5FBVdTWdPXfe15op9REEukTA59/9tO5+dtmitgS2XmifXTiLWTXGUHBwMNXU1tL6DZtYV+AmrWTFq8DAABoyZAhrDQxgDYKLNGniBCaH9Gc+tQf04Sef0szp0yk0NJSPDWKKocHq+G/XrGOm3NsUHxdHSxcvorj4OHrY0kKnz5yl73/YoWpSkD+K2T9msQBNOOsb3KFt322nS5cv221GVFQUPbdsqXKo9+/fp3Pnz9MPO3ep9L/+5c/p++0/MPtusVr/qx+/QUW8HBIS0qm+menpNHx4HjWzpGBmRgYzkzTQgYOH6MTJU5SRnkbLn3+O/v0//5fKB8f/4md/Q5989gXNnTOb0tNSqbW1lRl979Db7/5RpZEPQaC3INDrup/dBTYhIZ6mT51CJ0+fofUbN9HAwECaw04OFhwURNlZWezMimjr99+z3sBZKi27pJh6167fyFTdd1W61JRkph0qpe++38603eE0a+YMtb2QvwMHBtK69RtUdDONy0F5sGfmzaVr5eX0yaefMw1TIzu4mWq7vY/lzz1L4eFhtHnrVjrD9UBe48eZur2h7HwCAtqD60GDBnG5A23WN5DblzRsGDvrgbRuw0aquVVDC5+ZT3FDh7KzDlCOUNfBz89PrcOJ796zV7Ub7d/23fc6iXwLAr0GgfY7pNdUuXsVra6+Qf/X//3/qIPDwsJU9JKc1E7hfeXqVaYa32nO/N69e/To4SN2bu0TA5VVVaxJsEelSUpOUpoLWPni62/UNjiSmzdv0ZTJk1iEJZ5Q5kB2OnAWd+vr6aNPP1Pp8AEnGhraThtefeMG1dc3UFLSMPr627UcjRWptAncBc7KzKDjJ06aj7VeqKmpZT63zvV9/PgxfbNmrdpXVFxCv/n1Lyk9PY1u366zzsK8XnH9umo38rty9Zp5uywIAr0FgX7j1NDFenbpEtW1CuLIzNogDtOVNTe3i6o0NTbR0Ngh6pAxowsI0Rq6jk+ePFHbMFMK2713n4oQR40cobq6e/bup6LiYpo6ZRJ3MRNVGnzs3b+fnWA1ax34URU7T23osqZwhNgda2xqUg4Nx8LBoQsaEx3t0Kl1pxw5RhDwJQT6jVObwF249LQ01fVE9IWuZxY/puHQTH7JYRLsxDhURcV1+vSLL6mOo6B//Iffmo/BONbhw0coOzubZkybSosXLVBO7cOPPzWn0QsRPO72lNVcBg+OUQ4I2xFVNrFzgmHfIB4P1BZo0RVV26zqGzKoPRLEfnRfGxsbVT5wnlGRrILFEWQId2PFBIG+gkC/GVPD2FPrk1aWtbuluo15ebkOz+H9B/cpkm96TAp0ZXAucDx379ZTITtLdDlhkAT85d/9jPJ5sgDRWUVlJU9D2LcGHnO7zRMPeKQCUV9uTrZyvNevV6qDGjk6zOGZSTg/jLOhftps1TcoaKCawMAEx5zZhcpBlnP38uatm8qxTZwwnnUZBnLUOFlno74f8GQHJk0Q3YoJAr0NAf+UtPR/8eVK54zI71b1Si+c63AcnE4Oj2MV8kA9ZiQxroQxsKPHjlPBqFGqe6ZnFXHgPZ55xLNaM6ZP4wduSwmPTCC6OXfeJGSckZFO0dFRaqwLjmHyxIk0i50Rxs/gQK9cucqznFdoaNwQ3j5D5TNkSKwaiMfjEvYM+wpG5atIMi83h0pKSmjLtrYBe47UxvLsLSY8hsTGsn7CY9VlxUSEdX3hUFE/TCaoCQKeoT1w6DALL5+hhw8fKoc4Yfw4VS/M8EazE8XMaANHcgEB/qzHMFw5zoMcZYoJAr0JgX71SAdOTExMtHrMoaWlXRLP0QlDtIJB864Mjg0RUV1dZ0UpzFhGRkSoWcWu8tH7kb6Zy8VYmKX5s2ON5nExPEpiy3R9McY3ip3y7/7wjmozokDrvJAWs8DogtoyPPoChycmCPQmBHx+TM3W82Y9AdiW03GUnzMODcfDSdpzlHAmEHJ2xTCob8taeSLCnkNDelv1tddmpHXkrsWh2ToDss3XEfB5p+brAPpq/Y5zV9KyO+2r9ZR6CQLuRkCcmrsR9ZH8MIaoZ019pEpSDUHAIwj0m9lPj6AphQgCgoDXERCn5vVTIBUQBAQBdyIgTs2daEpegoAg4HUExKl5/RRIBQQBQcCdCIhTcyeakpcgIAh4HQFxal4/BVIBQUAQcCcCPv9IhzVJpDs1CsCcgSftyysqFMkiXkoHBZCnDTRFIGYEYeVlfr1KTBAQBLqPgKGRGl71WcGssiEh7mOBcKdGAV7kxvuVeI0JrB3Du3jJvfsw2z8Sr1a98fqr/J7pKH5RPcJ+QtkjCAgCTiFgaKT26PEjprGOpBdffIm++upLfoWna84yp2rNidypUYDXmP7jv/6bXxB/5Gzxbks3LDGBgvgF+I8/+1y9k+q2jCUjQaCfImCoU4MTgzODUzPCsbl6zsC6ASYN0Pqgy4mXw7X9lPn+jx4/oVg3HOkKPP/sMmaizVTR3dVr1xQ/G7QEkKc9bQFoIIDhY0jsYMWOAZbdbUwJDmGXZUuWKOm9n//tXxMYMfbtP6CrJN+CgCDQDQTa7+puHOzMIdqxIS0cmzu7os6Ur9PA6SxeuIAZKRoUZz+iszim49E2iAkVNemiPV2BZ+bPpRFMybP/4EHauWsX0xElMUFkocrCkbYANBDAjXaG1Zl27NqtaIxAdwTHuu/AAcWWCy2Ei6yRICYICAI9Q8DQSE1XDY5t06ZNPHb0Os2bO482bNyod3nsOy01hfx57Ayc/WCfAPvtW7/6pc3y7ekKQKEJfGSH2jjGFGss0/eAoqcrbYFr5ezA2qIwTAqAnw1U3+B1e8I8aZZaCDYrJRsFAUHAKQQ84tQQnS1dulTR7/yw4wenKubuRCBNBJW1ptMBTRDUnWyZPV2BCGaarT112nyIVmuH5FxX2gKQqtMG7YChzCwrJggIAu5HwHCnBoeGbifM3ZMFrsABRldremp7XWF7ugJgvbCcoQTHP6I68Js50hZwpZ6SVhAQBHqGgKFjar7i0AARxq9A371owTOKoRbjZhA1sTZHugKVlVU0Oj+fknksDZHWa6+8zNqf09Wzbo60BazLkHVBQBAwDgFDI7XAgEDu4tXT1m3b3Po4R3fggB7nTh6kh6LT5EkTCVqZtbWdKbHBUHu1/BrPSi6mJYsW0iOeUMBxsK3ffUcvrVpJb7z2qpo5xcOy6KrC1rJg8AvPPku//sXfKdrsYtYW0PtUAsuPp7yCfzFBQBBwOwL9TqMAj3FERkXa1BKwRNeRrgDETCBOAnUna7OnLWCdTtYFAUHAGAR83qkZ02zJVRAQBPoqAoaOqfVV0KRdgoAg4LsIiFPz3XMjNRMEBIFuICBOrRugySGCgCDguwiIU/PdcyM1EwQEgW4gIE6tG6DJIYKAIOC7CIhT891zIzUTBASBbiAgTq0boMkhgoAg4LsIiFPz3XMjNRMEBIFuIGDoa1LdqE+nQ9ylUTBgwFOKHXyXqX6imOpnQKdyZIMgIAj0DQQMjdR8SaPA3+8JjR93jgICH/eNMyetEAQEAZsIGBqp9RaNApvIyEZBQBDolQgY6tQ0lbevaBRYnqGwsHusJHWZoiIbmDoojEpK05nqO1wlGTjwEY0aUUoxMXf5pfUwqrsTybRFj+jCxSzmT3tE+SNLeF89E04OpKLiDKqpjbHMWpYFAUHAiwgY2v1Eu7Rjw7I3NQpQvjZ/f+6Kjj1P9+8H0ZFjBVTPzmwcr8NhwQryi1U39ejxfKqsiqOM9ArzvuysayrNvv3j6VpFIo0aVcrCKcIjpECRD0HABxAw3KmhjVqjAASM0CjwtoWHNTN10GMVeSFKK+Yo7dHjAFaEamCetCc0mCO08xeylLO7XhnHjm2oucqI2IidGCYbyssTmWttMrPeysSDGSBZEAS8jIBHnJovaBRY4hzKXc979wZ1cEbNzSEUFnqPBgY9VJHXgwdB5kPu328XYy4tTeOu6GMWPz5M06eeoLihnYkmzQfKgiAgCHgcAcOdmi9Remt0H3C3Myi4Ra+q7+CgFu6OBvM4WRBL1vnxWFu7KEt0dL05bTM7w0OHx9Cu3ZPpVs1gGjvmAosRPzTvlwVBQBDwLgKGOjVfdGiAu4EH/wP8WyklpYpVoJ5QQnwN6xXcUxMF6EqWVySocbXMjHIaU1DUwcGNzi9Sxz1oGUjVN0QRyruXr5QuCHRGwNDZT1/SKLBs+qNHAXTi1AgaOaKMRuRdovscnZ0+k6siNaQrLkmnxqZQiuYxNsyINjaFUHi4SeLuelU8FYwqppysq5xygErb8nAgDhMTBAQBH0DA5+m8rd8ocBazTV9/5lRSRGyPW/07pMUMZ2NjKN24GUv+vH/yxDOqq1l2KcWcDhMNj3lyQUwQEAR8CwGfd2regGvokNuq+9nKzi6QH/PADOmJkyPp4cNAb1RHyhQEBAEXEBCnZgcsjLUNGvSAHnNXVbqXdkCSzYKADyIg/Sc7JwUzoHjMQ0wQEAR6FwKGzn72LiiktoKAINAXEBCn1hfOorRBEBAEzAiIUzNDIQuCgCDQFxAQp9YXzqK0QRAQBMwIiFMzQyELgoAg0BcQEKfWF86itEEQEATMCPj8Ix3WbxQ8aG6m0qLzVH7lkrkRPV3ISE+ntNQUqrh+nUrLOuc7Z3YhpSQn07r1G/i1qfaX222V60paW8dj25jRBRQTHU1nzp2j2lrPsIDMnD6N34P1o91793Wq1qiRI2jSxAl04OAhJsUs6bS/OxtGF+QzxVMMnTt/gd/WqHEpi5dWreC3OVrp27XrXDpOEvcPBAyN1HxJo8DR6UxPS6WZM6ZTRkaGzWQpSUns1JIoMjLC5n7Lja6ktTzOcrkgP1/VJ3bwYMvNhi5PnTqFpk+barOMuLg4SmYMhg5x3wv8o0aOVG0cOtS1PIOCBlJqair/CKXarKtsFAQMjdT6ikbBJ59/QRER4VRXd6fLK8aVtF1m5iMJftixk1/4P+OxqNFRs1taHtLb777HXHiOUsm+/oyAoU5NU3n7gkbBuLFjaPasWZ3O9Ycff2LeFhEeTr/4u79lqqFIul5ZSV9+/S0zd9ynF1csp4SEBPrqm28pOzuT6YhGcze1jFJTkik0NFSlXbt+I7+B0Nwh7aBBwbRsyRKq5LzCwsIoLm4oVVRcpx927qKq6mpzufYW0C1evHAhv1TvR2WXLtNa7v7CoqKiON/FlJiYQE+fPOHyq2jDps3U1NREISEhvG+RimQCAgOptqaWtm3fTteulVPSsGG0cMF8Gjp0KD1pbVXd7Y2bt/C7re3ccUv52PyRo/g914e0d/9+OnrsOBNizmLeuDF0+OhR2n/goL3qqkhvwrhx6gegqamZTp0+TTt371Hp09PSmPV4Ng2JjWXKppu8rd0r5WRnmXEK53MQHx/HaW7Q4SNHaf7cOQrjy1eu0tffrqFHjx7RT954g7ufj+j377xHL69+iamj4pnF+CJTq4+k1seP6eSp07Rrz1679ZQdfRsBQ7ufgE47Nix7U6MA9ajhsRv84+YPDw9j3YGB9PBRO8Hj8LxcftfTJKGH7s007pLBQkJBPcQcbAH+FBwUrJbhJJUNGEBZmZm0ZNFCtWqZNiAgUKXN43yDgoOolR1JRkY6S/WNNR3bxSfStbS08LHBhDEoOBfYSytXUCbn09DQoPCFU1i5/AW1b/q0KTQ8L49qb9+mYh7/SkiIp8ULFqh98+fNVY6ttLRUjWNlZ2V1cPSB7ATzcnI5z3uq3nN5LBGG8tF+dP3sGcYc582ZzZgGsgO+RMHc3lkzZ6huK455dtkSGpaYqNqD8cLUFEvGk3acgDHGy+CAX3juWf6huMdR2VNCG8fyWCMMdcGPBCy07dyMGT1a/ahEREQo54ofG7H+iYChkZqGVGsUvPH660qjYMPGjXqXx76Liot5kLuYqbgD6ac/fkOVu2Pnzg5RCiYJPvviS5o7p5BmTp9OsTyQbc+uXrtGH3z0CY/vpNCbr72qxtzspb19u45+//a7ytlgkHvYsESVdOKE8UwH3q5/cOnyZbpYVGzO5sTJU7Rpy1aaOmUyLZg/T0VfsbGDlaOCQ/vT+x+o9vziZ3+jyseNHBFuGvcD5mfOnmVhmWPmoCgszHSj371bT0eOHqcBfgOY6feBuTwsoP2IIv/x73/DL/QPoiFDYjvsxwqip2B2dNoQwdXzBMqnn3/J3HOmqG/Z4sWUlDRMtfUJR5PRHF028o/J2+/9SU1I/Oyvf6oiMJ0Hvm/dqlH7Z8+aSYX8X15RQR9+/Kn6wQBWMQ7GGHfs2sVtOkY//cmbyiFmZ2VypHjGMntZ7icIeMSp+ZJGwbKli7kbGMezbuf5hj/e4TTfuWMaM4MTgvn5d+RZs0ysu4/o1t1nx4DIwV4kgxseVt3W5QwIMMGOGw/RkraWhy0dnBpuatgl7noSO7VwHtdDtAPD+B66YvjHjGwidzuHcXf05KlTlJ6eRrk52eof3efDfLNjZhdOEtEeJgTwf+fOXfr+hx108+YtZMniM4/N3eJ6dppwaiD6tLYCjhrD2yIl7CsuKeEIuJad7yQ1S6zbh31+HMlqx1hbW6uiQGyv4Vld62gKTg8GPGHozsO043Ukb3PzlqkNwBpRHqJwsf6JgOFOzWhKb2fJIHF6p0yayKy1o3jAu5YwlmRt7aM81ns6r8dERauNeCwhOChIjb1hENuW2csX0VJxSan5kBs3MdbUbnr2E2NMsHvcFUO3EqajLrXc1tW6xY7l7t279F///TsaMTyPMI6Vz+NMeFwD41N4JOPChYuUm5ujHB72z5wxjR1pkcrT2dH37ewIEfFqg0OZMmkSSwmmq0diMA43ZfJEtY40iAxh6BrC/PnREcyMu9Vk5sCtcPbmzAx1akY7NA18wD+9rxc7fD/+15+Y1zHmM5fHfGC4+ecUmsaLcAN2x+AYMEg9eHCM6k65+qwVysTYkyObMnkSD+oPMY9LYfC8kicF0PWM5QH31atWkj9HfXAWcNRwaK/8aDU7kzT1/BecJJzbY47AHvHA/2/f+pUaH4Nzu8ldPTi1lgcdBWgc1UfvO3P2nF40f+voDGNpmEBBtKQNky6IGPED8Ffc9R/Af9HRUXq3fAsCbkXAUKfmSxoFeLhWRxe40bWVlJbpRfM3Bqa7MszGpfDNiygND8hu2fpdV4eoAW+VqOvsVTKM2+VkZ7ctl9P2HTvU8jdr1tFzPPAOxwrD5MeadaaZ0f0HDvD4VaSaWBhN+aq7t4tnIFt5XAsP1mLwH2NWMER9e/btV8udPpysoz4OM46Z/Jyffp4N3WNEmMgGTnXLtu/oGe5CYz+6tnDQmLW0ZRp/fRpcqYo+xla+sq1/IODzzLfWbxRYnxZ0P52J1KyP6+46ZjkxaL2HHcTe/QfUWBoiJKMM41r+PLaHGVtrQxfuKf9ZPpKh0+C5uiB2uBjrsjY8RItHNrp6O8L6OGfWEYE1NjYpR2YrPfZjLE9MEDAKAUMjNXdU2pUxM3eU50oeiECMdGioC7pt9gwRjz0zObr2588s03Wnq2x5vKPlrhxWV/sd5S37BAFnEPB5p+ZMIzyZ5uDhw3SeH/Ssbxv89mTZUpYgIAh0jYA4ta4x6pACkYZEGx0gkRVBwKcQ8PkxNZ9CSyojCAgCPo+A4a9J+TwCUkFBQBDoUwiIU+tTp1MaIwgIAuLU5BoQBASBPoWAOLU+dTqlMYKAICBOTa4BQUAQ6FMI+Kekpf+LL7cIbxTkjMg3/6ekZjAv2WN+TqxrFlpn24UXsceOGc18aQE22W2hO1A4cyYTLV6jB8xv5shcSWsvH2gU4FUusFaAQsgThpfeQWt+rby8U3HQKAC7CR4E1i/Ud0rUgw2gU1q9apVi/tDMJD3ITg7t5wgYGqmJRkH3rq7+oFFgiQy41pJZAyKJ3wsVEwR6ioChD98+Ysrl8IhIxXj71VdfujXqyB1ZQPi3Z+58vcoV3QFX0tqru69tN1qjAOScv/vDO4a/cuZruEp9jEHAUKeGrhOcmWgUiEbBW7/8ObXwS/Q3WJ8A7CLN3LUGSSfYakGH/tyypcx0W846BGuNudIl136DgKHdT6CoHRuWRaOg/2oUQFAF1OXQgWhiFo/BTM39TJtmQmBggNIdGDQoBJeJmCDQIwQMjdR0zeDYNm3aRKJRkEf9UaMAVOLaoMgFZazXXvmR4l+DEA344MQEAXch4BGnJhoF/VujQF+soDuHQ4NVVVUrp4ZJAnFqGiH5dgcChjs1oym9XZkQEI0C72gU6AsV8nnogkLTQNN5a7EVnUa+BYGeImCoUzPaoenGO8N8KxoF3tMo0OdpACtLrX5xlYrMslhJC7Td17lrCmZfMUHAXQgY6tREo6DjadLc+xbi5B0TWK31FY0C3Sw8vAsJuxyW7wOdOCT7oBGByQMxQcBdCPg8n5poFPQNjYJ//p//pNTZ/+0//pOiIiOpiTU9QYcuJgi4GwFDIzV3VNaVMTN3lOdKHqJR0BktZ1iBjRB86VwT2dJfEfB5p+ZrJ0Y0Crp3Rj78+FN6wjJ9YoKA0QiIU3MRYdEocBGwtuTyonr3cJOjXEfA58fUXG+SHCEICAL9GQHDX5Pqz+BK2wUBQcDzCIhT8zzmUqIgIAgYiIA4NQPBlawFAUHA8wiIU/M85lKiICAIGIiAODUDwZWsBQFBwPMIiEYBYy4aBUS9XaPAsv5Gayp4/jaVEl1BwNBITTQKXDkV7WlFo6AdC2eXpk6dQtOnTVXJ4+LiKJn1DoYOGeLs4XbTzZ1TSCteeJ5iYqLtppEdvoWAoQ/fikaBb53s7tamt2kUuLO+2VlZFM9O8ujx4zaVxrqLqRxnHAKGOjVN5S0aBaJR4A6NAkjpLV20iOLj45no5ClVVFTQ+o2bqZlfjre0OYWzWPJwDB0+epT2HziouNuWLVlMwxIT6eGjR3T58hVau36DOuTl1S9RAud34eJFGjVqJLXyS/YnT52mXXv20qsv/4iGxMaqdKtXraTjzCqyc9duy6Jk2QcRMLT7ifZqx4Zl0SgQjYKeaBS8uHIFpbE26d36uyzc0kw52dm0eOECXFodLCg4WGkeBAUNVNtXrViuxk2rqm8oBzi6IJ+WLl6k9oWGhqi0Y0aPVvsiIiJUNzY0NJTu3LlDj9gJwup4uYnFYsR8HwFDIzXdfNEoqKPfv/0u84aJRoEzGgXz586hYHZM2hBx+Q3wU2Nkd+/epT+9/wENHDiQlj/3bJcvySO6S0xIoAcPHtDBQ4eYkDKAiSpXUjaTVFrajl27lLLVT3/yJiUNG6b2b966TemRxnNdvv9hB0eG1y0PkWUfRcAjTk00CkSjANe/sxoFBRxJhYeFmW+Z4pISCgkxKU0hYgLlE/6hsdqVocsJg5N85UerzckjmdPN0kAxDgOJJZwanKZY70TAcKdmNKW3K3xrolHQOzQKtnNUFBgYaL6j4HAiwiPUunZ2/n5+NGvWTNU93Lf/gDmt9ULt7dtq0y1WrFqzdr1aBq24mYVYH8DU4o7M308oxx3h40v7DHVqRjs0DaRoFERQbW2tUjhHNJKRnkbnzl+gGzdv0ojheSqqecT02b9961eE8aYDBw+x+EkNpaelUcuDFg2j099nzp7rlDYgwHQpBQcHUWpKsop2rBM5q1FgK/+GhkZqZL3QIfyYBsbWAgL81Zga1KkcObXKyipqaGhQA/7jx42lVuZ0mzh+nJrJ/N3b71hXsdO6noSYM3sWHT5yTE0odEokG3wKAUOdmmgUdDzX5ujAcVBgPkg0CsxQqIU169bRsqVLlKYBHCQiuB07d3VMZGPtmzXrWAF+CcGp4bi6uju0Zdt3NlISR3AdN2MmFF1VPPdWzerymCUV820EfJ5PTTQKRKPA+haCxgF+IOo5AnPFcJyfv1+3njdDJCqaCq6g7b20hkZq7miWK2Nm7ijPlTxEo6AzWp7QKOiuxkF3j0MrxaF1Pte+usXnnZqvAScaBd07I6JR0D3c5CjXERCn5iJmolHgImBtyUWjoHu4yVGuI+DzY2quN0mOEAQEgf6MgOGvSfVncKXtgoAg4HkExKl5HnMpURAQBAxEQJyageBK1oKAIOB5BMSpeR5zKVEQEAQMRECcmoHgStaCgCDgeQREo4AxF42C3qFR8NKqFZSbk0MXi4rdeqeMGV2g3pFtZL400GSJ9W4EDI3URKOgexeHaBR0xg2Ej6mpqZTG/+42b+Dt7jZIfu0IGPrwrWgUtAPdm5fcyflvC4fSskv0uz+8o1hGbO3HNnCxvf3ue51eOLeXXrb3XwQMdWqayls0CkSjwB0aBT954w1+B/MR/f6d98isLVBURPmsLeDH7Bs7d+9h2qMUpiTKUt3I7Tt20Nlz5wmKUGMKRlNpWZmiRQJV9/XKStYp2NhJ36D/uoK+03JDu5+ASTs2LItGgWgU9ESjIDw8jMLaGHG1tkABOzRoB4DZduEz8yklOZk1DOopIiKcCmfOxGVHwUEmzYJxY8eodeYfoqzMTFqyaKFpXT77FAKGRmoaKdEoEI0CfS10V6OgpqZWZ9HhG9oB4Dz7h9+8RYjAvl27TkVh//j3v2EeNBNbrj4A/HQffPQJj82l0JuvvcoOMEnvku8+hIBHnJpoFIhGAe6ZnmgU2HNqdXV16nZsYWZfOLXbdbcVxTek8Kx1Bqqqq1Xaa9fK6T4LsSDq04pTaod89AkEDHdqRlN6u8K3JhoFvVejwB13W0yUSWV9cEwMd0mD6P79+8rRuiNvycN3EDDUqRnt0DSMolHQ9zUK9LnuyXdubo6aYBg8OIb8WLgFYixifQ8BQ52aaBR0vGBEo+C+kqDLycmmh9xdPMGK5yWlZUpzoCNS3Vhr0xZox5g3WAkOXL5ylVJYFAZRWm3tbdqy1bZOQTdKl0N8CAGf51MTjQLRKOjp/YJZzokTxtOevftoL8vpYSwNoshifRMBQyM1d0DmypiZO8pzJQ/RKOiMlic0CjqX6vwWT5wz52sjKY1AwOedmhGN7kmeolHQPfS8qVEg56x756y3HiVOzcUzJxoFLgLWltybGgVyzrp3znrrUT4/ptZbgZV6CwKCgHcQMPw1Ke80S0oVBASB/oqAOLX+eual3YJAH0VAnFofPbHSLEGgvyIgTq2/nnlptyDQRxEQp9ZHT6w0SxDorwiIRgGfedEoMFajIDo6iqZNmUzR0dFUfeOGV+41Sx2CkJAQWr1qFYXzmwXefNTEK0D0g0INjdREo6B7V5A3OPOnTp1C06dNtVnhuLg4Sk5KoqFDhtjc39XG6KgomjljOsGxdMeWP/9cjwkdLTFFfZKZSy2J29RTGztmNK144Xn3vL/a08rI8QoBQx++FY2CvnGVGa1R0BVKBfmjFO325q3bukrq1H5nNBGcyogTJQ0bpujEwevmbpUrZ+sg6ToiYKhT01TeolHQPzQKRgzPoxnTp9GQ2Fi6x1xlFy5cpG3fbzdfcaD7efP1V5UjuHu3ntZv2kQVFdcVUeOiBQsoOytT0XLjZfMdu3bThYtF9Jtf/1Idjy7jb9/6NW3YtFlpDZgztVgICAig55YtZcWpFAoeNIhqbtXQlm3fKSZci2SKyhvpyivK6etv16pdzz+7jDIzMphYMpAqq6pp4+bNhDcRtL5BSVkpZaSl0aBBIap81KNw5gwaNXKEOn7ypEmUkBBPn33xlWVRsuwFBAztfqI92rFhWTQK+q5GQTx3UeEo8H29sor82YFNmTyJJk+aiFOvbFhiIo9jhRNYaWNjB9PcwkK1fQo7BHRNHzxoIVBuDx482NzdvFVjovFuffKEapj/rKWlpS23zl9LFy9SURPoh27w2F1iYgItf+G5TgkDAwMIegdwUDAcZyr/gXKAGelptGrFcrVP6xuMHT1aEUriWAi9QGsBOqHN9+6pdE1NjXSHHbWY9xEwNFLTzRONgr6vUZCZmcERVxAVsdDwF19/o6KeaTxON4gFUbQ1NDTS2+/9kcfnhtEbrBGACQRYUUmJio7q7tQpkRRoe4KaOyYmmj757HP6P//5/6AWpt/+6NPPVHqIpuQx4aO229z1O3joMKWnpzGF2lP69Isv6ebNW7Rs6WKKZrbbKB5Dc2S5zO8G27Vnj6ICjxsaR4kJCap8fRyixm/WrKXFCxfQpIkTKD0tldZt2KTGGaNZ0OU8R6W79uzVyeXbiwh4xKmJRkHf1ygARTasptYUWV26fJnwD0PkA2toaGCJu8d05eo1te7n56++Qzhiemb+XIrlCA1dVG2Wy3obvhO5mzd+3FjzpmvlFXT02HGKCA9X2gNwaLCNm7aY09hbQJc1nI+DvbhyRYdkiCy11d25oxbhQGEBAYHqWz58DwHDnZrRlN6u8K2JRoFxGgWIbGARERHqGzOlGOCHk2tsbFTbnlIbPa1aa/+YXThTRTwHDh6iskuXaOXyF1Sk1p6CaICFs8NAv+72IQ26gXCWzc33CNcbupaNjU00cfw4VpSKpENHjlpm1WFZHcddyFAes3v3j39Wkd4AltCD3eGxPcz6KrNi0TVtbP+054DbU8iSpxAw1KkZ7dA0SKJR4H2Ngqvl5fSEx71GjBiuunBJ3MXE+Npu7pJpp6bPl/W3v78pYgsLC2VHmM+OyTTWpdPBui3w9wAAQABJREFUgcHpwNntP3BQPetm63m36hvVPNmQpZ5Bu3HrJgsYY5zuAe3kSQdHdv36dcrNyaG5swupkhWnJnAUCB3RP7BoclcGhwrDhMEDHu+DYxbzLgLtsb4B9dAaBV999aWaMDCgCKezxIxYYKCpy4BZOgxg4x+/5NZm5rm33mGxrvnu0e1ylu/enK/tgMUid9MiBs1zsrN5QHsQD6CXExTHYd+sWUe3b98mCIlk8VgWBtC/Xbte7dt/4ADP2t2h0QX5Stz3EQ/K46bGQPtuprN+zOuzZ80kRK21nMeeffvVcZ0+nKyjPg6yc9DgfMg39gSOkBCplZSW2o2STFiYCjly9JiaJIBDw3lCN1VZWx2OnzhJDRztwXHocThdruU3ZiQr2EHFx8fR+LFjWS3qgZp9Rdsd2QbupgLf9PQ0NaOJqGs7t0V3NW0fa6rcqdNnVDo8WIzJAzHvI+DzfGqiUdC7NApwScOhwQkhSnLFMDFQV2cau7J1HMa/0F3syvAjgKjPnlaoveNxHJTd9ZicvXS2tjtbN1vHyjb3ImBo99MdVXVlzMwd5bmSB24wowU8oE1pz+p1RGMjAWYaebTJxh4yXBquu9JzjhwaGuKMQ0M6YOYIN6SxZd09Dnk5Wzdb5co29yLg807Nvc3teW7Cd99zDCUHQcBIBMSpuYiu8N27CJgkFwQ8jIDPj6l5GA8pThAQBHo5AobOfvZybKT6goAg0AsREKfWC0+aVFkQEATsIyBOzT42skcQEAR6IQLi1HrhSZMqCwKCgH0ExKnZx0b2CAKCQC9EwOcf6bB+o+BBczOVFp2n8iuX3AY3NArweg5escHL0tY2h98JTElOpnXrN9DdesecWa6ktS5Hr4PbK4Zfuzlz7px6BUtvN/J7JpM74vUgvEplbXg9CXQ7eK+xqLjEeneX63i1CXxkwO7EyVNdppcEgkBPEDA0UhONgu6dGks+/e7l4PpRfV2jwHVE5IjeioChkZpoFPTWy6JjvfuaRkHH1slaX0PAUKemqbxFo0A0CnDjoHtrpEYBRFAWLphPQ4cOpSetrWo4YePmLcz60ajYPZYtWUwgfgSd+OXLV2gtDyfAXl79EiXExxN0CIbn5iptBLDvBgUNpPc//EhpFYDxdnheHh05doz27T+glLfG8jABWF7w4vzuvXupuKSUWVWyaNmSJVTFFEZ4OR7El//6b/+uWFJUYfJhOAKGdj9Re+3YsCwaBaJRYKRGwfx5c5WoSylTHuGlenCrzZ41C5ee0hzA2GlV9Q2lTAVqJmgTwEJDQxSx5LgxY9SL8GAXAUEkGHFzmfoJlp6eptJcuXpV0TrNmzNbca6V8Rgs9BYg3AIHBkZckFSCIjyKHV5XY7DIW8y9CBgaqemqikaBaBTgWjBaowB0QzAoVR05epzZcgco+iM4HTDzwlkdPHSI/P0DaPWLK5V6lTqg7WMfc9Ht2GkilAQnHNStUlKS1eQIHFYts/hWsqjM9KlTCey4J5lLrZzJMUE7lMVpM5nbDoy7MBBjvvfn983rbUXIlwcQ8IhTE40C0SjAtWykRgGEVzCzOqdwluoaQpgZ5AMgroTsHQxstq/8aLVaxoc1QeiVK1fN+86dv0DPcOQHZ4guJZzYJe6ywjRR5QyIP1sIQMN5aqdWU3vbvGzOVBY8goDhTs1oSm9X+NZEo6DvahTgbsEjJxcuXFSMwOj+paelsTL8NNq0Zau6mdAlXdPGEAwnZWYibrvVQEeuDVHdNY7C0IXN47E0GBwdDI4LVOXrN26iau7Oak2D5nvN3P01aRpY560OlA+PIGCoUzPaoWmERKNANApwLfz2rV9REEdjcG43WcgYTq2FtUTRZUSUCJFlqFCB3huiLCCl/N3b7+jLqNM3Bv7h1CCHB8r265WVKo3J2WXSVNY1PcdOFDTecHJwnhhqEfMuAoZOFIhGQceTa/71buPe77i385poFJgwcVajwJEGA3Qd6ljeDk5tMj9IjHE3qLc7snPnz9PDhw9VkktXTF1PrED8BV3diIhI1d2Fszx56jQdO37CUXayz0MI+DyfmvUbBda4oPvpTKRmfVx315csWkgTJ4ynPfzk/V6e2g8LCzOU0hu8+VBbampTLbKsNx5uhuycibrbcg+k6sKVuLAtnn5oCOBmNWpmztsaBY7ahxlJP38/h1oIHZG0vwYVejw+AgEbCNyI+QYChnY/3dFEV8bM3FGeK3mIRoFttLytUeCofHc6cnRjbUn12UZFtnoKAZ93ap4CwtlyRKPAWaQknSDgHQTEqbmIu2gUuAiYJBcEPIyAz4+peRgPKU4QEAR6OQKGzn72cmyk+oKAINALERCn1gtPmlRZEBAE7CMgTs0+NrJHEBAEeiEC4tR64UmTKgsCgoB9BMSp2cdG9ggCgkAvRMDnH+mwfqNANAqMucqM1CgwpsaSqyBgGwFDIzXRKLANeldb+5pGQVftlf2CgDsRMDRSE40Cd54q7+XlbY0C77VcSu6NCBjq1DSVt2gUiEYBKHwKZ81QL4A3N7HMYVkZbd66Td0zWiPgQlER5Y8aSX7MdbZz9x5KTUlRBI24jrbv2EFnz52nuXMKaUzBaKUnkMn03CAUAJvGHWbdABUQ7DgzaGxnckiYo3Lf+uXPqYVf7L958yblsTYBqIgOMDMuyhHrvQgY2v0ELNqxYVk0CvqnRsGQIbG0/PlnFYtsVVU1BQYGKKYTaArAtEZAATs0sJGAoXbhM/OV1ipeQAfjSOHMmSptcFCw0gAYU1BAzffuKQaTMawpOnXKZOWUcOw0Xo6KiqKuyoUGQRyzbIB37f79+xQfH8fHTlHlyEfvRcBwpwZo4Ng2bdpEg2NiaN7ceV5Bq6i4mD769DP6/KuvWdVogKrDjp07O9D2QMj4nT/+ifDSOiyW62vPwHX2//3hHfr8y68Ug2pKsonx1Fb627dNGgXrN25Wu4cNS1TfoDCCwpH+B9mgpYGz6/fvvMu8+bvUZigcgTI6ISFekR7+6f0PlNrRPb65UX5oaChFhEeotMD8zNmz9OcPPjQzv1py+P+wYxf95aOP6fDRo5ZF0mdffEn/63e/Vzc5HAQcg7XNnzvHXGfUHWnAzx8UFETFLHb8Aee7Zt0Gusz02IM4j+zMTAKFEvD9C6szrV2/UWWJ7ZYG6u0/vPOeEkaB8tS3a9fRu3/8M4ENJTLS1C6dHtHUH//8FzPF9tFjx5UmQGVVlWKiTWAH5Uy5YLv94KNPmCzyXUUfNHToEFVXXY589z4EDO1+ajhEo6B/axQ8t2ypuhQ0JVDZpUsEZxIVFakvEfUNEkcYuoRw0LfrTDxlkLQbOHCg2qc/wGQLa2lpUd9NLHRiuQ6K7Vgmb4Q5Khe03bfbygVNd0xMNA0MDFROXR0sH70OAcOdmtGU3q7wrYlGgW0O/4s8lqXsqXOUvBivCuQbX9vNW7dU1xLrEUxcCQNRY0H+KKphBSbNYRbB3T0YqK8RiTXx2JqR5q1yjWyT5N01AoY6NaMdmm6eM8y3KcnJPMg8Wx1yi8Vn5xQWqmV0W7pjubk5SgR38OAYdYPqaMCVvBCxOLIpPPCN7lBykqlrC0JCzbePKGT1qpXkz/JscCSQb7vLWpVQS8pIT1MiITd4AHzE8DzVfXvE0Y89Dn9HdbC178zZc502X2WREkRfI0YMV924pKRhynnt3rNXdUNbZ7SqumBGHKLDMM353ykzN224evUaeaNcN1VfsukmAoY6Na1RsHXbNq8LUqSlppijC9zo2kpKy/Si+dusJWDe0nkB40XQhAzmcSSIcmzZ6pjvHjmY83UuICKtUYBjr14rVzOAWAbf/nPLlijVJKzXQCWJx7Bg+1m7Mpq7dRDrHU35jPs92sUziWBpBYf/3NmFLPBrGnQHDfWeffvVcZ0+nKyjPu4a1w9jYpCNg2YmHFwJiwofOnJU6W1+9/12VnaaTuPHjlVOtuzSZZ793KoP7/jdVnY7XrzBbhRpSmyurvlYovKKCnKlXFCjw/R3x0rJWm9BwOf51KzfKLAGVjQKepdGASYVMB7W0mISNLE+n0ate6tco9oj+dpHwNBIzX6xzu9xZczM+Vzdk1I0Cmzj6KgrbksIxnYu7t3qrXLd2wrJzRkEfN6pOdMIT6YRjQJPoi1lCQKuIyBOzUXMRKPARcAkuSDgYQR8fkzNw3hIcYKAINDLEfDIGwW9HCOpviAgCPQiBMSp9aKTJVUVBASBrhEQp9Y1RpJCEBAEehEC4tR60cmSqgoCgkDXCIhT6xojSSEICAK9CAGff6TD+o0C0Sgw5urq6xoFGUwoiVflKq5fVxRIjtprDMKSq6cQMDRSE42C7p1G0SjoiBvYble88LyiBeq4x/m19LRU9e5pRkaGOmjq1Ck0nd9TFet7CBgaqYlGQd+4YLytUQBKbtAVHT1+XLHb9g1UpRVGIWCoU9NU3qJRIBoFjrQCzBoFFy/SKKb0bmWm25OnTtMupi169eUf0ZA2skdQLUF/oLKykpl3l1BVdbWi+o4dPJj+9d/+ncKZgglMvImJCfSUWUKuV1bRhk2bFUV4VzcQoraxowuYYTeSWU9qmdFkLxWXlCqNBFtlgfXEloEBZsb0aarO95gi/MKFi7SNGUpgTmFggE7DNI5K0bao6Gj+Uaij48dP0JE2yq2+qNNgaPcTJ1I7NiyLRoFoFDjSKIDWQHNzs+KHg5MB++2dO3cUPxuunzpehoZBQECg0inIzcmmKHZCmgzypZUrKDMjXbGA4LrLyc6ilctfwKEODTRN85hrD/TlZUw5Dsr0559dRnCW9sqylSGiSbD84hsO1Z+JMMGJN3nSxC71EozSaUDbQL8Ozr3rFdcpmh3bAtZ/gNAMrC/qNBgaqekTjwsMGgVvvP660ijYsNHEUa/3e+IbGgX4B2PrT3/8hirSlkYBOPoxhjNz+vQuNQrAbZ/Kg89vvvaq0giw1w6tUTA8L49eWrWCLDUKIPyh7dLly3SxqFivEjQKNm3ZqkRFFsyfxwPdnTUK0J5f/Oxv7GoUHDl2DARhyiw1Co4cPU4DWKsBdNaWhvYjAvrHv/+N4uq3p1EAB6ANOgdao6CI6//F19+wc8kgRAiWGgXgrkP+WaxN8OrLq5WGgFZ9Ql47du2iI0eP0U9/8qYikszOylSKU8msvxDP5YGvrYJvzBHDh6uiG5nC+70/v0+g4bbWbrDGRdfV1nduTo7SNTh5+gyVM9llABNvZnHZaBPyhlmWhXU4CiMwQBsRpf7Db95STh06DSDTxPmwpdOwbsNGFc1mcV1BeLqD9Sz+x1/9mIYlJhJ0GnTb9h04SHuZO+8ZFrvBecEPAu4HmNZpaGA8//ff/m+KmBSaEhCj6Y3mEacmGgWiUYCbQ1MS2dMoAC04rJ4VpMCOa61LoHZafNQwOad2OriJYZC5e8SaBvhHBJcYEsI3eILFUZ0Xo6Oj1EYQXPIdb04AR6nztywLCQo4AgpneT5txSUlSlgI66Awh+FHCv8wb+k0xLS1DYzJMLAnw6DFoK2v6TQY7tSMpvR2hW9NNAp8XKPALrut6fbz9/PX96H6NjPj8hpYfGE6GlXL3H2Fgb5dU6KrDVYfcFzoMq7fuImqq2+oqA1Jmu81s3M1UalbloV9vUWnoYHbFsdtU477CinpQNQfkWdfNUOdmtEOTZ8U0Sjo2xoFGGeDzZk9iw4f4e60DetKu8HGIeZN17jLia4uxJDP8cA+pArh5ND1x9CJLestOg26bbNmzlBt0jKMoIfvq2boRIHWKPjqqy/tXhyeAtZaowCDt/jHbJe1Wf8qW+/H+uU2jQJomRqtUYDxDWuNgtscmUD8BWMp0Cj4du16VU1oFGBwHQPEEARGN2znrt1mjYLHvA6NAkStRmgUPGTJOmgUQE1KaxRorQB0c6BRAMwcaRRYB2wYY0JdEW1BF8KeQbvBHi72jsH2/TzehPHLiIhIFuSZpWYuUeYxniV0xbROgzsw0OOg5msRoFgDY66c1lZo29A2horkaNvxkycpiCUGcV78/f3p0OEjdtum9Rn0t7mIXrTg83xq1m8UWGMrGgX9R6MAA/igUO/K8NA3bsqGBte6WJitHMoTN3Cg+DHoicGpY+DdeiIGeXpDLwFti42NJT1u2ZO2+fqxhnY/3dF4V8bM3FGeK3mIRoFttPSEgK29PdEKcMahocz6NqFjW+U72oZnz/RAuqN0zuwzCgNnyraVBm3rDw4Nbfd5p2brBHlzm2gUeBN9KVsQ6BoBcWpdY9QhhWgUdIBDVgQBn0PA58fUfA4xqZAgIAj4NAKGzn76dMulcoKAINAnERCn1idPqzRKEOi/CIhT67/nXlouCPRJBMSp9cnTKo0SBPovAuLU+u+5l5YLAn0SAZ9/pMP6jQLRKDDmOnTE2T9q5AiaNHECHTh4iOlqSpyuADjRAvktAJA9igkCnkLA0EhNNAq6dxr7ikYBXhCfOWN690CQowSBbiJgaKQmGgXdPCs+dpi3NQp8DA6pjo8jYKhT01TeolHQPzQK0EWdNGE8M7aGcTe1qMOlD2ptE9d/FTPqhjANzlBFpgiHeeXqtQ5pLVfwEjsIFsGyEsxsJTW3amjLtu8UGyzSYR8ovMFkgncbf9ixixlNrpm1BaBnAMrqeGaBxXudh48cVay1oAoH08rX365RL6+bufo5j+FMdQ26I7DQogsNdmIwsaxZt16VERUVZVcLAazJYwpGU0lZKWWkpam2lpaVKa2Enr4kb4mLLNtHwNDuJ4rVjg3LolHQdzUKwFQLqujBzOvf1NzEnGTDFR01zjusnes/RxEWPmCKIrDVPrt0qSmBnc+lixdRPouxgILnBjsliKosf+E5lXrpkkU0dsxoRep44+ZNxZYLTQIMe+jy8pgbLSDAn9k9WtX+F557lh3WPZUfHC0ESWCaqz8lKZlprB8oMkXkBfZdrMexE54x3cSK60gLITgoWOknjGW9hZaWh0wfH6Dqr3nMVGHyYSgChkZquuaiUVBHv3/7Xb7R+65GQUZ6muL2v3zlCn30yWdKo+C1V36kLwHzNyKgd//4Z8WL/7O//qlycNBsGBQ8iMVAcszpbrPq0cFDhyk9PU05oE9Z2+DmzVu0bOliio6KVk4nKyNTpf/iq2+osqqKfvzGa5SakkIZHLnBocBucWT39nt/UhxyhcwjB263Dz/+lJYsWkgTOaqMYSesrbW1ld7/8EPFsfdXb76haINQVzi/VSuWqzKd1UK4cLGIvlmzlhYvXKAmWaA7aotYUpct3+5DwCNOTTQK+r5GAbpksMqqavUNbn5EYwNZGMbSam/XmSXrwOWPCAncY+D7Hz9urDnptfIKJSQSwfvvM7kkHBps46Yt6hvCKhAiAV8ZHBoMtEZwapDUg5oTrJHVp2DIA6ZZdDXP2QC11fTRwvUFB5tfG204IjR0GRHZwQbwn7NaCFC+gsE5wxA5inkGAcOdmtGU3q7wrYlGgXEaBVoDQAt9gAgRbKtm5ta26zkyIlxJx4HfK5KZZmF379Zz1/ImawKYnAe2wRmBPw0OBddQeHiYEkGZyOytYCs+xGNjcFAYG0N3ExxqcJAwLZmnVtz80ZUWApSylNllqXVzhSS7TggY6tSMdmi6NaJR4H2NgvKK68qBoYv98ksvKnbXAQMGdHJqiOh+/Obr3P18yuNvMSqCggQcIiJbBI3VN6qVCPDqVavoxq2bPAhfoKIzUJQjQoME3EsscoxJAugMIJ+rPPEAllcjrCdaCEbUR/LsjIChTk1rFGzdts3nNAo0FNCitDbr6MJ6P9a1RkFwUJDhGgUoz1qj4LllS5RGAfZBo2DNug1YZE76AzzmFKk0CkZTPuN+j3bt3mPWKJg7u1CNLyGtOzUKIHuHMbDx48ZRDmtKYuwqiLU6gY+lwXGFcXQF59bU1Ezbd+xQjsgyjeUyFNZfZJHixIQEpZeKY77bvl21ZwN3RYN4YD45aZiaQIBC0g87dykpPmunps+pDqDaaPwti2pf1onahAI0X7/+hhaCPfzbM7FecliidWJZ7wECPs+nZv1GgXVbRaPANhd/BHfzgtih2KLPxhjWw4cPDemm4RGMUNbatKbUhgDxiyuXsw7mFfr408+U7iQ0Op01PLIB+Ttb7YGoMByl7ho6m2dP03VXC6Gn5crxjhEwNFJzXLRze10ZM3MuR/elEo2CzlgCE2uH1jmVSXTY1nZ726AWbk8xHIP+euDf3vFGbHemnUaUK3k6RsDnnZrj6nt+r2gUdA9zPBD7l48+pvt2dDS7l6scJQh0RkCcWmdMHG4RjQKH8NjdibE96GKKCQJGI+DzY2pGAyD5CwKCQN9CwPDXpPoWXNIaQUAQ8HUExKn5+hmS+gkCgoBLCIhTcwkuSSwICAK+joA4NV8/Q1I/QUAQcAkBcWouwSWJBQFBwNcR8E9JS/8XX64k3ijIGZFv/k9JzaDWVn7A867zT6N31b6M9HTFy4Wn4W095T6HXy0qnDmTH0m4ppgnHOXnSlp7+Yxhjq8Rw/PUS92gbfKEQaMA9DjXyss7FQeNAlD+4OFXTz+1b10ZUP/gPVCweuBVLDFBwBoBQyM10Siwhtu59b6iUeBca11LFc3vjCYnJ1FSUpJrB0rqfoOAoQ/fikZB37iOfEmjoLTsEv3uD+8wXdHdvgGutMLtCBjq1DSVt2gU9H2NAq1B4KwmQB7rAMwunEmDY2LoIdMFXWG9gA2bNinGWq0XAI61XGbDbWZutSPHjtORo8cIfGXQJSivKGd9gbVuvyEkw96PgKHdT8CjHRuWRaOg72oUuKIJ4O/nR0sWL1QMtaBwAgfayBHDacrkybhMFNkjxE7A69/U2KR0D6B/AB0EcP6DMBLiLWKCgC0EDI3UdIGiUdD3NQr0uXZWE2D9Bo7KHraoyYdxY8bQ1CmTFa23zgffX33zLZVdukzQOsjMyFDaA+COExMEHCHgEacmGgV9X6NAX2TOaAKAynvkiDylOBUUNFAfqlSh9AqEU+DQYFWsewCnhkkCcWoaIfm2h4DhTs1oSm9X+NZEo8A4jYKkYc7PRmL8bQxLyEFLc+PmvawBGqf0NS0v0oEDA5XeJmi6o6NNoi7aYVqmk2VBwBoBQ52a0Q5NN0Y0CryvUUDD9Nno+lsrK2F8DMpPw/mZPGuDvsHqF1epyCyLtQdAx339+nXy9/e3TirrgkAHBAx1aqJR0AHrdhESJ+nqTUrj2SoTX9co6NhSMrdV0/1bNhmK5ZggwMO+M/ihXwivxERHcxbtqfCgb319vdI7APX4iZOnCHoSIgpsjbSsWyPg83xqolEwSEUnTW36lZYn0BFHvrc0Cizr19UyZjFbW58ocRjLtP/8P/+JH+1ooX/7j/+kKJbDa2IpPNCEiwkCziBgaKTmTAW6SuPKmFlXebl7v2gU9AzRRn5coyszUsOzq7Jlf+9EwOedmq/BKhoFxp+RDz/+lHVBnxhfkJTQJxEQp+biaRWNAhcB60ZyeVG9G6DJIWYEfH5MzVxTWRAEBAFBwAkEDH9Nyok6SBJBQBAQBNyGgDg1t0EpGQkCgoAvICBOzRfOgtRBEBAE3IaAODW3QSkZCQKCgC8gIE7NF86C1EEQEATchoBoFDCUolFA1J80Ciw1IEJCQkTzwG3uxDcyMjRSE42C7p1k0Siwj5s7NAos8XVHfrq2c+cU0ooXnqeYGLzHKuYtBAx9+FY0Crx1Wt1bbl/WKHCn5kF2VpaiUTp6/LhNVTL3nhXJzR4Chjo1TeUtGgWiURAaGqqYOb7+do2i7zZaowBSeksXLaL4+Hjm/nhKFSynt37jZmrml+MtzZbmwfPPLlOklOB0q2SCyo2bNxPeJHl59UuUwPlduHiRRo0aSa38kv3JU6dp15699OrLP1I0Ssh79aqVdJxZRXbu2m1ZlCx7CAFDu59og3ZsWBaNAtEoGMuapp7QKHhx5QpKY2qju/V3WbilmXKys2nxwgW4DDuYtebB0sWLmMCygB48eKAokTLS02jViuXqmNDQEKWPAIJLOMeIiAhFbgmHfefOHeWskbCOl22xqqhM5MNwBAyN1HTtRaNANAqWLFpIEyeMp5jBg9Vl4S6NAuQJkRZtly5fVl2/oUOGKBm9P73/AQ0cOJCWP/esUy/J5+aY+Ot27dmjnFTc0DhKTEjoME62Y9cupWz105+8qcRgspnEcvPWbUqPND44mL7/YQdHhtd1leTbwwh4xKmJRoFoFCDygQ3gf3dqFMChYCxLG8Rc4MRgiJhAD4X/Tz7/Qiex+x0QAKWqcLUfkZ6lDUtMNK+CYhwGEksoXOnyzAlkwasIGO7UjKb0doVvTTQK+p5GwZGjx6m4pNR8E924eZMdJ1wnS+2FhalvdHdnzZqpIq99+w+obbY+4Pya792jUH7M490//lmx94JWHHaHxZMnT5poOkzT+ZrWOn36+wnleCdQPLjBUKdmtEPTOIlGQf/VKCi7dElfBh2+QUA5hLugiLgCAvzVmBrUqRw5NWQAHYTcnByaO7uQKquracK4sRTMXco/vPNeh/xtrehJiDmzZ9HhI8fUhIKtdLLNWAQMdWqiUdDx5EE8RFk7FX/HBFZrolHQfY2CNevW0bKlS5SmAaItdBl37NxlhXDn1Q2btlBQUDClp6cRBF+glbCdx8hu19V1SqxPp96BmdBIph9PTkqialaXxyypmOcR8Hk+NdEoEI2CnmgUQOMAPyb1DQ0u3V2DBg3i2c1wunnTNH7mysEYm0NXVsw7CBgaqbmjSa6MmbmjPFfywIV7l8dajDRECvbM0Y3a0NDIh+G/s93yEZVzT2gUdFfjALg7wr4zqu1bxKG1Y+GNJZ93at4AxVGZolHgCB337BONAvfg2F9zEafm4pkXjQIXAetGctEo6AZocogZAZ8fUzPXVBYEAUFAEHACAcNfk3KiDpJEEBAEBAG3ISBOzW1QSkaCgCDgCwiIU/OFsyB1EAQEAbchIE7NbVBKRoKAIOALCIhT84WzIHUQBAQBtyEgGgUMpWgU9C+NArfdPZKRTyJgaKQmGgXdO+eWHPrdy8H1o6ZOnaIID20dGRcXp95nBEeZt82dmgLebouUbwwChj58KxoFxpw0T+falzUKPI2llGc8AoY6NU3lLRoFolHgaY2C0QX5LPs3naKiIukev8d58WIRbdn2nbqjoqOjaNmSxQTix4ePHtHly1do7foNat9bv/w5tTx8yOy5dUqn4PCRo0zvPVoRQv7pLx+oND9+4zWKiY6hb9aupWvXysmepgHUpcYUjGZthiuUmpKiKMD/+P5fVB7yYRwChnY/UW3t2LAsGgWiUeAJjQKwZCxiPQKwbJw+c1aRQ06aOEFpD+A6hOYAxlGrqm8oRwMHCG0CGJhvQQ8ONt36+gZFIQSeyGHDEmlwTIzKE9RC4KGEQ3OkaRDMFEbh4WGE/Af4DaDGpiZVhnwYi4ChkZquumgUiEaBJzUKwGUWHBSkWDZqmJHkxKlTTBQZoJwUVKagOQB68YOHDpG/fwCtfnElO7FMfbmq708//5KuXL2qlvPycqhg1CjKYf2CxxzZ+TGT7pUrpn3OaBpc5rQfffKpyks+jEfAI05NNApEo8CTGgUXi4rp3PnzNHLECFq44BnFp1ZZVUXrNmxUXU7cVmCzfeVHq813GMgdtaG7qh0atl28WKycWkpykpknDWU4q2lQWVmps5ZvDyBguFMzmtLbFb410SjoHxoFuG++WbOOI7Ejir02nzU6IZAydfJkFbVhPzjl1qxdj0UCM66ZlRgbrChti4qLVdcxMSGRHrc+VvJ32AZzpGmguqkqOyepjlWO8tFTBAx1akY7NN140SgQjQJ9LeA7NSWZXn/1FQIJ5aEjR5jIs55iWZoPEVhlZRU1MAvukNhYGs/6A1C2mjh+nJLV+93b71hm02EZ3c2C/FFq25lz58z7eqJpYM5EFtyKgKFOTTQKOp4rczTg5A+3aBR0T6PgWnkFHT9xksaNHUOLuPv5hB3XlavX6PjxE+qEIIp7btkS5dQQpdXV3THPjHY8Y+1rF4uKzE6tiLue2lzRNNDHyLexCPg8n5poFIhGQXc1CiCNNzRuKKun31UTA9a3EvQL/Pz9lFOz3ufqek80DVwtS9I7RsDQSM1x0c7tdWXMzLkc3ZdKNAp6hqXRGgXoWlbzYxv2rLv6Bbby64mmga38ZFv3EfB5p9b9phlzpGgUGIOrZa6iUWCJhiy7ioA4NRcRE40CFwHrRnLRKOgGaHKIGQGfH1Mz11QWBAFBQBBwAgHDX5Nyog6SRBAQBAQBtyEgTs1tUEpGgoAg4AsIiFPzhbMgdRAEBAG3ISBOzW1QSkaCgCDgCwiIU/OFsyB1EAQEAbch4POPdFi/UfCguZlKi85T+ZVLbgMB3FppqSlUcf06lZZ1znfO7EJKSU6mdUwk2NUDm66ktdeAMaMLmIQwmvCOYW3tbXvJ3Lp95vRpilJn9959nfIdNXIEgY/swMFDVFRc0mm/0RvS01IpPS2NrjPbRUlpGb20agWzZbTSt2vXGV205N8LETA0UhONgu5dEaJR0BE3sMbOnDFdETcGBQ2k1NRU/hFK7ZhI1gSBNgQMjdREo6BvXGe+pFHQ0vKQ3n73PWt2oL4BtLTCLQgY6tQ0lbdoFIhGgbVGgSOdAKR94blligOtqamZKbU7vr/5kzfe4O7nI/r9O+8RIrdFCxYo5loQP969e5d27NpNF1iTwJ6BW23hgvk0lGm7n7S2qmGHjZu3MCVRozrEnubAy6tfooT4eCopK6XhubmqDESMqMP7H36kXpxfzDTiw/Py6MixY7Rv/wGl0AUKc5BQ1tTU0u69e6m4pJRysrNYJ2EJU4pXK4pwUCP967/9u6JCsldv2e4cAoZ2P1EF7diwLBoFolGAGxzmSCcA1N9ZmZmKvBH6ACB5tDTw/oeFhalNUyZNUtoDDx60EKiaBrNzwPGObP68ucphlpaWKrJI6BHMnjVLHeJIcyA0NERpDowbM0ZRhYPN9w47Uega5GZnq+PT09NUGjDnQptg3pzZimW3jMdqQSUOhwkHFhAQqNKBDhxsIV2N1arM5cMpBAyN1HQNRKNANAosNQq60glIZtps2Bdffa140N587VVK48kCW1ZUUkKVVdVUd6eOdQmC1VgbIr2YmGil+JSXm2M+7DYrRB08dJgdYqjaBvLII0ePK1EUTTfujObAvgMHaMfO3SqPCUwwCX2DFCamxCQKHFZtba0io5w+dapyzCdPn6Hy8nJF/53FaTMzMxSBJTJobGyk9/78vnldZSofPULAI05NNApEo0A7DQ68HOoEBAYGUhg7JVD5gNgRVsldNHtOLWRQCD0zf65yJhBE0YblxIR4RQSpt4E8Ek7txMlTNKdwluoaTp82VXUbv/9hB92+XaeiLqR/ceUKfZj6hpyeNi26gvVz5y/QMxz5QcwFXUqQTl5iyT0YutiwGVwG4b/N4NQ17VINz27rZb1fvnuGgOFOzWhKb1f41kSjwDc0Cmpvmx5TsaUT8IjVmu5zt24Qj4+pqIfTQpXdns0unElQjsfjJmWXLtHK5S8QIjUYHs+BhoA2LVGHtBcuXKRcjuIQmeFxkZkzphHYbR1pDkyeNFFlBSZdbXDW1zgKQxc2j8fSYHB0MDireFa3X79xk+J1g8ODNd9r5u6vKRo1syGrPfLhDgQMdWpGOzQNgGgU9C6Ngq50Am7evMWOJpUwMF97u1Y5DH2urb/9/f3VJnQp8ShMSEiIOQkmGKwnGbDzt2/9ioLYacK53bxVo5xaC4/JwbqjOYCBfzg11BnPFeJ5OpjJ2WWy4MskOsdOdHhernJym7ZsVWPNKpF8uB2B9njd7VkTaY2Cr7760usnEQ/XomsDGzE8j/Cri39LaTQNgTO/ntByxDgKBG5xIW/ZalL/1nnY+jbn66JGAaiir7Jw7vYdO1S24Ni/zREMIo0sHp+BtuW3bcpI+3m8586dO2qQeuEz85WQ706eDQQLLB6shW7l7FkzCVErIqY9+/bbqiorKtne7OxW3VYtzGSdHdoAFXSIn0zmB3sxvqUV1Lds26ZmCjEuhtlF3Q21VfaRo8eYqrtFOTScY4iqKLMu0OJgRzhAcwBYp6enUeHMGeqB5O3omnJd7Rnk+B6yqjvsEquxa9t/4KDq6kZERKruLsReTp46TcfatBJ0Ovl2LwI+z6dm/UaBdfPR/XQmUrM+rrvresB7DzuIvTxlj1k4PEZglMGhIRppsqHujYebn/KffhTBsg5QJw9iQV88RmBt6K7hJvSFGTdHOgFoH7qDoE3vyuAAIaDiijnCwZ2aA0orgR8fwY8IutdixiJgaPfTHVV3ZczMHeW5kodoFLiClu20jhxrvY66bB/aYaurDg0HY0zPnrlTc0BpJVg9a2evXNnecwR83qn1vInuzUE0CtyLp+QmCLgbAXFqLiIqGgUuAibJBQEPI+DzY2oexkOKEwQEgV6OgKGzn70cG6m+ICAI9EIExKn1wpMmVRYEBAH7CIhTs4+N7BEEBIFeiIA4tV540qTKgoAgYB8BcWr2sZE9goAg0AsR8PlHOv7/9s77O4or2/cbCQwGBCJIBAUkkXOwTRQIAQaTTbBxGDP29XjuvXPnzay57633w1tvrXf/hTt37Gsbh5nxOC8bk4MxGUwSYCGiAIGIAgEGLIyEsd/+buk0rVJ1q7vp00l7s9RdXXXqVNW3qjfnnOr6fpxPFCijwM5VFsuMAjtH7F5rOBgT7jXr3EgpYLWlpoyC0E6jMgqIJhUW0Pyn54ovmlHRbZ5ZFq737MxMhuxk8jPB7cJVpdYTYQWsttSUURDhs2lpc9FgFMD1ArY9e4uKPM90us0L9yF/+MmnYq8dymNX4d4XrS80BawmNWPlrYwCZRQ4GQVw35gyqZAtrjuz/U8FVTH6EB5jcOgYMXw4wdECsWjhAipiU0eYMDrnwX3ELfxxC9DaGzZkKHutnaQe7LKC/YJV0FfLV8o+PDN/HnXjbX3+xZfCLnCrX+fFtgJWu584dJPYMK2MAmUUGEbB7FkzKCOju7iFwAQSsBKwB2APBesk42ZxnafhUOI2D9eUW/jjFsDyG9sZMXxY7aps3AgeguEatK7jEDRvXuvT5la/zottBay21MyhK6NAGQXGsqkje/iDyARYM0hRb73zrlwm//zaq5RSB1NZvXYdgVPQlY0cYbN97tx5KeOcB9uifIYwm7jHFkXr1n9N/rgFpiwgLX/74EPqwR5sYCBgHE0jMRSISFJTRoEyCrwZBWlptV1LuNqi24mA75tJaoF+tdB1hMmkCTBBkdT8cQtMWaDpEGfZEBL24fDFQ7dVI/4VsJ7UbFt6B+O3powC3978cikbm9pGrms4wRoXYRStuHLF47nfyKqyGC63CNwdh4Ei/MZ83W1MTmrYDTTzgKcDr9PEfWZ4IvxxC0zZjqkdZBLOxa3YTBP+aUiKGvGvgNWkZjuhGfkDcb7NzsrinwlMlFWucKugsKBApvfuKzLVBPUOK2146Hfq1FEsn/0ZDvqqGKAQfzGave3T09Moi39mgIDfvvH3xwA7BtGTmzfnu3Xxxii4wGOtd5i21IFeXvySuPciuXiHacEVTpxAu/fsY3DwUU+rznte0f4D3qvJtD9ugSkcjvNn6tL32FLA6o0CZRTUP9nGtz9Q/3+M+/RhSG6iMQrQMlvL3UTQnTIzM4QT4QSkwMsf9tdI6GBBINzm1Ve49lMg3IJQGBNu29J5sadAzPupOZ8ocEqojIL4ZhQYtsALzz0rRKaly5ZT8aESz2luzi1RJ6PAbZ5nBa8JU7fXLLnL+cTjj1GkGBPe29bpyChgtfsZjkMIZswsHNsLpg5lFASjlnvZxn7k6kxoqMVtnlvtgdRtE5rjtk86z74CMZ/U7EsQ3BaUURCcXoGW3vDNJtrBHE43+lWgdQRSTs9fICrFdxlNakGeP2UUBClYgMVDudESYNX1iun5qydHQn6I+TG1hFRdD0oVUAWsKWD17qe1vdaKVQFVQBXwoYAmNR/C6GxVQBWITwU0qcXnedO9VgVUAR8KaFLzIYzOVgVUgfhUQJNafJ433WtVQBXwoUBydk7uf/hYFhOz8URBnwGDPX/ZPfLo/v2f6Ob3N8K2f3m5uTR82FDCL9XdfrAJ3/qC8ePZ0eEs3a2u9rvdYMr6qmjY0CE0oH8/eYwItk2RCDAKcnN60Nny8gabGzRwAM2aOV0e+sajS/EcznP97ML51LdPHzp67Hg8H5buu5cCVltqyijwUjqISWUU2GMUIHGPzx9HeXl5YjXUgx144cL7sAGvNzAVxo4Z/bBV6foPqYDVH98qo+Ahz06MrJ6ojAJYDb359hIK0HHJ79mA6eXgQQPFfGAnPxmhET0FrCY1Y+WtjAJlFESSUYCvU8H4fE4ygyg1tT19f/Mm7dj5rbh8OL9qryxezM+S3qM33loii8aNHUOwHG/Prrp4ZGvLtm10/EQpu6X0olkzZrD1U8NzCS+4qU9OkfXhpPuH3/+O/vyXN5yb0s8RUsBq9xPHYBIbppVRoIyCSDAK4IZbMGG8uNnCCrxdSgonpOmUnpaGy7BegFcA11vE0CGDaTJ77rViG/GTJ08xFKYTzZ09izqzBXnz5i2EbdCvX19q2aolj+s+OJd371bzGG+t8WU1T1dWVtbbhn6IrAJWW2rmUJRRoIyCSDIKAFJpxkCVrdu3E7qCY0ePop48z9iIm+vS+Y4bBljvwHfFVM43THDjqFevnrxuHt2+/YMUv3at4blcsWo17d67l56eM5suV1TQR5985qxaP0dQgYgkNWUU1P4vfqnOFx9fFkRv/sKAZWmiuqa63l248nPnZNGpU6eJpkymlHYplNG9u8zDXVoQl/CH7lX31q15WTfuYh2k3NwcvqPXW/5gU7177z7Bve1n1FxhwQRCFwt/eLgbYJOKiitSJ8Alxrv/5q1bMj4Eo09nDOEWjTdP4PiJE54iMH5EwPcfYRxsI8ko6MBdTsTFi7Ucgp27dhP+EGCJ+ooOHVJlUT5rwyP+nmJosZmkdpO1RjjPpaewTkRdAetJzbaldzB+a8ooaBqMAiSgLpy8YBIp7sGc4EFeP4n/HPwE1kPSW75yFSety9JqQ/GqO7VMUkz/ghc/kZTUzM9SXRQJBawmNdsJzQikjAJlFJhrAe/nzp+XbuMEvlmAJNWfx8Ewbnai9KR3sQbT+I0eWs9jmA1RcuSorIf1V61ZK2PDDVbwmmHMJtGSnjn9KVnHa7FORlABqzcKlFFQ/0wqo6BWD9uMgq3bd9B3xYfoUR7wh3V3S6ZFbee7n6Y7X/+sPPiEO6Toordr11666SDCg4uwr2j/g0J1U85zebb8nNxcAGVrKN891YieAjHvp6aMgkcJdCRQyp2BHzf/wv9u3brtXMRfzBT5Mrs5yeIuYE1NjYzFNVgxwjMMR8AGowD4vc7MGK3kn2YgkQYaWC89PV3AL4YUH8y6KBvM9gKtW8sFpoDV7mdgu+C/VDBjZv5rCv9SZRQ8vKZuj6V51+rGI3Cb572OmUZiMTdBzLxA3rGek24VyHooo8ksUKXslYv5pGbv0EOrWT3uQ9OtsbUixShobD90efwroEktyHOoHvdBChZg8UgxCgLcHS0WxwrE/JhaHGuru64KqAJRUMDq3c8oHI9uUhVQBZq4AprUmvgFoIevCiSaAprUEu2M6vGoAk1cAU1qTfwC0MNXBRJNAU1qiXZG9XhUgSauQMz/pMP5RMHdqioqPXaYystOhe3Uwbc+h8398MxgKftoOQPcgeysLFq2fEWjv8IPpqxzO+YzGAVwUi0uKWFvrsgwAcAoSOJf0m/Ztt3shucdjIKRTzwuNj7Hjj9w5PAU0AlVIIYUsNpSU0ZBaGdaGQX2GAWhnRFdK54UsNpSU0ZBPF0Kvvc1URkFvo9Yl8SzAlaTmrHyVkZBQ197Y8bo7+JBt3j6tGn8QHuSeIF9xd1fRGpqqthTd2dTyF/4OcXzFy4S3Ffx0HtrNoucNeMpISQ1Z8cIPMy9bsMGxvuVU2ZGBk2bOkUe1v6Z7ajR3V65ek29B+Jn8rqDBw6SB9637dhBe/cViWPF8GHDxN0VThZu0af3Aw//FLbP7tq1izw/uXvPXpoyqZBiiVEA4hNsxVO5i3/9+nUqYheOPXyciD8yX6CaH/avuHKF+vftKyaXMNKEqWYXPOTOwwFLly2X5c8vepa6de1KR44dE+hKErvmbtqylXpkZwvTANf/ho0b6VDJYal7zqyZ1DMvV8w3Uf83GzfX+r15aQeLpC5d0gk25N9s2uwx7ZQK9CUgBax2P7EHJrFhWhkFD3ztoUdjAa/9auaMtmQLHfjnw7UW8eyC+fLluMXutNAXCWXBvKdl2bixo9kHrJ84TBzn8a9u3brS9KlTZdmUyZMksZWWlhIeS4Lr7sQJtXWiAGxz+vXpy3XeET/+STyWiMD24eXfsuUj8tntxdvDv3nzZIaZ3JdtweK6quoOE5t+kf2MNqMAOiLJtmOHk/OcODpwYgM0pR8nMAQSMpJXdmYWc07vyn8g0PaRRx6Rz0g4+eNqXXHbtGktugxhihT+QwHbYBrXhfFXuBHDKQW8WAT+swBbFnbhsPzGfzCoF0M03to5+Qeysr4EpYDVlprZE3zxVq1aRYtfeokmT5pMK1auNIsi9n7s+HHCH764r768WLa7cdOmeq0U3CT4+NPPaFJhAY0fN446d+zoc//gqPq3Dz4k0IN+/asX+ULO9FnWzdceheH1hS+QiVOnT9ez84a3FwwKx7DH/lS28wafEtbSSFRIaO++/zc5nn/7l9/K9tEaapfSTqqD5sWHDnELZJ/HrrVt2zay7HuGhOzZW0TN2KXV2GybfcDxoxX5v//nn6RF4ebrj6SAL7AJ+PObuHLlKr255F1OluMFfgIPs7//4yOKFUaB4RDAX20b+649yYkeLTfYn+P6QACq8v7f/y5EqX/69WLR6O133pOkvHD+PEl05njxjpYcfNf+15/+KC3SL79axq3nC6IhSFOIXnk95f3Tz7+gCxcv0suLfyUtujxuuQHVh/B1nchCfQlYgYgkNWUUuPvaK6Og0sMwgO+bN/cgkCsYSRytWRNIDuvWf03+GAW4y4u4wF12hLEYgq+bCbSO4VGXlJQss9Big68aWpyIZvzPO9CFRaDbin26dv2alK/hddDCw3+kSG74DwQJDYHjRTcVRpQYPkAo/0BkeOgX60nNtqV3MH5ryihQRsEt5hCAXyCQlbLa8Ul8i27fbmi0+dDfrroKahNilSQ8dDcBtUE3F4FuqonG+AemnL77V8BqUrOd0MyhKaNAGQXmWsC7P0aB4RB48wuwzhm+kWIz0EJD1/fZhQvkJgNa6Uh2Z86c5SGFzjY33eTqtprUDKNg7bp1jYIrbCuPH9eiG4AY0L+fZ3NuMA6P/7ynVMOJ02VnKDs7i1qx/z3uiK1Zu75hIcccT70B/pcsJKTevaUWfOlwJw3xxdJlNGfWDOrbt498vsqD/kuX1d4Z3bFzp3S/MCA+lAbLoP9mviMHR1b8sBaD/xjvQlReu8ZszB0y3eAlwH1ssF7dDHOsfH9Awrs67Mta7iY+yeOEmZkZdItbSegG4k6iCYxRgZKexRSoS5cr6MjRozJu5Zxnynu/45g68ngogCsYt0TyMIwCjPGhlTZowAB6/LER0iXctXuPK4eA727UVVv7Dut0hHmvW/jgra64OXZZv66OFavW8I2WVnw8GYS71mgZ4u4mbtg4k9qD9R9UrVOBKxDzfmrOJwqch4buZyAtNed6oX42A95bOUFs27FTKEWGJBRqnf7We/RRZRQ47bvBTXXOc9PQH6NAlnELCT+tiGTgBktbHnfDfygadhSw2lILxy4HM2YWju0FUwe+WDYTGvYFMGJfgbEZX1ELY3EfJ4oll9loMQrQWox0QsO5ws0C5x1nX+dQ54emQMwntdAOy95ayiiwo60yCuzo2hRr1aQW5FlXRkGQggVYPJZajwHushaLUQVifkwtRnXT3VIFVIEYVcD6Y1Ixety6W6qAKpCgCmhSS9ATq4elCjRVBTSpNdUzr8etCiSoAprUEvTE6mGpAk1VAU1qTfXM63GrAgmqQMz/pMP5RIEyCuxcicoosKOr1hp5Bay21JRRENoJVUaBMgpCu3J0LShgtaWmjILEuMiUUZAY57GpHIXVpGasvJVRoIyCSDIK/HEa8MWeO3sW26HnsYFjCzZtvMSchtWEJ0XgeDxsyFA6XVYmBo5VjGPE87VwCtm8dSvBiRjuJ5MLC8Xe6PMvvhTHXNgYpaelscnjLTpYXEzb2egAYXgHMJHE9sCDMLwCKaAvVhSw2v3EHpvEhmllFCijIBKMAn+chpnTnyJwVfFQOSy383JzCBbdiFZsDQQWAxIXrM5vM3cAD71jHiA4CJTH5wrmDMBaHQkynS3ZT546LUkS1k5DBg+SsoZ3ABYEEh64DRr2FbDaUjO7r4yC6/TGm28LEOXZhfMpI6O7SKOMgip66513RYt/fu1Vj5336rXrKIuZD13Zpgf+/yArIZzzUtlvLb/OnhvL77FrCuy8/XEawCJAoOUFn7Uu6V2oe7du7L/2wM4bXnkffPiRlIP3WgG3xDLYAw3RvXt3+pkdPoqZEDWA/dpgDQWjx/0HDtBl9oSbyHCcPuyBV3yoRMrj5aNPPqOyM2c8n3XCrgIRSWrKKKi1bL7EQBME/MAQyiiwwyg4cPAg5ebmSNcQSQz2Tbv37hMjSmOj/QwTubwjg5OViQvcgjOBbulF7qLCzDI3pwd1YvNJ8A1gOdWpUycplsPz8WeiIxOqTNzhbWtCM2pE5t16UrNt6R2M35oyCpoGowAtrf/8r9fF4Tg3J0eYnPjJChikVYz/a8NsVNCh4DALZB3iBicpjJ0hPM6z8omo9ORJSWrj8/OlfOmpU7LE+Nkd/K5Y6sZMdFvv1dyrW5PfPO65D2bplF0FrCY12wnNSBOI8y1YjJMKJ8oqV5jkU1hQINOA9YYSsNIGzLZTp45MHUoSW+Zg6zlZ9+Xwtd7oUSN5vCbN82WD5TVaCcDjwQJ6EfvdJ3OrDwzLyspKaT288NwiGfcpOXxE+JKwLoeZ5T0mHf37H/+HMDx3fruLx4qucssjh6rvVvvavM/53l0rT6EMz1SjE2gJgS0K5ubLi18Se2y0gLwDg/SIwokTOGHsEztvt3lF+w94rybT/jQ4zwBnsAIw9nWBW86PM40KbrT//daSBvWYGehqFrAFOlpq6HoeKqntWqIFNiF/nLQIYc+dxjcL+vF1UczLl3613Kyu7xFWwGpSU0ZB/bPpaQHUednXX9rwkzIKQmMU+OM0GFZAbm4O9WL4CbqmG3jc7lod5q7hWWDiE7fiAE5BSw5MVHRJERjrW//1BhrPiQ1/iLPl55i8vkmm9SU6CsS8n5rziQKnTMoo+KUekNnoAzp4S4bCgC/pDPz8oIZbbt54NmeZSH3GAD0svV947lkhxi9dtrzeILsbj8Btntv++tMAA/xYXlERHkYBNMX4GUjtGtFVwGpLLRyHFsyYWTi2F0wdyigIRi33sjYZBf44DWih+eM/uO+t77nq3Otbm0gvifmkFmlBGtueMgoaUyi05cooCE03XauhAprUGmrid44yCvzKE/JCbemELJ2u6FAg5sfUHPurH1UBVUAV8KuA9cek/G5dF6oCqoAqEGYFNKmFWVCtThVQBaKrgCa16OqvW1cFVIEwK6BJLcyCanWqgCoQXQU0qUVXf926KqAKhFmBmP9Jh/OJAmUUhPkKqKtOGQV2dNVaI6+A1ZaaMgpCO6HKKAhNN++15s2dQzOemuY9S6ebiAJWW2rKKEiMqygajIKHVQ7us4TjSoYAACMaSURBVHD1gOGkRtNSwGpSM1beyihIfEYBvjawrS6YwH79bG9d9UOV+JCZpAKbpm5du9LhI0do0MCBYjd07NhxT9KBw+ysGdPZYbY71bAj7enTZfTV8hXybTTrnjhZSv379mUbomO0YeNGemrqVDHahHUQnDQ2bt4iy/70h9/LemAV/Psf/0ArVq2WfRk3dgzBTrw9O+biQf8t27bR8ROlUlZfEkcBq91PyGQSG6aVUZC4jIK0tM40b+5sscaGU2yLFs0JduVTJk/Cqac2bVqLt//IJx7nB8nvUGt2ycByeMYhwAkAB+DipcvSwgInADwBhFl3xLBh8hA6+AKjR46sYw1UEyya4EJrupvwy0PcZ++zq1evUnV1dR0wZaJ4p508ecrDF+hc514rK+hLQihgtaVmFFJGQeIzCnr37Cl+/SdKT9LHn35Gvfjzi88vIsyHX5mJb3ft5lbWJvHyh/c/EhnMMsEJQLL6dtcuSk5uToueWSCtMLMe3rfv3EkbN22RWV26pAsJ6vqN6wJMyenRg5NfG2ENfPjxJ/T//u//YQPMu/TBRx9LeSRPuNweYJfa8vJysVSHn1rPnnlUee2alNGXxFAgIklNGQWJzyiAEy/CPJiORAWX2NTU9vW+KWc5oSAAK0FSw80kwwdANxKutSbQTfSOMrbpNtH60db05JRJhJYWnIdNeE+beXhH9xaRz11Qwl9dgAilkVgKWE9qti29g/FbU0aBPUZBN25pIdqlpMh71y5dJNn8wGNr3gHL61Lu/qVzdxVRdafK01JCQjQ22GhVeZyC6ypAkjQxsWC8sDZhTY4EumDe09JSM8vx3swr2d2+/QNhn5avXEWXuItr2ATYvkZiKWA1qdlOaOZUKKMg+owCtLzu598X2Anuemdm1EILwNb0DtheZ/GyHj2yZTYSjOEupHFr7zFmBmAs7InHRogj7utvvuW9umc6OTlZptu2bcOczcGEmwLeYQArSHY7dn7LNtvl0p0dw93QkiNHGVfYV5LcqjVraV/Rfu9VdTrOFXjQbrdwIIZR8Pnnn8kNAwubCLjKHP4StWjRQsoDRjJq5BPy5+zioICzheC2ERCLsrOzBJlWWXmN1qxd71as3jxPvUEyCoQtebZc7vihwi+WLqNrPA4E+EsvHhPCYPiXdaAP+PPfuHFDBsanPTlF2Jab+K4gEsWWbdvpJ76zOJEhImi1Yixp6/Yd9fbR8yHAfTTly8+dE79+jIs9Nny46ALA7+q1a00ReUcXsg9j62A1forvcG7aslXm45hAMkdSG8U3E77//iatWedb0z2MvLvL0BgkNJxbwGgk6vYbQJZbDEMZNHCAdD2R2EBYb9euPUN3JhAS6IGD32lCq1UtoV5j3k/N+USBU31lFMQeowB3QpFkqqtrPKfrN//0soyd/fXvH9BV/k8AY19ufv4AFCclJ0krzbOynwnDOPBVxMkzSObt4icnSOiAGWskngJWu5/hkCuYMbNwbC+YOpRR4K6WG+zFuyTweL4iWBhMsIwDtFiBGtRIXAViPqnFmvTKKAjtjKxctYaZoy2FRRpaDbqWKhCYAprUAtPJU0oZBR4pgpq4XFERVHktrAqEqkDMj6mFemC6niqgCjRNBaze/WyakupRqwKqQDQV0KQWTfV126qAKhB2BTSphV1SrVAVUAWiqYAmtWiqr9tWBVSBsCugSS3skmqFqoAqEE0FYv4nHc4nCpRRYOdyaeqMAn/Hb0dxrdWWAlZbasooCO20KaOgVresrEya//RcdgoaHZqQQaw1hrcBZ1yN+FfAaktNGQXxf4HgCKLFKOjYoQMNHjRQzCdhMaShCgSigNWkZqy8lVGQ+IyCPr17MWNgBttxX+Qk1JptfdL5wfVKSYhlbEs0qbCAhg0ZSqfLyqhHdrZYdr/z/l99cg1gDTSVXUYQsCn6w+9/R3/+yxvyec6smdQzL1eSXcWVK7yNzWLpjYUwnhw8aJCYU+I5UrhzwI0D4Y+hIAX0JSEUsNr9hEImsWFaGQWJyyho3ryFMAj69ukjVj93mQsAR9vZM2fi1IvldkpKW7FEapbUjG7/8AP54xrAVugm2w8hqnm6khMkYuaMp2j4sKFi8ohHr+DbBs80DHXAtqiAbZXatm1L586dF8NKwFzS2ZjS37akYn1JGAWsttSMSsooSHxGgTnXwNK9/c57YuX9L6+9KgkuI6O7WcwttTP0wYcfyeexo0f55Rrs3ruXnp4zWx6C/+iTz2SdXnk95f3Tz79gRsFFennxr6Tll8ctN3AR4Gi7dft2QncV9ffkeUhoSHrwpWuMoeDZUZ2IWwUiktSUUZD4jALzDai8dt3jk4buZwrbe6OlZOKClxNuoFwDsy5MPtu3byeAFiQ0BGyO0J2F6WOHOh4CaFaInQx5wR8CXVZEYwwFKaQvca2A9aRm29I7GL81ZRTYYxRkZmTKF6F9uxSCESN8y9qzyywCLrZgfiI87r+Yz2NeiMa4BkncXUXA1BEtQVCj0PK6yUaUSJoI1AUOQRfmEMA4Etg8OOxmZ2Yyw+B0wNuSyvQlrhWwmtRsJzSjvDIKos8ooFokAQ/Qp9LLv36Ju5+/MIuzI/3I9t7gFGDg3xmNcQ0AKEZgbA4MUPAE0ELDuN2zCxcQbhL0Zswdkh3qasUW4cDeTeCbBYCsYJsYX0OXs7FtOfdNP8evAlaTmmEUrF23LuYYBeaU4YJ3hndrwrnMfMbYEBgF+CLZZhRgm2ccjII5s2YIowDLwChYuqyWZg5GAbphgAEPpcGs+x3azBwAwyiYNLFAGAVYL5yMAtSHgKtsW25JIbmBJAWSui/bbMM1AIwFXAM4CXtzDc6WnyOAhzFeNnToEElqK2A22bIVZWVmUPfu3bh1dpu+2bRZupXoWnbs2FGSGUDJ2O52vvuJ7SDWf72BfG1LCuhLQigQ835qzicKnKoroyA2GAUD+venZxbME5jKPxgg3Bg7wHke3bgGpgy6swgkZhNghCJ5uoGIUb4z3xyo5PE273XMuv62Zcroe/wqYLWlFg5ZghkzC8f2gqlDGQW+1WqMHeBc0x/XwC0xgVqFP7dA+YqKK26LZJ6/bflcSRfEjQIxn9RiTUllFLifEQzM//WDf9CPd350L6BzVYEIKaBJLUihlVHgLhjG7s7yuJ+GKhBtBWJ+TC3aAun2VQFVIL4UsP6YVHzJoXurCqgC8a6AJrV4P4O6/6qAKlBPAU1q9eTQD6qAKhDvCmhSi/czqPuvCqgC9RTQpFZPDv2gCqgC8a5AzP+kw/lEgTIK7Fxy/jz6Bw0cQCOfeFzsfI4dP2FnB4Ko9dmF8/mRqvv05VfLglhLizYVBay21JRRENplpIwC37q1bPkIO+H2oBz+01AF3BSw2lJTRoGb5PE3L1qMAjelqqtr6M23l7CFkdtSnacKEFlNasbKWxkFic8owJdp8qRCGjJ4kDxofhN8AHafLdp/QL5nIDUNZ6eN9u3bi7Hjlm3b6PiJUnrANrhE7diLrXOnTsIVeGzECLYMKqWVq9eITfhvXnmFamqq6fU336ZXFi/m7uc9euOtJVK3Py6Br+3KivqSkApY7X5CMZPYMK2MgsRlFABqks+J6+f7P9PB74rp0dat6ampT0qigg3S5MKJBGcNWAl17tyJ5s6eJQnsAdugN6VywoPZY9mZM5LI8nJzcNlw4ust9dyo81cD6wA+aQh/XAJ/25WV9SUhFbDaUjOKKaMg8RkFHTqkyumuqamhs+XltP/gQWrevDm3ru6JqSPYAQc42ZXzMsyHmWPPnnniVosV4Yu25L33PZ/hUYfkB5sg2HUj0LJzhj8uAcwkfW3XzbLIWbd+jk8FIpLUlFGQ+IyCo8eOCeUJjrPz5s4Rw0ckoa+WrxD4Cr4eaMkxmdjzTUHSggU34ionMTONz6dOn5akhhZg927dODnWUMnhw1hUL/xxCfLHjZWybtutV4l+SCgFrCc125bewfitKaPAHqMACemtJe8KWxPdRnT9Bg7oL+NiWIZkt3zlKrp06bK0nvAtqrpTxYi7WraB02245PARGjXyCakPhpNwxMVNAmegbl9cAn/bddajnxNHAatJzXZCM6dBGQXRZxSAt4nfuoEhUFJymO78+KMg6X5gvie6o2AJjBk1kkqOHBW7bSQ5MAcwNOEW4BqA9ZnDIGMEbhq4xbnz531yCfxtd1/RfrfqdF4CKGA1qSmjoP4V4mmNBPhzBCEi8SA5ItYZBfsPHKDsrEz5/Vh2VpZ0P5E4wHLAX8cOHbjlNoAKCybQ/fv3hZqO5bAB9xUnT5dxF7RzXdfziGuxrdt3+OQSgE3ga7uulenMhFAg5v3UnE8UOFVXRkFsMArMecEdzg4MXbnCpCenDTfYAenp6cIV8AVjMfUE++6PS2Bzu8Hup5a3r4DVllo4dj+YMbNwbC+YOpRR0FAtcANAlHILJDlfy9zKBzPPH5fA5naD2UctGxkFYj6pRUaGwLeijILAtdKSqkA0FNCkFqTqyigIUjAtrgpEWIGYH1OLsB66OVVAFYhzBaw/JhXn+ujuqwKqQJwpoEktzk6Y7q4qoAr4V0CTmn99dKkqoArEmQKa1OLshOnuqgKqgH8FNKn510eXqgKqQJwpEPM/6XA+UaCMAjtXWDwxCuwooLUmigJWW2rKKAjtMolXRsGkwgKa//RcfhazQ2gH7rVWOOvyqlYnm4ACVltqyihIjCsoUEYBvM/gvrG3qIiuX7/xUAcfzroeakd05bhTwGpSM1beyihIfEbBi88/R2nsqIFYtHABFR04SJs2b2HX2940YXw+pael0c2bt+hgcTFt37FTysFzbfy4cZSa2l6sio4ePUZr1q0nX3XJSvqiCjSigNXuJ7ZtEhumlVGQuIyCGzdukHHeuM7T8FEzLAI4c8Dk8ZFHWtCkiQUCZ4Gl91PTpgp74LviQ7Iu2KLDGM7iVheuHw1VIBAFrLbUzA4ooyDxGQWr166jLPZT68rWQ19/s5HOnTtPY0ePEqPIM2fOEvzWLrN7x0T2UwNIpZyXt2rZkn5kM8mrV696mAbSmmOWgbMucy3puyrQmAIRSWrKKEh8RsHVq5UNrrVOjLtD5OQwfJj/TMC48XsmQ4E5AOPIaUydgoEmXHOXrVhpium7KhCSAtaTmm1L72D81pRRYI9R4H31JScly8ebt27JO5B5u/fslelmSc3oHhOmEF8sXUbf7tojdtyDBw1kXkEGW36PohWrVstyvJi6PDN0QhVoRAGrSc12QjPHpoyC6DMKcC6qqqrklBROnMBJbJ/wOyfkj5ObBUDgpfHNgn59+1BxSQntZ8jxSy++IASpXXv2cMvtpnBAwTZwq+vI0aMyX19UgcYUsJrUlFFQX/5EZhTgSA8c/E4I7FmZmexwW0Fr+U7m+q830HhObPhDnC0/R/iJyK1bt4XePmL4MIEe/8yuuGU89lZUB0Rx1qVJTeTTlwAUiHk/NecTBc5jUkZBbDEKcH5wZxNW596Bn3SgFYa7ot4h/IAu6XzH83uCFbgz3OpyltHPqoC3AlZbat4bCnU6mDGzULcR6nrKKHBXzpnQUOoK3+F0C+EHMAvUV7jV5auszlcFoEDMJ7VYO03KKIi1M6L7owrUV0CTWn09Gv2kjIJGJdICqkBUFYj5MbWoqqMbVwVUgbhTwPpjUnGniO6wKqAKxLUCmtTi+vTpzqsCqoBTAU1qTkX0syqgCsS1AprU4vr06c6rAqqAUwFNak5F9LMqoArEtQIx/5MO5xMFyiiwc73FCqMAfmpw8cDzoZWV1+wcrNaa0ApYbakpoyC0aydeGQWhHW39taJx7PX3QD/FuwJWW2rKKIj3y6N2/wNlFCTG0epRxLsCVpOasfJWRkHiMwpAkcrp0YMZA+vo6LHj9K+/fY1db1vR3z74kKpraui1V18RY8j3//YBdeiQSrNmTKeM7t2p5t49On26jL5avqLedykvN5emT5tGyclJYgXuXF6vMH+YPKlQbMLbtmnDLISbtOPbXeICgnLjxo6h4dytbd++PbvsVtKWbdvo+IlSduDtxfsxgy5euiS24p3Z1HLHzm/psREj6ERpKa1cvYZSUtrSb155hWpqqun1N9/2u+/PL3qWunXtSidOllL/vn3pCDMXVq1Z69xV/WxZAavdT+y7SWyYVkZB4jIKvudEggQAo8du3bpSenoaf06hnnm5nOyyqR1P//BDrd/awvnzCEnrIj/IDg82AFhmTn8Kl4gnHhsxnKqrq6kl24NjeSHbgPsKkKfyOXH9fP9ngiHlo61bi51Ru3Ypsu7kwonUius5efKUh5uABNa8eQvZZ8BhUjnh4RjKzpyReXm5ObI5WI+jnhvs1Ivwt+9t2rSWdUcMGyY25W6uI1KJvlhVwGpLzey5MgoSn1FQVlbGZKixYgSZm5Mj9tw1Nfcog5Pc7Tq7oXPnz0tS6d6tm9gMfbtrF7fEmtOiZxZQ7149zeUi7/uZRoVWzhjmHEydMllagVgwhVtkSFAmdu/dK60nfK7hFuHZ8nIP7wDb79unDzVr1owOcLIr52WwMurF2+rZM08MKrEeDCyXvPe+5zNuUAAak5bWmXpkZ6OItOwwL5B9375zJ23ctEXW05fIKxCRpKaMgsRnFJRyK+jOnTvsXttRyFAgSiFZgAP66KOPSpIrLT1JmZkZcpUjMb3w3CLPFY+uoXeUnzsnH08xhYo4qaVwawkxhFttKW3byjRejp84wd3dYzR82FDZ1ry5c8TLDd1LdFnR1UWgJUf4qwskqNu3a73drnISM9NYfOr0aUlqaAEiiSFZgqfQj7uUiMb2vazsjJTTl+goYD2p2bb0DsZvTRkFdhkFl5gWhVYaWkaAqMCie/SokdSy5SNiAnnt+nVqxeNsCPirLf1quUyjvMcVWOaQWHtjsmvXLjLnTtUded/ApKoWLVrINF4qrlyRhPTWkne5tdeLu7U50uUcOKC/jIshWSGxLl+5ii5xdxfbQlTdqeKucqZMO7ddcvgIjRr5hNQH2jzwftXVNVR5rfYnJo3tO1x8NaKngNWkZjuhGdmUURAbjILz5y/wGFoew4lTaReDVq5xEsAgPVphaOkgLly4yFbetwR8jHEzmEQ+8dgIIbq//uZb5pRKMsS4HKzBEUiYiOJDJfLu/VIwYbx0fZFIS0oOi8MuWodw2UV3FF3bMZxcS44cpf79+kqSQ9cWwyJucf7CBf6NXKWMBWI5bhogAt13KawvUVPAalJTRkH98+ppEfxSf76vT2fOnhVGJpafOVtOGzZulKKgMM2ZNYP6MsQEAW7m0mW1dw938HhOByaeY3B9KA2WLuHmLVsleWzZtp0AE57ISQCBlsfW7TtkusFLgPvovR5aNEgwCAzKo2V2lwf7wfcE59OE2X8kNbScrl+/IWR2sxzvvo7du4yZBlM0m5mjuPuanZUl3c99zDo4zd1A/OHHvEDx4WbD/fv3haWA5QP69zdVNHg/yXdkOzNxvrbrecSzPJB99xTWiagoEPN+as4nCpwqKaMg9hgFznPk6zPuOCbxTzaQ1NwCra3k5OQGXAO3spiHsa4O3Eq8wl1StAC9Q1gITIpHIjckee/lwU43tu/B1qflw6eA1ZZaOHYzmDGzcGwvmDqUURCMWg3L4icU/gL09mACP6Ew3VTnesJCqOvCOpeF8rmxfQ+lTl0nPArEfFILz2GGrxZlFIRPS61JFbChgCa1IFVVRkGQgmlxVSDCCsT8mFqE9dDNqQKqQJwrYP0xqTjXR3dfFVAF4kwBTWpxdsJ0d1UBVcC/AprU/OujS1UBVSDOFNCkFmcnTHdXFVAF/CugSc2/PrpUFVAF4kyB5Oyc3P+I5X3GEwV9Bgz2/GX3yONHXX6im9+7/wo9lGOBtxdcHmBL4/br9kJ+tKhg/Hg6y48t4bEffxFMWV/1wKd/QP9+Ytnj6/lEX+uGOh+2Qbk5PeRZSWcdgwYOoFkzp4tHmHmo21kmXJ+jcezR2Ka3Xs7r79mF88UyCWabGsErYLWlpoyC4E8I1oiGT/+YMaPl4XO3Pe7CLhd4sDw9Lc1tcVjnRePYH2abkwoLCK6/cPMINfCfyfj8cZTHZgBwNOnBz7DiOdaHjSx+Hhb7NpbPbVMKqz++VUZBYlxKyijwfR5hdwRro71FRa6tfN9rui+BxdGbby9hKyb35cHMxYP8gwcNFD+7nWxv3lTCalIzVt7KKFBGQbgYBXAfGT9uHNsbtReLoaPMAVizbr18X5FgCibks5V4OlWxdXjpyZO0eu06WYahhTmzZoqdUCt+UP7qlauyHmyGvKMLr/vMgvk8FJHMJpMrxS3EF+PgxeefEwslrL9o4QIqYrfeTZu3eFdXb7pgfD4nmUGy73h2FDyEAwe/q1cGH15ZvJidRu7RG28tkWW+tm8YCxf4GNqycWaXLul0jt1Qvtm0me2e2tHUJ6fI+j3YTv0Pv/8d/fkvb8jnRH+x2v2EeCaxYVoZBcoowHXgz+cfyxFujAIkpqemTRVmwHfFh8RtY+QTjxPGxGC9PW/ubHGqvXjxEhtJNqcnHn+MTXMnSX1gIKDVAvuny/xge/fu3Wje03NkmXmBIwi6a53Yvbdo/wFJaEiivhgHN9jd1zh+wOkX/m2+AscDWyYkHyQeMBsAn3Hr0oP1gHIIf9s3jIV+7BHXslVLsVXKYyYEtnX3bjWPO9caBlTzNPzhmkpYbakZEZHYVq1aRYtfeompP5NpxcqVZlHE3o8dP074g2vqqy8vlu1u3LSJDQtve/YBltQff/oZYZwErYHOHTt6ljkn4PcFUhL+F/z1r14UPy9nGfP52jVlFECLh2UUgDMAbza4d8BDbv/Bg3Jz5+bNWzSAv9iwKjrBluE4h7169qQXn19Evfkdbrm5ubXchI94WUXFFbnx0SG1gxhaYt8QhQUFtQmN/dm27dgp8/wxDtAKxLhVV7Y8+pq3gWQFS6J8vuli4t5PP9G69V/L/sA7buv27YSu4FhmL/TkfUMy9hf+tm8syN2urxWrVhP4DU/PmU2XKyroo08+87eZhFoWkaSmjILa/zEvXbokFw9aHAg4sqLLZKKaMWzed7zcfPqBlUPgLi1aCfhDV6Y7E5QyuPVxgL/oubk5fPest/whAezeu08SCmAmMEpEdwZ/eDgfX0Z8yRH4AgIXh7jJ7rRIEjD6dIYbJyASjILvmegEB10YPk6b+qS0uuB2u2zFSjF0xH7Cahtx8tQpgq02uqnQGy2jH9mayBzrylVrpJz3C1poCDjcmvDHODBlvN/bMKIPLSUTGCNDUoNxJwKtSMTOXbvlD9MYk/MV/rZvkhqQgAjn9eWrzkSfbz2p2bb0DsZvTRkF8c8ogPPst7v2CBEK3Ukg+caMGiWJHV9WJC8EEkVSUpJg+eB7V8WMA1yL6NohGcBCHDbjsB03gaTeghMgGKJlZ84KpxRlfTEOzHp4T05Klo9A6YEXagJOuwjUg7vIuEsqrr78n04231GGW7C/8Ld9D2PBXwW8LCmplsvQSLGEWWw1qdlOaOYsKKOgaTAKemRn0UsvviAJYteePQJ2Ab/zDrdGz3ASup9/X37fh7vuSHYIcyPg0uVL0ipetHAhXb5SQcOGDBFMn/fA/pdLvxKQcS/G52EM7sOPP/HLOIAlOLiliMKJE2j3nn0MMD7qgSjLgroXdL2B5pvANwuQJMFKwLgZusv+IhTGgqkPLVsEWvc4nqYCVrZ6o8AwCj7//DOfkAtzAmy/A6hrKET4YStoQfhzotmwHx6WgJ+dgvd9Nn/JOvG4GziRa9bW3oHzs8qDegO8XW98+tENdDIKADUBowBfQIwvfVlHZgKjAAPYGGCexne/0D3FFxfOr2AU/MSfwShAq9UGo8AcPxgFaIWYHys7GQXXmV+AbtooHugHdcrcwTTrux372fJzkjDatm0jsGKQo9CiKuLkgq76+q83SKJ6bPhwOS/Y/uq1a6VKjDEhsYBOheU//niX1nF5p+03ylcx6g+64iYE7lCi296uXXvpuqd17uxhHKBi3L2EjvgdH64HXwEWBG5uPMrjb7iB0ZLHBrdz3WaIwdd6jW3fez3PdVt3fUEvnAdc90P5ZkpTiZj3U1NGgW+ffvy4+Rf+532zw1y4oIrji3P1asO7XrjjBqBItC2pG/P598UoEN4A/3wBY4JuFHQMvoNYhfEsZ6BOJEU3XZxlvT83xjjAuB26uY0F6unM+1fJ58WZUP2t29j2G1sXy4PZnr/6Yn2Z1e5nOA4+mDGzcGwvmDqUURCMWg3LNpZUfTEK8OUEw9NX+EtYqNNXvb7qw3zZph/GQSAJzdRjblb4255zWWPbd5b3/txUkpk55phPamZHY+VdGQWxciZ0P1QBdwU0qbnr4nOuMgp8SqMLVIGYUCDmx9RiQiXdCVVAFYgbBaze/YwbFXRHVQFVIGEU0KSWMKdSD0QVUAWggCY1vQ5UAVUgoRTQpJZQp1MPRhVQBTSp6TWgCqgCCaWAMgr4dDo94p1nOBjuQDBlndsxn6Phma+MgsgyIcy51vfwK2C1paaMgtBO2MN45oe2RSJlFLB/Hj8cH2yEg1EQ7Da1vH8FrP74VhkF/sWPl6XKKPB9psLNKPC9JV0SqAJWk5qx8lZGQUMPeWPG6O9EoVs8fdo0Sk5OEseLr5avkOKpqaliBQ1L6l/4OcjzbGoIFwrYSbdms8hZM54SGlFzdmfAg9PrNmygs2fLxY5n2tQp4uH/M/t8wbUC3l/eD8TP5HUHDxwkD7xv27GD9u4rEneK4cOGiZMqXCPcAjbYICCtWbdOjC7/9bevsclkK3EHruaH55s6o8DfeYGec2fPop5Mk3rkkRZ0gY0kV65eLQ/soyU4bMhQOl1WRj2ys8XqCAaecAXZvHWrOIjUWn4Xyvn8/IsvxRwUFkcwLoAr8MHiYtpe5+T7R2YV4HzAJQXbw/k/VHLY7ZTG7Tyr3U+oYhIbppVRoIwCXAdNkVEwbuxo9lDrJzZFx4+foG7dutL0qVMhh3idYRwVjiPwf4OlEjRCtGrZSowtkbiasdnjbf6Pq+LKFZmH//QQKA/zywq27e7cuZMkSMBnYL2EJDmJubVDBg+Ssilsogm4DFqYSHg//VRrYikLE+TFakvNaKSMAmUU4FpoyoyCdint5OuA70LxoUO0Z98+Nu6r/YbAeh2Blhf877qkdxGAjDdLFP59H3z4kZSDxTfIVLBvR3RnE0hYlxdzi8uwGmCauZ9ZC4DMTGQL9z69e/N2S6Q8XsAsKDtzxvM5kSYiktSUUeDuIa+MgkWe75LTrNOYJ56C3fWUyZTC/nDxzCjwxY64xEkHrScE0HzeYXgUmAcMngmYKoB1kJmZQQAhw6gUXAXo06nuZkcOz8efCTBATcApOFETGo7RelKzbekdjN+aMgqUURAtRgFaWv/5X6+L3XhuTo7g+vAzmt3MSIDTbhseC337nffEHRnUKQR4Bxg7Q3hcbeUTCdMUSW18fj6hfCmDZhAYb0McZPIW6kag23qv5p5My0s4SMkPaou5KatJzXZCM2oqo0AZBbHOKHjhuUUy9lVy+Igg62ApD2PJezxof55v2ACFh7GvC0zzepxtzlux7fd/18GMzXXu/Y6uJjiiaKmh63mopLZriRbYhPxxcrPg9u3bjOBLo35s+17My5fWWb5715OI01ZvFCijoP4l4/nfVhkFcvetKTEK/LEjVjCuDwyK3NwcGSsDBQus0mt8h9JXoKsJPCACd9LRJUWAPQpWAyhW4zm5IaGBVYCf5TSViHk/NWUUKKPAST6PZ0aBP3YE+AlYHordt1vCwk86MH7m1M+tbCLNs9r9DIdQwYyZhWN7wdShjIJg1GpYtikyCmp/E3i7oRg8J1R+gmtlPNOAnX0tT9T5MZ/UYk14ZRTE2hnR/VEF6iugSa2+Ho1+UkZBoxJpAVUgqgrE/JhaVNXRjasCqkDcKWD17mfcqaE7rAqoAnGvgCa1uD+FegCqgCrgrcD/B50bLFtD3QlPAAAAAElFTkSuQmCC;" vertex="1" parent="1">
          <mxGeometry x="40" y="70" width="230.22" height="450" as="geometry" />
        </mxCell>
        <mxCell id="c27LXQE5OpBkn1K789Q8-2" value="" style="rounded=0;whiteSpace=wrap;html=1;" vertex="1" parent="1">
          <mxGeometry x="290" y="70" width="500" height="450" as="geometry" />
        </mxCell>
        <mxCell id="c27LXQE5OpBkn1K789Q8-6" value="模块功能划分" style="rounded=0;whiteSpace=wrap;html=1;" vertex="1" parent="1">
          <mxGeometry x="490" y="80" width="120" height="30" as="geometry" />
        </mxCell>
        <mxCell id="c27LXQE5OpBkn1K789Q8-7" value="" style="rounded=0;whiteSpace=wrap;html=1;" vertex="1" parent="1">
          <mxGeometry x="310" y="120" width="470" height="100" as="geometry" />
        </mxCell>
        <mxCell id="c27LXQE5OpBkn1K789Q8-8" value="web" style="text;html=1;strokeColor=none;fillColor=none;align=center;verticalAlign=middle;whiteSpace=wrap;rounded=0;" vertex="1" parent="1">
          <mxGeometry x="310" y="120" width="60" height="30" as="geometry" />
        </mxCell>
        <mxCell id="c27LXQE5OpBkn1K789Q8-9" value="登录" style="rounded=0;whiteSpace=wrap;html=1;" vertex="1" parent="1">
          <mxGeometry x="364" y="130" width="50" height="30" as="geometry" />
        </mxCell>
        <mxCell id="c27LXQE5OpBkn1K789Q8-10" value="通讯录" style="rounded=0;whiteSpace=wrap;html=1;" vertex="1" parent="1">
          <mxGeometry x="430" y="130" width="50" height="30" as="geometry" />
        </mxCell>
        <mxCell id="c27LXQE5OpBkn1K789Q8-11" value="考勤" style="rounded=0;whiteSpace=wrap;html=1;" vertex="1" parent="1">
          <mxGeometry x="500" y="130" width="50" height="30" as="geometry" />
        </mxCell>
        <mxCell id="c27LXQE5OpBkn1K789Q8-12" value="日历&lt;br&gt;日程" style="rounded=0;whiteSpace=wrap;html=1;" vertex="1" parent="1">
          <mxGeometry x="570" y="130" width="50" height="30" as="geometry" />
        </mxCell>
        <mxCell id="c27LXQE5OpBkn1K789Q8-15" value="会议" style="rounded=0;whiteSpace=wrap;html=1;" vertex="1" parent="1">
          <mxGeometry x="640" y="130" width="50" height="30" as="geometry" />
        </mxCell>
        <mxCell id="c27LXQE5OpBkn1K789Q8-16" value="消息" style="rounded=0;whiteSpace=wrap;html=1;" vertex="1" parent="1">
          <mxGeometry x="710" y="130" width="50" height="30" as="geometry" />
        </mxCell>
        <mxCell id="c27LXQE5OpBkn1K789Q8-17" value="健康日报" style="rounded=0;whiteSpace=wrap;html=1;" vertex="1" parent="1">
          <mxGeometry x="570" y="180" width="50" height="30" as="geometry" />
        </mxCell>
        <mxCell id="c27LXQE5OpBkn1K789Q8-18" value="红包" style="rounded=0;whiteSpace=wrap;html=1;" vertex="1" parent="1">
          <mxGeometry x="500" y="180" width="50" height="30" as="geometry" />
        </mxCell>
        <mxCell id="c27LXQE5OpBkn1K789Q8-19" value="工作流" style="rounded=0;whiteSpace=wrap;html=1;" vertex="1" parent="1">
          <mxGeometry x="430" y="180" width="50" height="30" as="geometry" />
        </mxCell>
        <mxCell id="c27LXQE5OpBkn1K789Q8-20" value="好友&lt;span style=&quot;white-space: pre;&quot;&gt;	&lt;/span&gt;" style="rounded=0;whiteSpace=wrap;html=1;" vertex="1" parent="1">
          <mxGeometry x="364" y="180" width="50" height="30" as="geometry" />
        </mxCell>
        <mxCell id="c27LXQE5OpBkn1K789Q8-21" value="&lt;span style=&quot;&quot;&gt;工作台&lt;/span&gt;" style="rounded=0;whiteSpace=wrap;html=1;" vertex="1" parent="1">
          <mxGeometry x="640" y="180" width="50" height="30" as="geometry" />
        </mxCell>
        <mxCell id="c27LXQE5OpBkn1K789Q8-22" value="..." style="rounded=0;whiteSpace=wrap;html=1;" vertex="1" parent="1">
          <mxGeometry x="710" y="180" width="50" height="30" as="geometry" />
        </mxCell>
        <mxCell id="c27LXQE5OpBkn1K789Q8-24" value="" style="rounded=0;whiteSpace=wrap;html=1;" vertex="1" parent="1">
          <mxGeometry x="310" y="230" width="470" height="55" as="geometry" />
        </mxCell>
        <mxCell id="c27LXQE5OpBkn1K789Q8-25" value="admin" style="text;html=1;strokeColor=none;fillColor=none;align=center;verticalAlign=middle;whiteSpace=wrap;rounded=0;" vertex="1" parent="1">
          <mxGeometry x="310" y="230" width="60" height="30" as="geometry" />
        </mxCell>
        <mxCell id="c27LXQE5OpBkn1K789Q8-26" value="账户" style="rounded=0;whiteSpace=wrap;html=1;" vertex="1" parent="1">
          <mxGeometry x="364" y="240" width="50" height="30" as="geometry" />
        </mxCell>
        <mxCell id="c27LXQE5OpBkn1K789Q8-27" value="表情" style="rounded=0;whiteSpace=wrap;html=1;" vertex="1" parent="1">
          <mxGeometry x="430" y="240" width="50" height="30" as="geometry" />
        </mxCell>
        <mxCell id="c27LXQE5OpBkn1K789Q8-28" value="消息" style="rounded=0;whiteSpace=wrap;html=1;" vertex="1" parent="1">
          <mxGeometry x="500" y="240" width="50" height="30" as="geometry" />
        </mxCell>
        <mxCell id="c27LXQE5OpBkn1K789Q8-29" value="群聊" style="rounded=0;whiteSpace=wrap;html=1;" vertex="1" parent="1">
          <mxGeometry x="570" y="240" width="50" height="30" as="geometry" />
        </mxCell>
        <mxCell id="c27LXQE5OpBkn1K789Q8-30" value="OKR" style="rounded=0;whiteSpace=wrap;html=1;" vertex="1" parent="1">
          <mxGeometry x="640" y="240" width="50" height="30" as="geometry" />
        </mxCell>
        <mxCell id="c27LXQE5OpBkn1K789Q8-31" value="..." style="rounded=0;whiteSpace=wrap;html=1;" vertex="1" parent="1">
          <mxGeometry x="710" y="240" width="50" height="30" as="geometry" />
        </mxCell>
        <mxCell id="c27LXQE5OpBkn1K789Q8-39" value="" style="rounded=0;whiteSpace=wrap;html=1;" vertex="1" parent="1">
          <mxGeometry x="310" y="300" width="470" height="50" as="geometry" />
        </mxCell>
        <mxCell id="c27LXQE5OpBkn1K789Q8-40" value="mqtt" style="text;html=1;strokeColor=none;fillColor=none;align=center;verticalAlign=middle;whiteSpace=wrap;rounded=0;" vertex="1" parent="1">
          <mxGeometry x="310" y="300" width="60" height="30" as="geometry" />
        </mxCell>
        <mxCell id="c27LXQE5OpBkn1K789Q8-41" value="获取连接" style="rounded=0;whiteSpace=wrap;html=1;" vertex="1" parent="1">
          <mxGeometry x="364" y="310" width="50" height="30" as="geometry" />
        </mxCell>
        <mxCell id="c27LXQE5OpBkn1K789Q8-42" value="关闭连接" style="rounded=0;whiteSpace=wrap;html=1;" vertex="1" parent="1">
          <mxGeometry x="430" y="310" width="50" height="30" as="geometry" />
        </mxCell>
        <mxCell id="c27LXQE5OpBkn1K789Q8-43" value="ping" style="rounded=0;whiteSpace=wrap;html=1;" vertex="1" parent="1">
          <mxGeometry x="500" y="310" width="50" height="30" as="geometry" />
        </mxCell>
        <mxCell id="c27LXQE5OpBkn1K789Q8-44" value="消息上下行" style="rounded=0;whiteSpace=wrap;html=1;" vertex="1" parent="1">
          <mxGeometry x="570" y="310" width="50" height="30" as="geometry" />
        </mxCell>
        <mxCell id="c27LXQE5OpBkn1K789Q8-45" value="ack" style="rounded=0;whiteSpace=wrap;html=1;" vertex="1" parent="1">
          <mxGeometry x="640" y="310" width="50" height="30" as="geometry" />
        </mxCell>
        <mxCell id="c27LXQE5OpBkn1K789Q8-46" value="..." style="rounded=0;whiteSpace=wrap;html=1;" vertex="1" parent="1">
          <mxGeometry x="710" y="310" width="50" height="30" as="geometry" />
        </mxCell>
        <mxCell id="c27LXQE5OpBkn1K789Q8-53" value="" style="shape=image;verticalLabelPosition=bottom;labelBackgroundColor=default;verticalAlign=top;aspect=fixed;imageAspect=0;image=data:image/png,iVBORw0KGgoAAAANSUhEUgAABZAAAACGCAYAAABDnq98AAAMbWlDQ1BJQ0MgUHJvZmlsZQAASImVVwdYU8kWnluSkJDQAghICb0jUgNICaEFkF4EGyEJJJQYE4KKvSwquHYRxYquiii2lWYBsSuLYu+LBRVlXdTFhsqbkICu+8r3zvfNvX/OnPlPuTO59wCg+YErkeShWgDkiwukCeHBjDFp6QzSU4ABbUAHusCMy5NJWHFx0QDK4P3v8u4GQBT3q84Krn/O/1fR4QtkPACQcRBn8mW8fIibAcA38CTSAgCICr3llAKJAs+BWFcKA4R4tQJnK/EuBc5U4qMDNkkJbIgvA6BG5XKl2QBo3IN6RiEvG/JofIbYVcwXiQHQdII4gCfk8iFWxO6Unz9JgcshtoP2EohhPICZ+R1n9t/4M4f4udzsIazMa0DUQkQySR532v9Zmv8t+XnyQR82cFCF0ogERf6whrdyJ0UpMBXibnFmTKyi1hB/EPGVdQcApQjlEclKe9SYJ2PD+gF9iF353JAoiI0hDhPnxUSr9JlZojAOxHC3oFNFBZwkiA0gXiSQhSaqbLZIJyWofKG1WVI2S6U/x5UO+FX4eiDPTWap+N8IBRwVP6ZRJExKhZgCsVWhKCUGYg2IXWS5iVEqm1FFQnbMoI1UnqCI3wriBIE4PFjJjxVmScMSVPYl+bLBfLEtQhEnRoUPFgiTIpT1wU7xuAPxw1ywywIxK3mQRyAbEz2YC18QEqrMHXsuECcnqng+SAqCE5RrcYokL05lj1sI8sIVeguIPWSFiaq1eEoB3JxKfjxLUhCXpIwTL8rhRsYp48GXg2jABiGAAeRwZIJJIAeI2rrruuEv5UwY4AIpyAYC4KzSDK5IHZgRw2siKAJ/QCQAsqF1wQOzAlAI9V+GtMqrM8gamC0cWJELnkKcD6JAHvwtH1glHvKWAp5Ajegf3rlw8GC8eXAo5v+9flD7TcOCmmiVRj7okaE5aEkMJYYQI4hhRHvcCA/A/fBoeA2Cww1n4j6DeXyzJzwltBMeEa4TOgi3J4rmSX+IcjTogPxhqlpkfl8L3AZyeuLBuD9kh8y4Pm4EnHEP6IeFB0LPnlDLVsWtqArjB+6/ZfDd01DZkV3JKHkYOYhs9+NKDQcNzyEWRa2/r48y1syherOHZn70z/6u+nx4j/rREluEHcLOYiew89hRrA4wsCasHmvFjinw0O56MrC7Br0lDMSTC3lE//DHVflUVFLmWu3a5fpZOVcgmFqgOHjsSZJpUlG2sIDBgm8HAYMj5rk4Mdxc3dwAULxrlH9fb+MH3iGIfus33fzfAfBv6u/vP/JNF9kEwAFvePwbvunsmABoqwNwroEnlxYqdbjiQoD/EprwpBkCU2AJ7GA+bsAL+IEgEAoiQSxIAmlgAqyyEO5zKZgCZoC5oBiUguVgDVgPNoNtYBfYCw6COnAUnABnwEVwGVwHd+Hu6QQvQQ94B/oQBCEhNISOGCJmiDXiiLghTCQACUWikQQkDclAshExIkdmIPORUmQlsh7ZilQhB5AG5ARyHmlHbiMPkS7kDfIJxVAqqouaoDboCJSJstAoNAkdj2ajk9EidAG6FC1HK9E9aC16Ar2IXkc70JdoLwYwdUwfM8ecMSbGxmKxdCwLk2KzsBKsDKvEarBG+JyvYh1YN/YRJ+J0nIE7wx0cgSfjPHwyPgtfgq/Hd+G1+Cn8Kv4Q78G/EmgEY4IjwZfAIYwhZBOmEIoJZYQdhMOE0/AsdRLeEYlEfaIt0RuexTRiDnE6cQlxI3EfsZnYTnxM7CWRSIYkR5I/KZbEJRWQiknrSHtITaQrpE7SBzV1NTM1N7UwtXQ1sdo8tTK13WrH1a6oPVPrI2uRrcm+5FgynzyNvIy8ndxIvkTuJPdRtCm2FH9KEiWHMpdSTqmhnKbco7xVV1e3UPdRj1cXqc9RL1ffr35O/aH6R6oO1YHKpo6jyqlLqTupzdTb1Lc0Gs2GFkRLpxXQltKqaCdpD2gfNOgaLhocDb7GbI0KjVqNKxqvNMma1poszQmaRZplmoc0L2l2a5G1bLTYWlytWVoVWg1aN7V6tenaI7VjtfO1l2jv1j6v/VyHpGOjE6rD11mgs03npM5jOka3pLPpPPp8+nb6aXqnLlHXVpejm6NbqrtXt023R09Hz0MvRW+qXoXeMb0OfUzfRp+jn6e/TP+g/g39T8NMhrGGCYYtHlYz7Mqw9wbDDYIMBAYlBvsMrht8MmQYhhrmGq4wrDO8b4QbORjFG00x2mR02qh7uO5wv+G84SXDDw6/Y4waOxgnGE833mbcatxrYmoSbiIxWWdy0qTbVN80yDTHdLXpcdMuM7pZgJnIbLVZk9kLhh6DxchjlDNOMXrMjc0jzOXmW83bzPssbC2SLeZZ7LO4b0mxZFpmWa62bLHssTKzGm01w6ra6o412ZppLbRea33W+r2NrU2qzUKbOpvntga2HNsi22rbe3Y0u0C7yXaVdtfsifZM+1z7jfaXHVAHTwehQ4XDJUfU0ctR5LjRsd2J4OTjJHaqdLrpTHVmORc6Vzs/dNF3iXaZ51Ln8mqE1Yj0EStGnB3x1dXTNc91u+vdkTojI0fOG9k48o2bgxvPrcLtmjvNPcx9tnu9+2sPRw+BxyaPW550z9GeCz1bPL94eXtJvWq8urytvDO8N3jfZOoy45hLmOd8CD7BPrN9jvp89PXyLfA96Punn7Nfrt9uv+ejbEcJRm0f9djfwp/rv9W/I4ARkBGwJaAj0DyQG1gZ+CjIMogftCPoGcuelcPaw3oV7BosDT4c/J7ty57Jbg7BQsJDSkLaQnVCk0PXhz4IswjLDqsO6wn3DJ8e3hxBiIiKWBFxk2PC4XGqOD2R3pEzI09FUaMSo9ZHPYp2iJZGN45GR0eOXjX6Xox1jDimLhbEcmJXxd6Ps42bHHcknhgfF18R/zRhZMKMhLOJ9MSJibsT3yUFJy1LuptslyxPbknRTBmXUpXyPjUkdWVqx5gRY2aOuZhmlCZKq08npaek70jvHRs6ds3YznGe44rH3RhvO37q+PMTjCbkTTg2UXMid+KhDEJGasbujM/cWG4ltzeTk7khs4fH5q3lveQH8VfzuwT+gpWCZ1n+WSuznmf7Z6/K7hIGCsuE3SK2aL3odU5Ezuac97mxuTtz+/NS8/blq+Vn5DeIdcS54lOTTCdNndQucZQUSzom+05eM7lHGiXdIUNk42X1Bbrwo75Vbif/Sf6wMKCwovDDlJQph6ZqTxVPbZ3mMG3xtGdFYUW/TMen86a3zDCfMXfGw5msmVtnIbMyZ7XMtpy9YHbnnPA5u+ZS5ubO/W2e67yV8/6anzq/cYHJgjkLHv8U/lN1sUaxtPjmQr+Fmxfhi0SL2ha7L163+GsJv+RCqWtpWennJbwlF34e+XP5z/1Ls5a2LfNatmk5cbl4+Y0VgSt2rdReWbTy8arRq2pXM1aXrP5rzcQ158s8yjavpayVr+0ojy6vX2e1bvm6z+uF669XBFfs22C8YfGG9xv5G69sCtpUs9lkc+nmT1tEW25tDd9aW2lTWbaNuK1w29PtKdvP/sL8pWqH0Y7SHV92ind27ErYdarKu6pqt/HuZdVotby6a8+4PZf3huytr3Gu2bpPf1/pfrBfvv/FgYwDNw5GHWw5xDxU86v1rxsO0w+X1CK102p76oR1HfVp9e0NkQ0tjX6Nh4+4HNl51PxoxTG9Y8uOU44vON7fVNTU2yxp7j6RfeJxy8SWuyfHnLx2Kv5U2+mo0+fOhJ05eZZ1tumc/7mj533PN1xgXqi76HWxttWz9fBvnr8dbvNqq73kfan+ss/lxvZR7cevBF45cTXk6plrnGsXr8dcb7+RfOPWzXE3O27xbz2/nXf79Z3CO31359wj3Cu5r3W/7IHxg8rf7X/f1+HVcexhyMPWR4mP7j7mPX75RPbkc+eCp7SnZc/MnlU9d3t+tCus6/KLsS86X0pe9nUX/6H9x4ZXdq9+/TPoz9aeMT2dr6Wv+98seWv4dudfHn+19Mb1PniX/67vfckHww+7PjI/nv2U+ulZ35TPpM/lX+y/NH6N+nqvP7+/X8KVcgc+BTA40KwsAN7sBICWBgAd9m2UscpecEAQZf86gMB/wsp+cUC8AKiB3+/x3fDr5iYA+7fD9gvya8JeNY4GQJIPQN3dh4ZKZFnubkouKuxTCA/6+9/Cno20CoAvy/v7+yr7+79sg8HC3rFZrOxBFUKEPcMWzpfM/Ezwb0TZn36X4493oIjAA/x4/xdoDZDDOAWEOQAAAGxlWElmTU0AKgAAAAgABAEaAAUAAAABAAAAPgEbAAUAAAABAAAARgEoAAMAAAABAAIAAIdpAAQAAAABAAAATgAAAAAAAACQAAAAAQAAAJAAAAABAAKgAgAEAAAAAQAABZCgAwAEAAAAAQAAAIYAAAAAXk/gSwAAAAlwSFlzAAAWJQAAFiUBSVIk8AAAQABJREFUeAHsvWl3HMmVpmkAAgjs+0YQ3JdkkkxmSkotKZVKpZK6ttPVPTNVc6bPfJj5AXPm2/yA+TU9fc5sp6e6u6Sq6lKVVNpzZ5LJ5E6QxL7vO+d9rocDgWAgEAEiAkDgWiYYHuHu5mbvNbvm97Vr1yq+Grr7KhyF9ErFqKiwkrzS8cbGRuCTVFlZGaqqqsLG+kZYXFgMqyurYV3ng05XJapCMlkTGhob7NqF+YWwurZmxzXV1f67kHAcvD14v3D94HrA9YDrgZQemJsPq+vr/p7g70v+3ujvya4HXA+4HnA9UDw94O8b3r+8fxWvf/n4dSj9K2FPPWL/QB4vLy+HdRl4kMcQH4naurC6vBKGng+F8bGJsLCwZARzfX1d6OrpDBcvnrNaDOr81OSMHbe1t/jvQsJx8Pbg/cL1g+sB1wOuB9L0wNSsvyf4+5K/N/p7susB1wOuB1wPFFcP+PtG8PfPtPdP56m8PRxz3vJoEsjyNF6YWwhrq2tGHlfVV4TquqpQm6gJyapq+9uoWscB2X7jd/5Ifuw4eBvwNuBtwNuAtwFvA94GvA14G/A24G3A24C3AW8D3ga8DXgb8DbgbeBg2kDFUQthUaEwFvOz82H4xXBYXVoNjfUNob2tNZzq7Q41NTVGLK+srIRNhbeo0H/ZQlispUJYVGcsGfDfQ2AJs+PgOKSHfPH24O3B20MIPl5EIT5OBA5aUrqWCmFxIurr4745GPj7z3YoJx/3fdz3cd/HfdcDJdAD/r7h46/zUdYG/H27fOysQyWQiXHMH6EqVpdWQqXiHDc2NIY1xTgeGxoL68troaG+PrS1toSuzo5AuIrNzU1rhIS2gGz25Ag4Ao6AI+AIOAKOQN4IsL+Cvz/kDZdf6Ag4Ao6AI+AIOAL7QMDfN/YBmt/iCDgCRxmBQw1hEZPHhKsYH50IyUQyNJ9vDF0t7aEl2RBeiSyurkqYZ1iyNmmEMcQxycnjo9ysvGyOgCPgCDgCRxYBN2iOrGi8YI6AI+AIOAKOQNkg4O8bZSNKr4gj4Ag4AiBwqAQyISgqKyojL2R5GydqKkNC3xu1YV6F/kiZRHHmd7vI/3EEHAFHwBFwBBwBR8ARcAQcAUfAEXAEHAFHwBFwBBwBR8AROHAEDpVAxps4QdiKuvqw3NQUaqpqQk0iYaSxB6c4cFl7ho6AI+AIOAKOwAlHgPAVJxwCr74j4Ag4Ao6AI+AIFBkBf98oMsCevSPgCBwCAodCIBPHeH19IyREICflaVxVp4092jb1PRGS1TVu2x1CQ/BHOgKOgCPgCDgCZY+A7DnNUpd9Nb2CjoAj4Ag4Ao6AI3CICPj7xiGC7492BByBYiFwKAQy5DG7YdcovnGzYh3XNdaHxhoRyQpfkUwmi1VXz9cRcAQcAUfAEXAETjICTh6fZOl73R0BR8ARcAQcgdIg4O8bpcHZn+IIOAIlRaCkBDKb5vG3srwSpienQ22iJnQ2tYVkQ3Woqo42yStp7f1hjoAj4Ag4Ao6AI+AIOAKOgCPgCDgCjoAj4Ag4Ao6AI+AIOAK7IlC565kinIA8Xl9fD4sLi2F8eNz+lheWwubGphHLRXikZ+kIBDUuR8ERcAQcAUfAEXAEHIHiIuDvG8XF13N3BBwBR8ARcAQcAec3vA0cGgIl9UCOa8nGeQ11dfJAToZqHXs0whgZ/3wjBDDcsi0XyvZbsMBUb/Q4v9kRcAQcAUfAEXAETiAC/r5xAoXuVXYEHAFHwBFwBEqMgL9vlBhwf9xeCJSUQK4QkZdIJEJ7W2vobGy1EBbNTU2hChI5K8m3V/H9vCOQhkBBbcinLdKQ80NHwBFwBBwBR8ARyBcBf9/IFym/zhFwBBwBR8ARcAT2i4C/b+wXOb+vSAiUlEB+tfkqrK2thWRVdWhrawkN2jivsrKifMjj3WaIiiQ8z9YRcAQcAUfAESgYAZ8/KxiyI3eDv28cOZF4gRwBR8ARcAQyEPD3jQxAjuFXf984hkLzIjsCxUOgpAQy5PHs9FyorkyE+qqkEcnVFYnyIZCLJyfP2RFwBBwBR8AROCAEKvLad8BXBh0Q3J6NI+AIOAKOgCNwIhHw940TKXavtCPgCJQtAiUmkNfD7MxcqKmoCqtNreFV/Svf36xsm1YpK+bxjEuJtj/LEXAEjj8C+ZHD+Y/R0Qo7dzU6/i3Da5AbAX/fyI2Pn3UEHAFHYCcC/r6xEw//5gjkh4C/b+SHk19VagQSr7QsQUEkoucW2fZbX1sP8xDI8kDeWF83z+OCwrqUGh1/3jFBYJ8N15fkHBP5ejEdAUfgcBAgxFS+T+ZFtxDCOe+M8y2AX+cIlACBfbZbf98ogWz8EY6AI3B8EfD3jeMrOy95cRDw943i4Oq5vikCiR2zgth/SjIBo4Nd/t0v4ZzQZnn19XVGINfUVIfKKnWMffaNXYrmP59UBPZjnOXPjJxUVL3ejoAj4AjkiUA0mOevVgshmymCvyzkKQi/rNgI+PtGsRH2/B0BR8ARyIGAv2/kAMdPlRMC/r5RTtIsm7rsDGGRss+2COJc1YycjeyKdMJ5ByGdcX9DY324cPGsYh/XhObmplAlQjnX9Rm3+9e8EEAwJ9DQzp+1yAtFv8gRcAQcAUegmAgU5m3EaqnM5O8PmYiU+ru/b5QacX+eI+AIOAKOQKEI+PtGoYgdvev9fePoycRLdFIR2EkgF4JCGkeZF+GsvDH2EolEqNYf5HFlRaXcnaGfdxqGEReY9oBCynWY1x6JIh+JQhyOFPYzS7efew6ndv5UR8ARcAROKAKFGH85ILL3jZ3n/X1jJx6FffP3jYLw8veNguDyix0BR8ARKD0C/r7xGuZHYqg/EoV4DZqS/LCfd4f93FOSyvhDygGB/RPI+6j98vJKmBqfCrWJmlDbnwy1NUnL5XUvIpa27iSVd3vc0TH+8ivvbvXw3w8AgagxFJbRfu4p7Al+tSPgCDgCjsARQcDfN46III57Mfbz7rCfe447Tl5+R8ARcAROKAL+vnFCBX/Q1d7Pu8N+7jnocnt+ZYtASQnklZWVMDY6bgRyX1d3DlALmf2DuIVwzpFd2qnXlXnayTc55PneWd8EwYO512fcDgZHz8URcAQcgROBgL9vnAgxF6OS/r5RDFQ9T0fAEXAEyhQBf98oU8EWv1r+vlF8jP0JeSNQUgJ5dWU1TE5EHsgcH0yKljTkz90WQjZTwhO8ZOJgBFTaXPJvCNvlcqW8jYUfOQKOgCPgCOyCgL9v7ALMyfzZ3zdOpty91o6AI+AIFB0Bf98oOsTH6QH+vnGcpFX2ZS0pgZyoToTGxoZQW11jsZAPB93izP4VzbP5cEA6WU/dj1I+WQh5bR0BR8ARcAQKRsDfNwqGrNxv8PeNcpew188RcAQcgUNAwN83DgH0o/1If9842vI5xqUrKYHc3NwUbty8ZiEsmluajgFshc7+HYMqeREdAUfAEXAEHAFH4Igh4O8bR0wgXhxHwBFwBBwBR6AMEfD3jTIUqlfJESgZAiUlkKuqqkJdXa0RyBx7cgQcAUfAEXAEHIE3RcCC8L9pJn6/I+AIOAKOgCPgCDgCORDw940c4PgpR8ARcATKHoGSEsjLyythajyKgVzbnwy1NcmyB9gr6Ag4Ao6AI+AIFBUB20TW/tn7MeZ4Enmf7H2xX+EIOAKOgCPgCDgCjkAKAX/f8KbgCDgCjsCJRqCkBPLKykoYGx03D+S+ru4TDbxX3hFwBBwBR8AROBAECopzJuuPjUPzSU4254OSX+MIOAKOgCPgCJwMBPx942TI2WvpCDgCjsAuCJSUQF5dWQ2TE5EHMseW3BFqF9H4z46AI+AIOAKOwEEjoEG3kHG3ILKZshaS+UHXbY/8jnDR9ii5n3YEHAFHwBFwBI4ZAv6+ccwE5sV1BBwBR2BPBBKRJ1KaVZV2uOfdBV6QqE6ExsaGUFtdExIJuOs8vaAKfI5ffrQQWF9fD0tLy2FZHuhrq6uB79EKKJf/G0lKXgB0V/pSdU1NqE0mLcZ41LfeKOe8bna55gVT4RcdslzjArt8YyQO+POIyDeuVVHknIt0Lsh7KS7lMfw8InIuinyPoTgOvMhHRL4HXi/P0BFwBByBw0KgoPcD2ZC53jXS62DcRhEJjvRn2bHbt69B4j84Ao5A2SCQCOnKGn23pfO2DrJUNk0Jpx1muXDHT83NTeHGzWsWwqK5pSl6Vvrzd1ztX8oFAcjjwcGhMDo6FiYmJ8Pi4mLY3NzUuJ+rjZVL7YtXjwr1ncrKylBfXx862ttDd3dX6Os7FZqaGov30LScXa5pYBzg4WHLNa6KyzdG4mA/j4p841odOTkzLpTBe8FRkfORk2/c8I7551GR7zGH0YvvCDgCjsA+ERABkTcHofeKfG3OrTy3DgovH+ZtGbzHFF5xv8MRcAROAgI7Q1js0JU7vmTHAgXJX8w676Esq6qqzEOyNlETOPZUnghsbGyE1dW1MD8/HyYmJsOIiOOXg8NhTOFL5ucXw7LObW6+ynssL0+U3rxWdLfKygptRlktz/7h0NXRFoZHRkOPiOSOjnb91hhqdO6g+louuc7NIdfVHXLFwD4O6aAmMqy2qTq/SZ7bcq3RZEDx5RrLqFD5xvf5Z2EIHJZ841LmkvOR0M/5GnlUqBAdo3ztdSUGosifhyXnXPLNpqeLDENRsj8KY8u2fEsz/hYFSM/0eCJQJpNsxxN8L/XxREBv6AWZJHpbSH8XKeRd43gC5KV2BBwBR+B1BHZ539hJIL9+W+5ftpTx1kHO65eXV8LUeBQDubY/aaEsdijo+O6t7LYO4jP+eQwQgDyempoKDx48Cr/6ze/D4ycDYX5pRYN3MiQb20IiWafjKtn+Lt83EaeRlK82wvrKdFhZeBIqXq2GxrpkuHD+bPjud94PV65cCm1tbZq0OZjJmt3k+qqiJiQbdso1Eu3xkO+bkL3p8rPa7qtNp2gt3leV4bZcpyTXx1tyvXgBuX7zwOUa16EQ+cb3+GfhCByWfOOS7pTzh+HJ00g/Z+vH8T1l8ZluDKpCqV5XtKodlpx3ynd7/C17+WZIMtLH8Y8HPxZty7c0429cE/90BBwBR8ARKDYCGjPedNjIeOewEm/luXVQ7Ip4/o6AI+AIHDgCb0YgF1icFcXAHRsdtxAWfV3dITQ3756DKd48TTzTw66MdwezNGcwqPB+mlSYijt374Xbd74Kd+4PhLGp+VBT3xzqmzpCorknJOub5DkrUlPhF/ZKLtocCCkMyObmRlhZnAvLm9VhYW4iTI7OhqW1gVCjeMgr8gi+cf1a6OnpNi/k/RL2+ci1umWnXPfFo+aoajFPZXvH28/zDqytpsl15VWNyXVqbDYsrz+XXGsPTK5xHfcj3/he/9wHAmnyfb3fHrx84xJmk/PdBzv1c3VLd0H6Oc772Hzm+UoR1QeP5Td4ryixnLPJN3P8zdTTx0ZuJSpoQTo8p3wPbvwtUdX9MY6AI+AIOAIHhUAuI8j5jYNC2fNxBByBQ0KgpATy6spqmFQYA0JYcJwz5VK+r90oqzBfFqggC+G1B/kPORCAPCbe4rOB5+Hv/v5n4cHT4VDX1h8uvPO1cOrc1dDc3hMSNbUiM9XsJN/9Epo5ivAm5n6ubI/kuU3avP42NtbD+upymJscCUMDD8L08JPwi19/EoaHhmzTymZN1NTV1aY2riy8KvuR6xvQLoUX8A3vKIhT2u1ZksNBtedSyTWuyn7kG9/rn4UjANGX3m9n6bfP7lu//fmvPg5Dg4MH0m8zS5Yu57//h3/aqZ/PXglNGfq5sqAxOPNpJ+F7SnPs/NjyWkLMpZRzunwPa/w9CVKP65jZj4s1/sbP809HwBFwBByBMkCgoHer6H0xr1o7v5EXTH6RI+AIvDkCJSWQE9UJM4xrq2v2TWZlr7K0ZiGMlVl22XPa8etWnlsHO077l50ILC0thZcvh8KjxwPhyfORML24GXreOh/OXI0I5KbWjp03+LcDRWBuuk/hQRpsg8Khl5EMkEW7wlicPs3metq4ch/J5ZoHaOiUgl4K88gzdUmx5BqXIF2+T1+MhpmlV6HX+20MT9E/t+X7Khxkv80seLqct/XzuXDmynuhVxN8rp8zETuo7xiAIcx1ngrVyfrwSp6rw9LPTzVGmn5ubY30szYZjtL+3jeyy9fH34OS4l750I+rNP5ubGyGwRfPwuOB4Ui+bzj+7vVcP+8IOAKOgCNQrgjofaCQVwLnN8q1IXi9HIEjhUDV//q//S//e6lKVFNdHTr0Mt3X2yNSqzXw/VASRE8+f7HWlvGXVzIlX4imzyvXY3PR6Nh4+OijT8Odrx6H2eWK0HrqUrhy6wN5H78V6hoUtsI3TiyqLPHsrlV4kOpEtTz8l0JlUIiLDXn6b66Hrq7O0JIrZEyOkrlcc4CTfqpIBHKx5BoXPZbv3ftPdvTbXu+3MURF/Yzlm9B4GPfbjfUVxb7eeKN+m1norHJ+5wORx66fM7E62O/R+0Ys52pNoK+uSj9XSD9LzgE5a+PTLf28z/eNWL4+/h6s9PLNLZZvsftxvuXx68ocgSK9b5Q5al49R6C8EciH2zDdkeIq9vm+Ud4geu0cAUdgBwJZ3jdK6oFcJQKRpfSEsOD4eCSMvwJKms/sXxZBFPCEI3vp/Nx8uP/gYRh4odAVLWdD59nroePUOfdsK5HEEiIm8CJcWz0X+s6/HcafB8liINRpnuadm9f3XYp9y1V9Ybd3k60uZQdb3/ZdxnK+sVhyjTFDvg8ePtrut2feDu3eb2N4iv65Q74XrofxgcL6rS2lz6OUcT9+9nw41Jp+djnnAduBXbJDzucl5+cVYUCeyHU1FWn6WbqwEHWY9r4xPzunjWsfhucaf+sl346zb2v8Pevj74FJMHdGO+S7j36cO3c/mxsBvWvs9rKRceNBhZrKyNa/OgInAoF83zciM7eQwexEwHfEKrn/941dK1Km/Mau9fUTJxABf99A6CUlkJeXV8LUeBQDubY/GWprkuXX8E6w8lxYXAoDAy/D6Ph8ePvS6dB75rI8YhvLT8ZHvEZg3iPsV5dmwpePboe6qo2AbPab9i1X9YW8Xx9zkM2U2/LZ/me/VTnW9x20XGMwdsq3z9qO99sYndJ9gjk6c3WxsH6bLyGyU87Sz/2XQm1dg4iXnczLdjfLu/eWDqQyeNKB9uO0940F7T8w8HwwjE7E4+8VW5FSBpAdqyrstx8fq0oeucKyp0a+hSrE+CPPvDPOtwB+nSNwbBHI933D4jbJhSTj9WLXeuef765Z+IliI5C/ki12STx/R+AQEfD3DcAvKYG8srISxkbHzQO5r6v7EIXvjy4GAqurq2F8YiLMzq2HuuaO0Np1KtQka4vxKM8zBwJgDvbjQx2SxUIYT6xoyfQem1bmyK8kci2QbKa4O2mvqAIR+VWeBt9ByzUW+Q75Nnm/jXEp9Wcs37ED6reZ5d8hZ/Rzd1+oqa3LvfljyvrL1tfIP+pvW0eZj/TvWRCI5XxQ+jl+xGvy9fE3hqakn7F8i9WPS1qZsnxYocbfbtov1n/l+b5RlqL3SpUQgahf5M85FkI2Uw3vdyUUpj/KEXAE9oVA+b5vJLZYmBLo4tWV1TA5EXkgc+ypvBDY2FgPy4uLYXUtiDiut7jHVVWHFOe6vKAtqDZgTsxpNmxaXVuVTFa1sc96QXmkX3zk5Jp6Iy2BykqHIfdxCQoTy5W+dRByjSt05OQbF+yEfRZLvjGM+5JzoX0tx0qCrS5iB1vf4uKdmM9iyXlf8j0xqJeuosWSb+lq4E/aRqAQ42/7Lj9yBByBQhEopK8xqVMI4Xxy3zcKlYJf7wg4AoeFQCE68LDKuP3cxNYkXmqSXSp5+2yWI1Uv+nUf+jhRnQiNjQ2hVrFaE4mSOj9nqYn/dNAIvNp8FdbWISsToUobuSWqyzBEyUGDVoT8KiorQ6IyaTJYX98Q2bgekM1+k8s1H+T2oRDzyTbtmnS5bmxsqq+9mVzjrF2+MRKH+1ks+ca1KomcC1xJkEsrWY/a/ieuxrH/LJacSyLfY49+8StQLPkWv+T+hOOBgLRm8V83jgcUXsoTikDUAdy7+YSK36vtCDgCJUJg9/eNbRY39UKyRRDnKhpWX8ryy0U4b+WVyru5uSncuHnNQlg0tzTleoKfO6YIEMfKY1kdU+F5sfeHAMv883+T3d8z/C5HoNwQKJBspvqp147XkNjiU7wfvoaN/+AIOAJlhABK0PVcGQnUq1J8BLBL830Kns27vWnszCPKM++Md97s3xwBR8AROOoI5Hjf2CaQC6lEmr7cIol3u5+Hp3RxpTwja2u1eV6iJnCcTUkXUyFvvtoM65sbYTPPwWG3Kh2X3ysFZqKyKlRWVJa8yGlNpOTP9gc6AuWMgKlUQgWcED1WzrL0uuWJQMr6y3tcoX/kyNry2f4nx5V+yhFwBBwBR8ARcAROBgKFkc2FhdIAwbzfYk4G3F5LR8AROJYI7I9ALqSqabpyRXGPp8ajGMh11bWhLusGa/kTI4WSzZDH86tLYfUN4sEWUvXDvramSiFDaupCTVXpCeTDrrs/3xFwBBwBR+CEIqCXg7RXj9wgpCZidiOct/JJkdi5M/OzjoAj4Ag4Ao6AI1D+CERvB/m/GhSP3yh/rL2GjoAjcJQQKD6BnFbblZWVMDY6bh7IfV3daWfSD4s3+4fnMeTxsuL0npR0UrytT4o8vZ6OQDEQwJvZ/oqRuefpCBxlBFLW3xZRvFdZ3bt5L4T8vCPgCDgCjoAj4AjsQKB4/IaHjtwBtH9xBByBIiNQUgJ5VR7IkxORBzLHb572M/unp8rVKNcC1y3fpbwtyjeviefgCDgCjoAj4Ag4AkccgQPybvZQNEdczm9YPF4ffU+INwTRb3cEHAFH4EQisE9+Iw+sojlzJzjygMovcQQcgV0QKCmBnKhWSIXGhlBbXRMSiZI+OlX91Oyf9OYWSbwLMBZAMbWm1cnm3UAq7HfzcNzc3CLvI+Oq0owscto6n1pSbOcVK/uoz6zG5WZaooJ40xAMKa+2fBCy+9PrvMu9XLe5sWFZViosiT0rnwf4NUcSgUjumzahRZuJE0fWftJ+i88d5c+t+lj59+63+bb7YtXZni995P02hXBKB8V4M/xtKuwTqVKx9AvRaXbTEfvnoNsb+UX6WHo/hc9rGKX68HbvzgUKqwBynd8+99pztk/5UQ4EkFlK4dpVmTgedBvJURQ/5Qg4Ao7AyUUgc7DbGiS3Dk4uNvuqeYrfyOveaBzMFMFut2aOk7td5787Ao7AyUGgpCxuc3NTuHHzmoWwaG5pOtoop41he5LN1CRl+OUim7nsJCviVyJr1tZWREpsGg6QEonqah1XAU3g/Praqhnl4FhZVRWqq5OhQp9HOcX1wvqvYoPIVHnzlTVG68b6mlWxSnGrxdZkbSeQFWsrS9bUahQ/vLKqMKL6KGN4VMoWEQzF76c8B3Juc33dJk7EQEnmEQpMDFSpDeXbfkqBXT64vGKT0rWoHaf3693Kl97uK9Xu2Vi1lHX2fpshmbgB6mdrn+ib1WUb26qTSbXJPV4X0u7PyPlIfI3a2zq1k+588/aGPl5dWTTSt1r6OMZn/224MAMw0/ijflt/IM4FR1wmpWwY1qalc/lERvEEbCyv+PzmZvQyV1lZURYTJ6XE2J/lCDgCjkBeCGQbm2xQSxnTe2Vi78tphvpe1/v5NAQi3LKJIO2itMP8JrfjsTTtRj90BByBMkUgYUZGvN1MkXUxpEhdXa0RyByXVUphlxfZvEfFI0NmMywvLYfZ2VkZqatm8NTW1oaW1paQrE1aDhsYsKurdt3i4qKI181QXVMduK6hQZ7eIjMPI0EkbSjW9NrqiohREcLm5RfC6vJSmJuZEAm6LL6sMtQk60JDc5s+a62YnF+YnU4Z5aqLzje1dISa2jo7D+Fclai2YwjXVZGpywtzIqVzh0NJ6B7y4HnVNRCv2YkQBj9IrNjoXllaCLNTo4ZrQ3NrSNY1GuFNOdLT0sJsGB18quvWQ2vnqdDQ1KqybxMK6ddmO16anwkjLx6ZYdvVd173txk+9E1IRogu0sLcdBgbfGIEe1v3aXtOQt78cXnANCZGsj3Hf8uOgPU39SXkODU+ZMRLS0dvqG9sNlIIXPNJ65ocWVJ7pB3T/mPvTYgl2h1tMFlbb+2LvsG189PjYV1tuUa/xwQU7bSxhX4Rtft8nl2sa8AGXCZHXlp9Wjq6Q11Ds/rBdrujf9MfF2Ynw/jwc2u7PacvWt/O9UK5srwQpsaGTB9Q/7qGptDQ2GL3Ly/OG3lJvrH+yKxj3F/RE5SpuiZpfcj7bSZShX2PibR5yXP0+SMbe3rPXVGb7MgjIxl/GfYfepH2vrw8HxZmpkKl9HFrR4/aUDIgKyYNo5Rx49bTIrKPSYlkXcPWGLCMfp4ctb5WL/lzjn5Gm5nXOEM96qWL6XfoSNPTL5+YPu3oPWP6k99XRZLTD7FdG1valU+9kYtx27WJOyY+NdmzqbGNC8l7EX089EzHm6G9u9+eRR+2MYSyG0lZYf2atrnbuLNVzYIOXieb4/JuZZO/dbh1y2Ec2LuC3gloB+nvC/stS0LvPcn6BmtfYBLjsrq8GGbUXnhfqJW+qVF7qatnTI/ek3gv4f1kVZ9MAifVbhoao7F8v2Xx+xwBR8ARcATyRKCgMYt3jd3eGTKeZ/Z5kQmOjEeW19fX3zfKq35eG0fAESgUgQRGzlba0sVbB1untg/Srk873D6/+9Hy8ooImigGcm1/MtTKqPL0OgIQJmw4ODoyGu5+8WWYGJuQ0ZwIvad6wjvv3gzdvdEGhJDHkxOTYXhoODx/+lwG+kpobWvVdb3h/MVzoUlG1GEkyo/nGgb24vysEUSUY35mPAw9+ypATGBMN7V2hp7Tl0Q0tVsxF2anwsjLR2bMY1Q2ilw+de4tGfWddh5SFnKW+Q7ynhp9GYYG7oc5Gf+5Un1jW+js7Q+tXadDS3tPqN0Fl8rKREiYoV9lBMHU+HD48qOfhXUZlOevfT10pUixmuQ2gQyRMD0xHD7/9U+MOHzrve+F0+ffDo1tnVuEYK6ycW5i5EX43T/832FDZPG3f/TX4czlBjNgISCNjBQhQqKun/7LfzED9+qtD0Lv2atGNEKgkSDKkzKIKyrw6i6wc1oOJ/Of2JNw+PnD8Okv/9YIpne+86/C6QtvG6mZqMxvIgZCeOjJvTCpdrm0OBfWRZqRIDMgpNu6+kLnqXNGgM1PT4RRkVnP7n+mCaB5TTz0hlpNUPBC3NzeHc5cunHoBHJMJI4PDYQP/+k/GsFz4/0fhD7hEk38RO0Owo7++PLxl+GzX/3EiJtv/fivQ53I4FxexWBw/9NfitQZ0URRp/rXhXD2yjvWb0YkC8h8MI1xzGyd8QqF1q5ToV94Jao7jWym3979MNVv3/566M7RbykvxNJbX/sD67dNBfbb3/79/2X99js//u/Lpt8yYbUhT/Ixtc/f/uP/E6pEsn7vL/7HPAlk6Z0M1QNhNysdjUwff/mRiLmGcOu7fyqZt1sfWNSk4atXeIam7MGt+6MD2hDjBZMqXeo/kMK0zZmJkXDn9z8LK5ps6Lv4dujuu2D9aFETcg9v/9aI5fNX3w3tPf02oUe//P0//r9GMH/jB/8m9F+8Ln1fq3xGw/3Pfmn9/vI737Y+mu5Bz6oZxhgmK/GwZ2yCNB4RuX77N3+n7xvh7W/8Yejpv2yTofEkZ1zuuobG0NzWLWI6+8RlZrs+ad8hbpElGDNJynfSVjMoEBAmAbr6L+n9osN0bTwWzs9Mhkdf/E7vJNOhrbMvtPeeDV1957YIZH4fuP+5SOSxkKyp1/vCKem6a9Z2CiyCX+4IOAKOgCNQVAQ0QhQySPCCkU/aynPrIJ+7/BpHwBFwBE4UAjstmi19uXWwOxjoYtPHuZRyWj46hBQdGx03z9i+rogE3f0BJ/eMEbAyVCfGJ8Ld23fDwJMBGTnV4cq1K0YMxwTy2upamJmeCS+evQiff3I7LMwvhN7Tp8yg7Tl1ePgaIScvzHl5m0HyLsuDkYT3z/PHd81QxFMLooxrm1ME8ay8fwZFMJtXmUgHCGbeEFrapu3+OnmEYrjjZYYhv7K0GKZFFsXekRjueCJiMOLduC6CfXNzXYRxk0jXBRmGk2Gs9nHkHaxr4yWs5jEtEqxe3kbdZy4ZUVKh5at4zq0s4oU8FioffG6kYO+ZK3Y/xi7EBSTv4NN7IsJ+ZR7R5ImhStnN29RKHv0DuYuHcr2INcoae6qBzwvhAjHxzrd+ZETdK3HGy4vy/ISMnJu150DAvHh0x7z56lSnJT0fL1U8uMEE8qtbJFwjhHyeXrNpxSveoV7cIHwWROxMiIwEbzyo65uEQ9U2DsUrQH45b6jNRZMeM2FA8qbMp85eMVzxVIyJiN1yw2uWCZCxwQHzon2lpdCbG2shMSdPS/UHPBghifGU5FraECTy4sKMkVp43wopI0Fb5KEZeywyeYScY2Jqt+cX63c8pCkjhO/Aw9t6TEU4LcKWNhf3NUjm4ecPrL3iQQ+WuyX6jPVfEbd4HTJxND0+YmRxs/oN7QICHvKYc3gEkmw0YWJEconyWLU+tyDiB4/SSF8obu9Wvx0NlSKEyAc5MgFlRKCwt34rsh8Cm5UMufpt7S79Fo/WuN8ufOvHZdNvbeJAejmaFLhrhD7kaaGJcWxD7R/y+MXDL8LQ8/umr5ksibySV8Pc5Jgm4IaszdP2o3eKnU+i7zE59krtprWzJ2KZaQOS87pCSMxqAgI9vzQ3I914VQTkqp4zZO0mqX6DXqV9oGdfPvnS2iYTBkzcrKt9jQ09DaMvntgYG7e19BKg5yGLmejYKp/a4fjQM2vvjGHoNVtpQD9VeSMMVT6twGGcq67R6gP1+3JO1Bndvig5TAwPWFXBnXGVVRy76U/63+ToC93zwsjdDelJvNOrEtsTtfngtsY7h+TZ3N4VaqVLeV+IwklFK0ji58xNjas8VTYOM1GC/NBxvK9MDD/TxNWwTTJTFyb+4pUgtMMqvYfx6ckRcAQcAUfgGCFQkFMN7yK5uI20ekcvpmk/+KEj4Ag4AuWPwE4CuZD6mtLkhq2D3e9GD+tvVR6ykykPZI6zKuit7LYOds+3TM9APEEOT0/NhEf3H4d7d79SLOBq+1uYX9yq9boMrfm5hTA8LA+qew9kqM+GJYW9aFWYixXwPaRkBI7IodnpMQvNAIFAWpRxB6GMpw/kGOQRJOps45idX9LvU1oCPz83KUKNZc/LEekjYpnU3NZp3kLNIiBYetrY1mVkL0QqXkt4pp2WxzKEG6TArAgvvAsxEidHBsPws4dhcuylPTde8k6+UTiBWXn0Xgnf/ZP/wYxHDH68LM9ceic8f/R5eHjn9/q8E25884dmQN779F9EOjyOCCzqNTZo7RmP669EStmS5QxDk/y/9r0/D/2Xb1pZK3fxwMejE2N3VOEqHnz+axGST40MXxHhQVkxxCGT8ZhlqTbGMEvCz169ZcYudauSF/JRSRALeOlBwvzyb/+9kaXf/OP/JpyTd2CtwhZUVh7uSgRIhpokHmd94eL1941kenz3QyOHWN4MgZgzJEnqxZS2Nj703EjK0/KIrK9vFhE6K6JqwSYV0IF45TbKMw6vxt2SER0KGQHxSUKeHT2nQ51ItFIm2hlkCf3u4tvvh0GRbwMPvjCipUHhDAgvA3YQRgMPP1PdB+Tpj1ffefXLduvb2UgjyGOIYS2KC+fees/IIjw5CYGBR2CPJnEg29o02cLnlgcy5dEEDeQv/Z3JldGX6oPSE1fkkR+VtzLqt5fVbx/Sb3+nfvtFuPGtP4767Se/2F+//YO/kIfxyeq3b9rWII8hnsekJ7/4/T+adyme9Wcv37JVJ5voOfUZ2jlks70kZHko5CMEcv1yi8g+Xad2gKxpY+evfUNt8PPwWPr5pSbhGGP4ndj562oXT7/6xMIQ2WSe9BBvFdGbhUJQSFejk8ZFdhI6gRUvTMZF3sfbYWsgJdEH6GF0AR7U6AP0NCtk0G9MQNhEo/qLkccav/CmhRjtOHVW/feMeUdnqV7Z/AThSt8eHngQfvXT/2Dj4Qd/+u9Mz6NHd9vLgDAmoy9F4lt4kY1oMrSVSdECxgXp1jkmuNTXm8baQq/k0qFJylfozHgchhDQ//beyaG+84cuRocRxgTvdZss0e8c81tEQgdrG0yOVaatQCob4XlFjgkCariRAjsm5fViOgLHEQF1srz7mQ0m+VVyK8+tg/zu86uOIALIPc9i6X3VkyNw/BDI/b6xfwK5ECRSfSeh+LyNTYrNK2MCIw1DMHsqVCHvls/O3CFc5+bmw5SWzOKti9Ga1OZAlVWVIrgIuyCDd0megiJwE9UJEUB18o5VvE8RkoSHWNK5Rd23KiOJxL1N2hiwoVHxOxU3sVr3xAnDhHtmZ2ZlSM6HRfIViUZeSWIUNzbY+LSwgBee8hMWtYoPDfm7qnK8fD4Ynj1+FgZfDoWRoRErz4vnL8OTR08UB7lZ19aJYJ4K/PZcHshDg8PysJ2TYVsTOrs6wzN5LbfJk6/2VELeOPktwY/L/qafGNMYXXhkYfzzibxZGt0oD8NKYQAWLO2HHMMjl4QHWq28hiCIIB8w5vFkhACODPfGUCWjskZ/ybqmUA9prHtrRTJBWmNwNolU5ll4G0MsYyxCVCUlH8gKSADCQkDw8XzIerxBB+WNSJnwKuTNAYICkrqr/4I8neWBJg+1yOtxTUSUNj9LXYvRC5lFaA3iuJJ4DimOE5tJouERx3PmZ0SkiWQYGvjKjFXyxIsTkpF4sHjcUfclER2EyQBHyDmwgEiGtIZAg+SD/CD2Y+zVbAU4Yv9Qb7DE24s2b5sV5TsAF6EusYcknmuQWGxQSLgDygc5yWTHi8d3jLwivAIyzpRlerHMU1ekAxMfDQqbYnFeZ5JWT7zbJpeJIyyvNnkkMjkBAQXpEiegoI8szk1Z+8BzHu9FyDPaRqkSEzv0CTw08b6EGOM36jWi9oknZrf6BaQb/Xxc5M+Tux/bhBGxYIkFzeQH99Rq+X7sdR3HGqXt4wnKeUIS4DWPRzp44GXNX6M8OSEBaedMJvEcPAHp75Xqm5DyeClTTosjrbxIcb+lfFG/fVy8fqvVEpBMcb/Fc7oc+22h7Y5+DulPu2GS7fnjL4zcq9a4zwqMFk0AIifaPrquRbIzMm+Xt3HGEyYF8WSlbZC4ntA9hBlg4oEY8ivSu4QBYszByzlRU2OTiEyy2Tm1I/rfJuEydEzbmZYOXRZ5yGQIkzSMJUxSpB5iH2vKl1jd6Hp0AGMWExvx5BIXQUKuzUSTQrQH+sasPF0pFwM9zy/3JJGY/mLsffbVpyYjQgGBx6vE7ore9KbGQfYCAFdCTDVrHCcGPW2EfLMle+vTP4zvr9SeGO8hfxmnGYOtHUqnWKxstUUmGAgXxYRAhcZS2hTvALW1jWono5LvI7WHIWur6D0SkwWsiEIXMjFxVhNercnebMXx3xyBEiFgLb9Ez/LHOAKOQG4EbBDKfcmOswyUuwxqO67Tl3iQy/zdvx8BBAqROzLPs8gu8zyB8stKg4A1yKyP2mY8s54+2B+bRbbeuHnNQlg0tzTlyLzQjplfz1xaXBbROhQePHoUnjwUkagQB909XSImamQgLIuQnQ7DgyP2O8Rw/9nT4eatG6FeG9IRj/jl85fhqUhdriN1dnWEazfeChcuXQinz5wW4dFsv2PcYqhOTU5ZCIpHDx6FFwMK5aBnNDY1BsJLcA9G9LMnz2S8zBqJ3dvXG979+rtmcH3y4Sfhs08+DzN6Fvmtr62HUXka/+aXv7WwFafP9AXI5zuffREeK/8FeSITImRcIUIe3n8o8rMuVKy/Cq3fVdgEGWKlTBC4bLjE8lWIXTwE8dyBMJoceW6hLCCRMMbxQGS5PomlpRBLGGwYgQLISFNI4VOK90sM2brGJiOSIFOXl+a0EU69xS1GOePRBuEsc9I+xRREpHJrp+KbXhMJOxLGRwb0pArFGv4ri28IkTnwQHFoZTAS/xhPVJbmQ8TyHRIQObERE+Vv1pJWiImO3rPySLwRPv7n/2Rk33nFWmX5/apkwAQBRBoxGMkrJj3iEBbkR8zHUZELxMB9KmObJb8Yy5/96qeS5UzA8G7vPhMu3vxmqNaz8bDDuL71wZ/o99NqF2Ph+QOFLZHhjXfdu/JsvqL4nWDJ83jGkUkqC3i2S37vfvfPrH1D1LJJUezddRhljT0kIYuZQAAzYukSh5fl7hBGxMykXX7jB39p5CXl3IEtL4IZWBOWAyKxDpKYyQIRnbwIQk4MPv1SfaMzXLrxTSO66B9xQv62qkCE1/jgU/PSxHOWiYk4nEV8bTE/6Qt4ZuLhPvLiobVVCDDaLOFiKhMjisX9t+HpvU+t7nMpcgbPacK3QMq9UDxkSGFCR/Scuaz4sBeNcKPcbExpMYrV977+/X9t7ZlPwsbQr8zLT+2F8DToCYhIPD5bO0Q+ank6BB5lXBDRzu+ZKVu/ZSn6dr+9qX77N2n9tisKd6D2SLxcyETzOE+RlUzYQHzG/RZSEIJsZ7/9iZHJZdVvM4HN8zvkMbr2hfQTnsdsTBZ5pp8zYpDxjEkxCOVT56/q763cBhWqTKQuE4TInvv50z8WLgKZ0X4YMyycj/oLunIhtQIFHQOJCZHI5AaEJW2V8BcQvcn6eot/3amJDCYBMvsz3ykCE3oQkxU8Wv021uuZsNhEo55BGCX6/0lOgkqjMf/unehz9FNWIfRKZ7CiCP24oXepbAm1C9nPhAGTqOjPxtZ2yemVfWfVCzIn1Aj6Bn1FXG9b3aM+PKF3EbyfmZRignZCq5+YkEXnVGkydl4roiClKQN9nslb3kVatY/CromGYq1l1yv8hCOwfwToStbG9p+F3+kIOAKHiYA6cN59mJeN/MbP7TzzzvwwQThhzy5Q5rwz5Sn2195XTxiyXt0iIkAbzKFOSkogV8mQq5OXba1ezjk+mJR/x2QzH0jd5/LOvS1yFu/giEBOGrkbEcjDRiA3ikAeeqm4iSKd6+VhjBfwCyOQn6YRyJ1hRnks6po6eQTXiYAgbh+ex8Qvhsj95MNPw5d37olAfmHPaBKB3H2qJ4yNjBlh8uzxgOUBwXb56qXQLyIaiT1++Fhk9VMjiWODmfI++OqhkdN4Wq0q1uPAs+dGei8vL8sLSvEmdQ3eyJSnp6MzvP/uuwcDcwG5QHbhLQixWSWS4JU8dDG88dLCqMNzC6MNUgajDEKUxPWQURhshGWIPImWbAA1QlnX1IiQ5ToSBjxet3ioWcxjkQETClHB79MioTEOCZGAl1uHnpOQgVrfEG3sdercVVtKjecpHmwR2Zs04gjCAaMX3Mkb0qJbm/JABsTk8oZ+I54qhAPERr88mptaumSUEq+6xurVIWKjVtfZUlzlg4wj4nve6meVyPIPXqiQHHjK4YVJHSG6K6sUvkK4gC/XUEbKAzGN5xzEGb/HnpxZsj6Qn+KQH3heg5F5eqlvGTkjGdN+kT+44bXFMXoIuSQVAxgihmPuxRuc+1hODqFLXclvWaSreZ4KM8gg4jojS/CISWeejwcoMsTblDZibUL4WwxN0zEVhj9tADnwTDxpIbAgEngGnoKDT78yovaswmpAdi1fmTM5Dj17YPkyIQSxQGxVUquIDuoHqbhNKKOLiL8tT/chxTZW2RYUjmVeKx7AzOqrMuMRCamBHFdUhjgRsxuyDaKWsC94WEZetwpJIm+5Uqa4/VNv2hze0JA06G0mSYjpTB2oL/3VPP8lUyaO6J+sMoi8By2nHUUndrmFZVGbwbMPWcWTSLQd+i2YQhBD7MwoPrJNFCn/5cV+a0Ngg3cgG1/GCXzjv7jf9qT1W4gmZLaz315X31e/1QROer/lunLrtzFO+X6a5CT/5RWFoRDxVq8JkWyJPsmECf0UHYT+wRN0UeFb6Gu0h1Pnrog87rYJBsIFoG/pk5xjjMgriSCkXUDuqZlYXiMKl8Dz2jRhhy4272G1g3WNMzybOM60VdoYExHoGdrroO6jr7GyBNLZPOc1fkA+Zk16Lu2jQfrMvJDVH9BV20n3pW5lbEanURYmQ1VUJc5n5h2F1NiRR+rq7d8O/ghdhG5CRvQ/Jl0pGWMTk1XIkkkcJk1J6FVWwnAtYSKie9akFyI9j24AE2Qfj9N2445/pOul6whdg36E0Ad3i1tOv9W16EMmayCO+aO/Tg0PRoSuzqGHohRN0JsHsXQAqzlY1RGPNdRP4O94erYv0RWa3KTexKhW3RlPuR9Z29gqDJgUI2QUE8jLiwum87Llt+O3VJ1M5sg9/ttxkb5YIfYua+Zt/t0RcAQcAUeg3BHQ2FDI8MA4E7+I7AWNjz17IXRI51MCz1vuvF/kWVSXeZ5A+WX5ILBtfedz9RteA7E6lYqBXNufDLUyOEqZIC+XFpfClLx6CQ0x+GIoPHv63Ig9DBpCU+AlDGkCmTw1oRARIn4xVAhDsbCwoNAXIkIVYoI0NzsfxscmRBDNh56e7tDa1hoa5K3MvRDHn370Wfji09sWjmJxEaNp00JncP6l8iUtyot4Td7FDBKEzJhXiIyESJpJPXtqctrIbLtQ/+AxPTk+EfDk7tNmeXgrzihO8vwcu8Nrea7yxwuZ8kyMyxNQzyEcxmElDEY8FofYGE/G+5I24sI4w1CLYkKe2mFUQwSw0dqCCDcMSeSAkQvhRjgBwghc0+ZHGLnbpF0Uw3hmcixFCEK0JkTCDRu51C7ZYYhiEGLwo2dpBxAMyzJkp7Qcf16EBsQmm+5gBItFMGIRz2meD8lJ2ciXcALL8iwbff7YlsSycRP1qU1qgyTdx5JtI5plHOO31tCyZMQK92KQsjwXUpDl0g0iPHrkodnR229GKm3w3Q/+NJwRiUn9xhQaYEyhAIZEbvJJI7nz2/9qBjMbT82qzhCtENNP7n1sBi4xOdu7+8wAL5bcIVLZzA+ikzYIecuyYOSEnCNv49Pm4X355rfMq7OiosrqSExSsMTor5YnN5tWTY/jsXrXiGCWqa+KQBwauG/EAZgxyXBJ+UD6s7Q5WVVvRCHe1wPycmQTQ4uFKzk1NLfor90IqqRkAo6QC8SdTuheCA7CSbxUaAqIJYhLCA1IRQgwSALIQzyROYfnOwQXRMeE2vLHP///JObN8J48vvsuXAvValO0L5IepT95zko2H8ozHWKGvCH3abuUAy96+gUxuiFKaY+QJSSIGdoP+EKY47XL5ApY0X5LlZiQ4NmQwuAAGUZiE0D6LyEshgcUf1sTL9QXr79eEbXIhnKyPBzckR19ql541giDzATZS1ugvlMi5mlHkNQRnnjpD5sXOO2KPoNsIJE65BnIs+hnkNRxivOjTdEvdvRblQtvRDyrWcrOBIL1WxFQ2/12zSaQ6LeNe/Rb4pmzwgJyyfqtPOuZfDjK/TbGKd/PVxpPkA+hcu589E/aIPJx1ltpJ6fPXdMk3TlbsWFykGxow9ff/6NI3ylUyZzI1Puf/UqymVfs4vc04caKDbyA8/PSpR0RTxgiG12Od/zHP/9Pahdr4aZi0/cr7nVLR7eFFBpTOIInX34U7n70c2uv9F/aC97vlO8L6VEmmwibAAG6MD8lwptxQATqLit2ILyJ4czqCerGypBsiZUw9HtWG0yrr6hR6DJTDjsuj/ya7cz27xiAdv32Twd9BHn8XLHMB59FehNSF50GDh0i4vEIv3jj/dCW7LP2DHnMZA4rEh7c/q31fe5hLGzXOIZePvfW10xX7aanqBZ95fHdj2yyBh1IjPOr731POhktyF+U6E/gx5j/23/4P+25WxM6uoTzTLCiV9sVW/rMxeuWT3x//MlkFzrdvJklO3T5l2oPjFVM7tKHz2nfANoGOm5s6JlNUjKucR+6l9UoxHZnU9WCUkqGWzXje1a56grAySfRjGhHnhwBR8ARcAQcgUwEso4xmRfF31NjT0H3xPf659FBgHeLfEvj7xv5IuXX7Y1ASQlkyM0xhVjAA7mvq3vv0h3wFRgqEK2QxHOzc2FyctI86hoVj7hDcYNbFcpiRV69xEeGfJ2T1/G4CFtiHROzuL6hLrS1t8m4UYxPeRATegICt6WlJYwMj4Sz02fM4ILk/fKLL+XlfNtCVHB9S5s2z5L3cb2Wy0JizeheyhARyBHJCzmNHuC6UwpnMazncy+exhATkNOnz/SHcxcVN7S3287xSV7ra2OGFqEr2jvbdV2fQmX0KL7f60u8DxjW3bMzw0jLlSEcRdjhjYXRDiF4+oI2GZNRByGFJxgJ7ybCBRgpI4MW4h4vJ0gMDH9IWMiHiDRKxanUfRFBHMXGhPzCk2ppAZJRjkgi98AOr1WMW0gjiCjIJcjOScVExAMZgxFDMvKiEnENqajz41rWynlICjyziNfK/eYZqfqsqvx6iIh9eabqgWwgBIGFV97y/Jx5cuE5CwHW2NZpdTcPNuGAUQyhyMZPYEG+7b1nzbCmbNQVjyfqT7nXNIEAmRN51Yl8FHmGxyeGdByrlrABGNcQAsVKYGdhH0Rsgw31ZQSLPf7wJEaGyDbCVJ7fqh+hHGJProtvf0MEZae1DeJSPhGxAInb2hmRFjPClnqSJ0QxckGW4EgbWpUXK0uOn977JLwUgQwRZBMOIiFnJxV7VG0ADzfi7+L92CVCtF4EEp7wyO7lk7simlbtGiN6RWjQjuibeJ5W10ShEig/hBP5QCSMDz5TfZdEJN00ErMJD2u1UxKTED1nLqpOM3btAvJTeQjVAVnSc5bN4URWGTZLRiDbjfE/eg7Ppy1C4vTrGZDO1LmUCWIIEr5eXoiUxzpSWgHGhAEEbYSVYq73ntPmg980MintMjUJvLMjz3v6YGai/ULqQaQTrgKiOEp4EkehLvBUZtPNOpFbPC/yxI48H61sO4gndPtCzn4LKY0eom0ib4hr5Evsceu3Ir2ZNMIDM+63tFN0Vma/hUSL+y2hN5DxUe63mfjn8x2MwYo+GMd4z7zP9LJwpx/RB/mOTqoQHp3CjRTHRGbygfyQO3oC73/0XHriHKsLOI94kbnFOxY5TIx8jplo4CTXooNeKPQR10EA03jmGUv0Z3JW2+McEzX05zhRXtolfxaeZXTQxoX4fOYnWNjkhPo0fYRnZ0uUG/2EnoTszJnoF/xZ4jjn1W90kvJDBs+KIB3QBpMvFWYGMnl9LdLfSwuaCFQfZOKUyTM8/PFCXlD/YwNZJutePLxjYxBjEnJeXdXkqnBg01nGnDbFpM5M6EvGA3T/ky8/tokh+lKsWzOvN72gSQXGxSGNp3i/MzHKGEhiwsFWNKmN0N6YiOUZmYn+zVjBZDTeych5RBN0jCWdp7SxoSaAmPxoaFaoDOW5LJkxMYDMbNWS+jThd9BFu7X9zGcW/r0QmasgdAg+dkvWforYiHZ7rv/uCDgCjoAjcIwQKGTsOUbV8qLmQKAQmfv7Rg4g/ZQQKCmBDBGKZy0EMseHnaKQGnXh3IVz4Xs/+G7o7JSX4cSEhY/45MPPLGwFhHN7R3u49bV3wsXLF0JPr8JPjI6Ff/y7n4VHDx7L+JKxK0MUr+axsXGrEiT5Y50jvjEEMYQu91+5diWcPa+wGEsr4fanX4QH9x7YNTPTM3ZfolqboTU1hQt6zo9k/LRoQ72//ZufGtHMpn795/rDX/zbPw/vKi9CbBAfGXKbGM2///Xv5Uk7b8TxzVs3wx/80ffCe+/eCl2K8XxYCeMTL55ol3s8DUXMyHsMcua0vIY65bGGAUs8X6wi27hM3psY/3gEcS2b7kGoQSSS8B7GgMQwjBOkAR6ekDnElsW4x6MVMifdIkZLWBgAAEAASURBVCcGKkYrRCak9qQIyHF59vI8CA/OEZcTIheSDy/Lh1/81gxfll0TcuO6PN0wRs1gxbJUuSGa733yCyM9IJAxqCGWWSYNiQn5xT14rGI485ctYZRTLiPJdQHEIcuy8bqrlvGMhyZGOmVsk+cXHp7Uj3bMMQSJEawy7LMRdtmeuZ/fIEiQJQQu3r/I4rxiWUPUUg6IYGLEjsgLsPVRr52HAGCTOvNalmwhDSEzwBpsiTcMsQsh0ClvxUvygFtVWJaBh7cNk6ciHrDkWWpOGJOJ0Rcm48d3P7Q2hCdZg8h0nsGGV3gYIwe8BZvb8TBjM0aFiJCsJxWugNAUEId4oe2WqBckPwmypEZ9DTlSvyl5TTcOdZh8Y+9a4mXf/NaPQ5/qSszMieEXRlZCQF7/xg8CMVYhvrgfOUFa4vUWJ0iKTnnUQd5efe+7oU9xuzkudYrbDp/xcXoZKm1ShxUPhKPRhpYqN30rvU/G18f3x5/x73zSfWjPEcE0sRUeBLlAIs2IVMbznv6AxzEygKjCS3199Wwqg+0cD6LfQjhCWtnkA/1WOqhPk13l0G+3kSrsCP3b3XdBfeVy1huRB5s9ch26iBATtimiEawV0uuaILr3kU2uMREDGd97+rJtYBbp9Z2MGJNmc+ho/dFI8IyFBKwRoYl+oZ/QD2lv737wZ6YjnstDlImBaPVBp9rmuulDPJ3pw+flHc7GeukJHcYEAuMO8XD3SkxufvXJvygueo0Rq0xUZkvoMHQPExEzU6PC5vDG4PTyxZ7EjMcDir2PLsTDtlWTmHh0o3+J+c7qEiZEwJnxG336+a//LgrzI71FO+A8fRS9DTkMIU3/ow3sSJLfglZ8PH/0hZ75uY0LjNeXFa//giYRkSNySx+n4/tt5YdNkDaGb/7w32pS7ZqdIj69vStIdjMT3FtgUpmQEZMaEYG+YjqG1VLoGs4RfsRWQ2yR+wU+oyiXp4jh1EdRHuGZOgKOgCPgCDgCjsAJR8DfN054A9iz+tktoD1v298FkKB4+9aKAEukvPb2l9PB3FWtzd7YLI8N8G6+e9M2zRvRRnV4Oj74SptIKZYwZAbex1ffvhq+9v67ofdUb3imjfTu3L6rGMnDFtZiY53QGPJYlUdxjfIkzjIxkGNimGdcu/5W+Ma3v2EE8uLCkj2D5f/jIp3j6zBYamqqQ1tbW6i8XGkb4jU0ROEaKFNLS3O48tblcP2d6wbAuLyNZ2bmLOZxrWJLEwe5ubk5sBnfZV13Xp7KDTICS51iIhTvMgx0SFGIA8gY87aSUQbZiZfu0Nh9W2JMFETIxQl5ebJcdlGkAeQC3kKQT5BV5kGlOJWR91McD5FwhwpRITIBUg6iAWMY4xePYwjnOEE+tXb1hsrJKiOIIQRY0g5phKcnBCAEBc+LvZcgwZELHnj8htchS5wxfF+duSRSq0pGaLSpIvWtkvypI16seJ5SJj7ZIIhyWYzOVIGoE0Q5ZCpewzyD5fUQE3hGYWizoRdenNzLsxeFDXXr6NFmY+CZloxAprwqE2UoVoqNb5YZY3AjV0KSnBWJCzZT8uSbmx4zggLvYoh9iAiIfzxyifW7LjkiTzAwL2PVbU0ee9SBuLWnRbbjCQc+Q8/um9cbXmFgBeGIsY83NvdCskPysSyZ0AQQjYPySITAwTOb6ykzcobsn50aUbnnjOjaFAmyW6LPVUqOcQL3NoUHQVa0a8gSnomsSLQb2iHl7Oo9J10A2aU4n5IhnpjEVoZY4s/atdoVshVLZo6HkKlGdIugJ1QDBBke+KVKxKYGb9ohbS0i915/+oRIbwgcsOSeWrXTMYU3ANNsibbPpBFEczrpRhOlT9FHiIkb1xS5M6kAFhZCBo9+9UvaGf2UayF4uTe9nRet30qPRHKKandc+2022ez1G7oPArfr9HnFeb+ulvp6YuNR9CEe+PQ9vH1rqxpNN7CSYESTNXieMqGHtzr9u039Bv0G0dsgAjo9sSKFtkT70/Brz0d/dJ46YxOK9dIx6HnzSE2FDWHsoO/RZ+PERAcTHOhwVqYkVY/0xNieZNPUDPmmX5N+HHnMyytaCVw2E9l1B/047ufcc1QS+hYdSNnMo1uE+mlCcmhygPokniTDozvaNFT4T2kvAbyQGUPp65DKEMxXb31XYR/eMxKZcZjz6OHVpcjLmD4bJ7zIWVlAf3l850Otyniq8TFhE6JsrokXsBHOUgRx34/v5ZNxDN2Afj998YYI56/b6WgMbpUuUTgpeU3vlZBBNM6sWP3Rb1qCYpONtDHqQDuFKCcWOjoKr2bacXq/R09Hf3s98TDPU8ZsaB5mmfzZjoAj4Ag4Ao6AI1BeCPj7RnnJs7DalJRAJnbvjZvXzAO5uWWnMVdYsQ/m6hp5zXXIOxiv4s6uDvPWxcuQDfPSQz9A4p67eDZcunLJwkgQMqKzs8PCUhCXGEM0jj/MpnoQyRbXOFVMSPOLly/aJnmQ0bV1deGt61e14d1MuKdQF+WWIOwgDvHwuv3bvxfRNG5xcPHEemHLZhWbWeRjFFdRXpiDTw0CPDPx3MQrCMMRL2BISog7YmVCLrIRHwQeRl+cIJwgEOanJ42UhsQdVT4sSSXsRJwgLDpFvL7aeGVkBt5hLKuFIIGANO9WkQ2Qe5DJeCVj5EKc3Pv4X4zQwuCFEG2RFxakrm3eJ09a0rDi9n7yi/9shOWVWx/IyL4q8lDEiuIec615IrdFS6hpM9QF72eIZ7yL8dT77Fc/NWP21gd/Yp561BMjFiwg9yAB+K1Z+bRmLBcGM/4gAyDTip14FoRql4hRPP3OyJsN0hN8kBt4QCDYbvf6vlfC2/wtxcR8693vGTluntgiY6j/lx//3JaqQ1AQuxhSg/PE34RcOiciCTKXtoHMp4Tl6Munhkf8XMgCvN0WZol7qo0HtaEikxi7EaXxffEnkyA9/Zcl32XFpb5vXMKFaxGpwTV49D347JdGwDQqvuumZIyc479oAiQK70FIF7y3mXyK2miFTbSwFN8mQ9TmSeeEKTiXIkEsgSlehYQGiTcM5NnWmlJtin46+OSekXyQ5ZMimyx+aIqgo77piXYKTniW06fiBEnORAvL3vHSBh8SxDR6YmF2wtpTrQgdSEdWF0Qek6eMPIKQTG/nxeq36AfKRyqHfmsVyeOfiqooBAD9uevUedOR2W4z8lE6ib4P+QZGEHYQjsScfXj7N/JA/sQIX8jHTuXFWEC+eHbTZ9MTsW9pC8naKIY53sznRR5CPjNxgJzRgTynVWEtKqves3yYbCHkAMQlRDaezHj5Q3Qy4QQRmZ4Yp/CO5ZMGnqlP06/lOIpLLvJb7dUm6zSpkS3Rj9ApoxrXHnz+m2yXHM5vNmOjmPAa225oJQ3yYpUDckCn1WtVBcfIjrF7WoQq8oQghnSFsL94/f1w9d0PdB1yU7x4kfn0/VFNxCKbdAKfe9AjEPhP731q529864+Vxze0Ke1FI4/xWC92oj6MGdSJUEcQ2c++YiK41WIgo4N4B5lUPdE9bJDarrHExt60CQnKaRSy2l263il2+QvK3+25guDyix0BR8ARcAQcAUdgHwj4+8Y+QCufW0pKIEchIxSXVGRaKQyHvcRUlahS+Ad5TxGbWGEgiDFMapIXb7U8ZeLEZl94BROKIiGDqk7evtwHyUw96EOQRYSzYLM8/vB8xZjCy5n8Iag7RDqbl5wMua7uTv3WKaNq28Mxft5x/8Sw50+VNeIU7zQ8jiCn8CblE5IYQg5CtlEehbohimvIslJtoreWXLZzkL4tCh1BatdSW+4B13QDzuIXKk8MRcgsPJPYVA8SIp18w5Bl6e2SrsUjjnATkBxdfYS26LAQFXgpYzRX1RFPs8GMbWRM3FfIXryiIHLxjMQrEs9pPJVI3AdxAaHCH/dxPQQopMKKiIqE7iM2JiTHrLx0ie/4XGEa8KoCM/Me1iceeBBkUXzYIRm9z8y43VCdIN6IJUqekCO0P55tmz/pXp6L12exE4Z3c2uXGduQPBjellQGNmEjhvFLEaKwM9QZrLIlZAmGdSJ0CTkBCcR3CAnkRexhZLkiQgiPRSYTJrXknHidxKRmSTWkDsQIifbVpfAokCJGfKYeivcduEFsQCAjc0Iv7EUgIxfaFhMTTDKQx6Pbv7OyQEiQL2QMS+4H5W0JwXrmSkT8s9Hh4tysCP/bJj+uJUTCoOJHQ67jmcu95mksHGjbTErgGU9br1M5wQeiFryLmagneoswIMSVjULARE+kDObJJ0IfkgUPxQXbQHLc+jLtkFiilZXqC7o2PdEWkQUYml5IncTv0NotMcIhC0UAgo/Fv1V+lAV8qDfhB2hjEE+EmkHG9IN0PXCw/TbyPqSPQTCaJ3Rav4VkJ2zCcey36bLJdYx88PJmzIPoBfd8Ev2JtkGIGzZQBSvwoy0ziUZe6HUmTtIn+OK8aWcNTR2SsfYEUFti/GhTbPTMEBRcj55uon9qdQOTS3zSD5GbeQJrco8JRmJj017S05ri99oEoNoakza7JXQ6q0jM61ljAuMIYXQSRiDHOm3bi7ZSzyZBuFI/xhF08mEnSsi4VK2VEYT1YAKTyT0me2njkZzmbUxBXxPLfW6q1to4fRdymQnVLnksUx8wpo7UL6ExF93FZG+cGOMJXcEz2eQU3U4YKD5pA7kwtzwEra12QYaSHyuZSNYX1f+RXzzpZCcy/rEVL7qO+yCIieHM5qX0WfRRXeMrI4kpf63wSEivLWoFC88El87xc7ayhvGelRbmjay25skRcAQcAUfAEXAEHAFHwBE4qQhss6QlQGBZG8JNjUcxkGv7k6G2yITIXlWKDWQjJHUxxmr0t/NO6BCLiSci0AgLCBK7dud10TJ5DNY1M0LiEBnNCj1Row36tvMXsSqjFCPM8tuZzbH/BmmLNxc71kPssaEQ5BteixjxGKfETWRJ/1V56kJSQCzhrQRxhjcxv7W094S3FTv2zOV3DBPyZRk7RqsRrWlIGcn3ivjIIlSNCIsIhHTCiuXKxBOGNGYzLYxaCEkIPDziiOOZi6SD2Ii82V6YVx3hEtLzh3AjBAVEBjGQMZ7xuMT7mPYCwXnuyrtGRFAGdrV/qljBQyITqTME2df/8C+NfCVvSMrRwcfmbQsRSexhCJh5kXszk4RXCUbSUgbIDYz78299TXjdlFHfmIZOcQ7BDU88vNHSyQCIvGgzwyqTM7GHISUpsPU5+k9aMlJDZAzEDPhHS4d1JeSVnoGsITDWVX9kgPc6cTwhMvFAhnimLHEij+a2bhG5k1ukA+dsSTWe6sKPzfrYgBAvs70Sz4a0pvy0E+6DVJib1iSAvMchysEBuc/La5b8rc60gYdfGBlLLN/6xiblwwTJlIXAsNArKmdS7RoMIGho6xAchEVhYgHdBHb96kvVap/FTBAk4EFd8BKF1I0TIqOvQDpBzKHrCKdCPFLCBND+8ACHQKqs2okp8YsJOxAR5dshBuK8408j+CUfViFQdzyg8S6HuMQLeL9pP/3WSDH6rVKLJkbwcKeO1m8VG/3pV58c2367XxzzvQ+yFt2KHPH6xMufzULbtVohnWDMN7+9rqNvjo8M2AoU2i/tiElCCF7Gn4QmBfsvvq3Jrp0E+LImapgMmpsc16qBaP+CbM8iT0hs+jp6B3LR2rL6S+STyl28E6Tulp6A2EQfMMnIOMbnYScmaCg3G98xecokVrSSQ6Fn1MEZp5nURJ8zzjGBA0boOgh/9BP1iN9b0PNRv1fcdukMxqH0CVsmQZkw5h3HwjR1E0KCsETRZot74SEUbcyDKCbExIS8yEnLIqbph6xgopy7JSYOCMfBmPzZr35iGwDaxLVI/XNvvWuhOFjVgH5h0uGxNnJdWf73NmHJuAxWEN5MVkGWE9tbVbR68sxyfHfbDUv//ZgiQIPdK5neipXXXhf7eUfAEXAEHAFHwBE46QiUlEBeEXnCBnN4IPd1FZcMyVewZgTAjvCntEVwpb9P6RzXpRsM21dvP4nzED5V+ku/FsNqXUvVMcgizx0tEVXMwOUldhHfjtG7ndM+j7beFTnY+rLPzPZ/GwRgvTx6iFeKkQk5itGNsW6ePPJWIjYtxFxbX595zq6pbRA714gbkc2QgHhvYXyz9N2IReWVLZmHmMJEQMJh8PFMyEK8qhArMXchrYl3S7nwvgJ3jE+eh/GL0VyrPNLllvmsCFF5acrLDW9YjNF0AhlDE/KCJdkYzEuqwytkrvrQsngW56kLGxphjUKuYHRjrFKO/kvXQ++ZK2FEJBWerJYPXlEyYOOQGrXCZV33Q6DimQzxd+r8VSP8Ypxy1SOzXvv9znMhd7fJlCgna30iGDG6IT85D947ulTqofyG3CBpKHtC+dGHSNYXdRxN8GwacYk9FHmWscmWDHvypW+m5R4ToeS5FXNasmcZsy3H1rJ1NvWD2AT/vRJ1mBobNvIjKVKVMkOuQoYQ6xkyg7LTnrmWdscxifZHG0F+hFSBHCZcCZjQDiGm+DSiXDjgZd8gogYvaVY+QNaSp+VH5S1FMZNTX/TB7+nobp8p5AicwYx22K2Yt3HYBvIgd9qixbYWkUaZ6+UdTLk5pg8SV5UwA3W6Pz3heUqeCfWDLXmkXUCfgHRkAgbCCeKR+kLsRM9RvPQ38KiPUCus3/J8ZEQqt36bBn1xDgX4q82ITOxCd6uPoctoAzGmB/Vg+taS4uBCiDLJhv6nDaNvIr2iFU/S60yKNLDSJS1VLSTVV+WdLF1eOSeds9W/ootoAzZhot9b23s1WTJvm+LRXtE3GwrhwBjAdehwyPF4/CIHfl+vW1W9W6wspgOlM0uhm9OquXVoE1zENxYRayEbFOYHgp8xmb5LH4Mgpp8yeUcy3WpEeZSNlR2lxp/0Dt8ZA9ADjK/xfVyNHKJJOq3O0BiGjmCMt3A3DQohJL2QPQldkd2sZqDtLErPjo8ObF26siJdIUJ5aX7OcGViGFm/liQ39CfqEb3De8m2fruokCzXQq82fmUcoB0saOUT+oYU6fZx86CPVx80NEeTAEyebdVdzz0seVpB/R9HIBcC1k9zXZA6l6H7dr1j6zVj62DXS/2EI+AIOAKOgCPgCJQnAtkZuSLVdXVlNUxORB7IHJdbghwmXjLhLSDC1iD5FA95emo6zM/NGWHMZnfUnc3z+INUP8hEmICIMDnIXAvLC+MaMgpDm2XMz+TN81C7u48PP7PfIIYgF/EkxaiG4IVgwHMTwxQjHI9DDFM8lTEWjYzWcuVsCcO3teOUjNW2cOnmt8yYrVEexMFdgagX0UgMYQgMwjzgwcwGdHhJQ+ARloDf9jIEzViWwVjXBAndZGVPf++eUP3whqPeeF9DfON5SVgMEjE4O3qjOLDE++3WJnxXFe/36f1Pw69/8h9k3CZlMEcea5QVAg+vJ7xpyZMl3Fe0ez0hP+ZFghJHF2MW8vLbP/5rxSH+WlRHGcG7G+fZENzfb+bZuSb52YZ425tF4X2LVy7kBB7nhKKA1EfmxkRmPk62CO3FyMUsBk/0k1qVDjBb+ISIspAHIoVZhm55p/KlTTFhYJMGOqZDgBPLoCGQmbxg4y5CbtDG9krUg0355lJtaGlxVt62p410gPQce/E46/L+2KOYup29fMsIjCFNDMxqIsW8E4ULXu8QXCTIMEJqNNCO5RnHRAFkeL3aKt7Z+mLXRShkQJneEO2qXf6xLKJ8Mq+A/IG0pm9AiOHxnp5mJkZt+TgkU1ffeeuT5n2ue6gPBDnhZnr6L6TfJtlrQkh1xRM/nWDiIrQVJByE1otHd20TL6py6eY3zeORySdkCw77Tfvpt1HIkIgwot9CjDOBg+7qod8qVjdeir/+yf9x7PrtfnHM9z50KcQxm0cS8xjv+/uf/tLaCH3hoBL9hT90zfMHX0jfzFq7REbr0pebm4QNUjgpfeLBGhF/209nIicKMaMwNBqrM8dNyGPimjMZ2ar+nqC/To2aPuEZTKi8eHLH9Axe6uiE7r6L6q/RBArjFisQ6EtRiCti90tvVeytc7ZLeXBHkLh44z578Jk8j18YWXr9/R9auB9WtrAxaBRrftrKHE1ytVj/RJeCL/0czEkQ5EzKMXZHE5kKzaWQQnFilcfXvv8XGpPa7LnIaeDh56a4GMsY1+ibmcn0u8aNpPBmfGbj1ZGBR9LdQ3aprYSQfNEnyIHxEL2ZmRgXY1KflQxDismPlzETxxDbUczmaHULk3TxRB39vPv0JdM/z776zCbA0VHxZqk8nzGP8Qq9xtjmyREoPgLqd693l4N5bJZ+uHvGKkdKB+x+TeqMlbdYhd7z6X6BI+AIOAKOgCPgCBSMwN7vGyV9800orjAbytXKMyUhb5DjkGJjKVdZeT3iz0JWKFxFa1uLkcjEWMYwnRifCF99eV8Gi5bWK77ynMjke3e/Cg8fPBKxvPB61soMIyoyrog9ypJYLRlfWLQN/oYHh2WcN8swjkg7u1a5QLRwzfTklK4bDae6e0J9V415fL/+kOL9gicSJCJxVNlIbUTLmVk2CzHMRkR4/FSoTiwxjYzQBYtNCFkE4UqMRIheCDiWsY++bNG99WYMUlfwiJelY9DyLL7zO8YhXr+QhXgUYdxiGGKwVuFdudhqYQYiUkp5CUOMQYgGjGQ8lDJJRctXZJrlrWdAzjaoHhAD6QmDlGXBkMgY0ni5soleHAoAgzZaBozXq7y3ZCTH3nKfN/9UMsZDXcuChVO1jGLINby1WF5L2AOex8Y/5IHHVL1CNxC2AiOaHerPXrmV1SBPL+NBHoM9pELDVJsZ+ZDcJAjXScXVBHvKDFaQ48g6WzLzYqu9Z7ti528QG3iSMylAHGRIYdoMRB/9BC9fyBAIHGSJ5/+KyE0mEpCxQDKSlBjIECB7Jdou7TAiodbNK444oORnJJS8kCGsMlNCkwG0dYjgHnm64b3MxAgTKeOaWIEIZpIAD7rlpTnLo1Ibl9XXN4cuxfqF/GBDsTUjwTKwUx2oR5Q4znx6ju9qwzuSvnM7hAhef8R35S/OP/aox7N6ckxeiyJTCD/DJArlB4dnii+KRzzkPEwcnnxsdhbpsB1P2/pCf1okVq7aCkQbIV1o14Q7OK1NLcmDNoUeyZXPVoYZB2/Ub9U2aiQXUs5+q6Xxx63fZsB04F8jz9N2mwihr0IaP1f7IORA3KYO4qG0n8hzXSEopGvQ5dYmRQ7S99EFhF+I2tm0lSP9uegE2nI8kZl+jmPaMpusmo6TDmNMgkikPkz82OoAI5n1bPUhulWzNvXDCxrdyCoRJlsgounHkMdMWpVici+zLlYf+q/6Gl7AlA+C99xb79kmsZStRiGm2BsA/UknxquYkFGEomDiB8KcCTOwBmf6JnkR1oON6dBvEOlxYiwnnBKTLxy/eHRHk553w/PKL2yyEwKZfDITfZ1nN0iOpxV6pFb3Zkt1mnjDM7yj58xWX+Xe6E/6TGNp9M6h/StEIDMpxIa+jBnoVia2uDYKRzRucuZ6Jn7PXb1lYwRyYxIbXcb1vDcwqQABj8MAm3sy4ebJESg6AgzbW2N+0Z+W4wFv+L6xW85b7zBbB7td6b87Ao6AI+AIOAKOQLEQyON9o6QsbnNzU7hx85oRms0trxsOxcKhJPnqxY44x+3tbSKF52XYaMmsNuVbWFA8yJGx8LO//+dw/8sHoVOb5xG64uFXD8PLF4NhSmRvZsKowTiBTOJ9EeOUDfrGxybCpx99ZqTY28LRNvrTea7jwpWUZ/OTR0/D7c9uhzoZPa21jaFZy0VLmTDYMboxVtm4huX41+Sxh+FMHEk8eCpErq9DIIs0hYDCMwqjDGMQ4pV4sRhrkG0sFcZLuKm1y6oBWYxxjncxZCUG4fT4iMU1Zpkx11t8Rz1/QbFkCYPBs/Ekw2NoQgYvhiGbmOGBxvJdPKUhmZuaRRxV7SSGKWMcEoPQE5AiLYqFm2k4sukQ5C5LZSEOCUfQ3CaCMLVUl2W23Bt7YUIgcgwhgcxfS5ASIkHwHBt+8dDifEIqY3RTdohzntGrOMA8N2ser2V6cD9AKOB5RoKwWZSRTl0sFIEmDiZFLkACtouoAHeImoNIkDIQFRAZxPDEO7dXG+/hdQ6RO6EysXnf+OAzIyMhSxbmJqxNUg6I/jh0BOToXsmIIrVV2jXkGIQ9bQViYUiky5an82sZIS1kuGGbe0FOnLl8w7zlBhWqgTYFQQLBvr6u0CcZJLTFQX70uT2T+Nl4dB5IymxrfE/9WSvMOI+c2ezx2b2Pw5cf/UL6aDPc+uBP5FX9jkieTuGsc/c/t35FHHPa4Wl54NMHSLu1SzzHkRHxyAe0IR3pxjd/aPGe2RiRMDFMNKL/jJW2K/L/5436rfo38iKVW7/NH8H9XYlOo5+QWCVg8s+i3vaX+/Zd6BN0OZM76FVCpdDmCFdhz1e7YVM92g+TiBDG6YkJESOYNc7QpjPTvIjUR3d+bx7OxMCmXnjKUx9izDOunL5wXXHqn4QvfvdfTRdCiq7rmfPSTUxsEYMX/UAfYiLkyrsfHBqBbES6xkuIX+LGU34IYshjNo9Dl1KXWa00QMeZrhNRDgHOhp6Q7RDq6CK88Fc1/uKFT7xrYqG3aiwCzzgxDjJh1tF7Rp8K/SP82BeAMQMymVU2jPWZyUKP6N2lXZ7c12t/qEm+nXKLr2eyFV3OBO1uRDTvUbQN9Aflid6paJNqm6mMrB1po9YFxa9vE/nf0NwS3nrvuxo7TtuEASuoeJ+p1P3obOr7xe/+wSaWvvnD//a194C4fP7pCDgCQoDOlndirPfkCDgCjoAj4Ag4AkcZgZISyLzM1ymEAzGQOT7aqZCXnsgYgeyoq68LXV2d4fLVS4qXqCWbT5+bl/EjeRuPDGmjNBHMGDOT45MW3gJiODPZ0sgaeVnW1wc24GuQ1zak8/T0dLj7xZcy5mpDd29X6O7pMjwbm9jdvs4MWzyaB0VM3739ZWiTR+b1S1dD2HYKynxUUb9jgELUNejvwrWvh2p5/byQAQnxViUyFWMMInRBRjaxTyGSuQ7vRrw2IQZGnj+WwfbUYlxCHELIYoiad7GWE89OjZjHFBvtYHjOazMkjFgMWltmKjOR6zHqZ2XUY8RDOENssgwfEgGCkBiakMyEnmA5LEvmIfTwmoNchqy0mMMim2tqI89SiArKhLcUz8AYh8BYWa63JbIsZeaamIjKBraRYxAdIhkpB4RjnIwolQHPRlBxPfHU5LqoDk3mdYwHK/lAEOBx+ybL/eNn5/MZxfWNwkI8/vIjI/MhkJkIGFFYB+TQI8/gU/K+hUjAY3g70b/iv+1f8zmCKOqV59eqCEgIHdrQE21qBgGCt/Gono03O96sEEMRgSnSh/tENCMPlj3jWYrHbUww6cCIAsgCvMMpnXk0awIEzzXbmEuybmxtN+9vPJ431EYgpZFVCIqHuqnJHv0GIcMECB56eLu1yFOuWkR3s/oC/RtCiVjOtHNCr0BeGE2q+1lyD2mzIs8/6kbe9JVSJdoiEyUQN2AxhYewwqW8FFlOG4NAwuObiQv6EfqsWx7T45IFnt+V9z+z1QVMBsVEPZ7oEDiZifbOUnTkgVf5eXlE0i+R26z6N8vW8YhEZtyPLOO2TogN6z8ZBipYHUi/ldx2S/bcY9pvwTYOA4A8meBIT/QhMITAZ/IFfYNuhkDMlegzkHp4fkZ6iB6klCGf6Mcc/6ojUEaeW5HjPcFCG4jQnBp7aXq2QxNY0cqQWpvIogxJyZCVJ80iS1lxkJ6IfawHWRsi3EWcaP8WY17jBPG4IRjPXHknVGtzSDyewQyvXLyJWzSRxIobJnei9rhpuuKZwhKh7+jfdOyxwSh8U6faNiEd0BmlTkayqzxJreaB1GY8Y6KNyT8meQefafWMfkdv8RsrLqhrTAKPDzFOPjQda7pW55j4YYITMpjrKuWlGyfGId4BOMcEJ4Q8qwsmhl8ENo5Fd0BU29hHX9JzwZVQVhDvjaE90q17YAXu3DMvz2DKb31zI4rPTBkYk0joDp6FTkfuHBPrmFUQg0+/lK4eMt3WK3K8t/+yNrXtM7J9XX3hocZgYm3PTg3rXWDUxhjqVUq9HOPqn45A+SKQGjPKt4JeM0fAEXAEHAFH4Ngj8LpFX8QqLS9ryeN4FAO5tj8ZakXgHLUUkU0FlgoDWX/cCzGOl/F3vvdt80je2NgMjx89kaGxFqZWpsw7mTjJza1RmAtI5fn5beOVJxvRLrKpTV7Mp88qdt/LoTCksBULIochopuaG8O7X78Venq7Q0dHe+g91WOezy9FLEM0T4xPytv5fujp7ArzP9CS8hKnyFBt1iY1b8uwj5Z3Qjph4OERBsFGmAZCA7x4/IWRbHglscQU0qlfy14h98CTT0i0+5/9yuKvXpFnEPEaJ0Ua4AmEYY5hSn48C4IZ4qGykh3U+4zIIN4wcVkxTiHBdIE8wb4jo7/TyCk8Zl88jDylMe6jkAvVRkI91pLep/ojlASxa/EqmxGxBWGMoY0nKsZxvBkeS2UtvISW3WI8Z5K5ZtxKHtSNY4xZ8oGwM0Ma4zaVICjPard4YuBCTD8TMYeHJwQt5Cwe2RDUeON2CwPIOiNMEgcXZzQuS7ZPI2hEDEJmf/RP/zGqr2hXSEHq1q0wHufffk8k93vmpYVn8I60T1uBOp9TvGe8zyCtIKs/+fl/tgkDQmUgfzyLIWYhXyFrkCn3kSD8IzIpitUNcQGBAtEDuQGu1v5UFyYhmEDAM486QY41ykudvInLjRcfExdgD3kakyC0Z2SLZz0e7hBrtPcmlWN6YsgmOJJqx7S3ev1GrGvyh1Sm/SyLlIG0g8CDYIVcLlWiLcYELLGfX+jvpeITg/VFxWY+p1ApfeevmUzp6yzZv/XtHxsZNaBYtEwmPBOx1KFVAxevv2/XQsbUJXauOoFYp7+T11l5eII5cUaZ1GFCifijD2//xvoQ8coJqwHWhEIBI8gbMKOPqTttJcru/XYLjtcO6B94oUIIL2qCABItPYEv52emR2yig37OBqjj2gg1V0IHQiJCUBL+I9uEQa7743PWD0Tu2QaZKfIvPpf+CXFJSAR0MiFl+i5eN1IyJsRtAk5tkzGBmOJ4lKYnSEc8am2ya3B7TwbIYyYt5ibH7JO+i/7F6xidsyjdi35Bz6FvIRyJ9ct9HT39NlY8Usx/9Pp3fvRXNlYMPr1nIVrw5CeME+NGqRNeuoSGYVO4rxSTGuyIh0w/ZDyib0Hq8gkmyOG0NprDqxoPbH6nHo/vfqjJOIVZsjG60iZ8e89esZUDhKpIT3RLdCY6l9Uyl258y75b/joXh6ph7KNPM2mMzmN1EuNqIYkYxxDPTDaRX2ai3aPb4kkRZLhACB3p6sd3P7YJs3e+/aPQe/aqTTai76hj0ib5FO5IHuyDTx8IB/RNpenuyLs580nRd+oOrvx5cgQcAUfAEXAEHAFHwBFwBMoBgZISyGwYNzY6bh7IfV3dJcevRl69kLJnz58Nt752KywuLoUz5/pD3+le8+TlRZ+4xYShuH7zbYtpjBF17fpb5gkcGwJsknf2wlmLN9zb1xPa2trCmbP9oUWkcI28VwllcUkeyNy7tKgNeAhroc30iIeMMd4kj+Hunm6LhbwwvyACeWccZJb9JuQZ2S5y+PrN66KxKsyreFZ5KNPQ1S3iUB7HScVUJkxG/5nT4Z33bsqY1W73ugbSmuPWttZQo+WppU4YmhjvbLCFRxKxJPHgHX3+yDxG8RKCcMPghgCeUwxZiIdukQDtMsAxrjE6IdB6z1wxLygMSwhZPB0ru2SQCYeklq7i0YShSX54APNMI90kB8JZmPEqDIhLTLgLw7+5yzY16zx1Xt5HU+GlvI/wqGIp/bTICOJbYggTbuNlaskt3kZ1MkzxDJX5qPAcL02+EyJVKAfLgOenJ41ExEglhAae1hDbGM941CVEJFJO6kpd8GyDHH/x5K6M1wX93mikC6Ql4QuoP56sFgNWRisEgHm9yuMKsgbCHcKUmIzmCSaCHNIWry7OFzvxbDxHCSEREeURIV4rQoIJA7y5WeJNnGbqCxHOplqRF2u3GfrIERlCSoJL5NEalRxZgV+bJgIuvP0NI6bqRKqTFzi2qa30CCcIL0gjJgggQ1QYI425jril4Eq+eAzyG/04IkqiTZAghliizSZPoyJ4JF7Dj+sgGVgmT5uCgG4Q5g3yLKes1ZRD9TfCTefxRubZEA/0fQg0I570/FqFkYHwHHx2T/KcjiZLes+m2oPO6xr6+axkSbvDu1JZ6U8xkamz2lCxE+T3yoo8ytXXhkXgjg09UTsflCfllLw4k5LTqXBRKwT6JatWxXqNY4DTV06df9s8PZfNg3HNPBjZPI2JFjyZIXQg12wzwFRFqBOY8ntEske40ReJNYv3M8Q67R4SC2IIon9KfYa8R6RPwKxe54lPagSR6gB+L+Spj3c6uoH2SL/l2nz7Lc+K+y1ly9pvRcBF/VbPl6yPS79lkgLdMq1QBVOpmNbpbSua1NKE59iwyY82SJxq4sDmSvQJ+nKLZAWxli+BTL9ArvRfyGzGBFaEQBAz8QCJF3uR8vxYzpDftBXqwnPxikdf0G5IPJ9+xURhmyb2mKxATzAOTGuFgnnZ6tPamdqPTb5p3KEfoJshgK39KE88jGkHfMdjdVwhDwghxL3cRxnQ+zEhzXhHiCM2lawRod6uenAN+o62aF6wVsrS/VOrcYoxlnLgXYx+RXfxR4gJxg0mQNf0nvZCOh2i28Zx6Z8zCleD7kQ+6EMbz6QTmEQ7pZUIp86/ZXoe/Uvcf2IrU1c2q6MfcS+6kBUGjMnPa25bn+L3ODEuLM6tWnmYRI/lGJ/f6zPe5DPut+hgZLgyu2Dj7HNNajERzHN4x0LOE9IRY0NPbcUE3uLt3Wf0DnI6NaZJY6istCHkx6QCqyxstZHqaJNaahOeDhkBydkGy0Muhj/eEXAEHAFHwBFwBMoYAX/f2BJuSQnkVcXonZyIPJA5LnUiFMTFyxdDY3uLEa7r6xsiH+QNrNjMbR1t5vkLKXvxysXwV//uv5O3sAhbpSZtfHf6TJ/eUWVQ6I8QFd//4ffDe19/1+IOGzEtspd8CCWBsQt5+5aI547ODotzPDujTbJkuEPsQjITv/j+vQfh2ZOBMCwv5GyJe7/7/e8E4h3PzsyKrFgxYoqwFmfOnVG5tGRUzzp34Vz4s7/8s/CBroUUZwkyBhib6PXIO/mwEp6ExBoeef5AsQ/vyKvwKy39lAeWjEqWv2OEjsmLGO/Kt7/+fRmXXzPjDfIBnDFOr7//R2aQ3vnon0UMjVlcZUIRQDLj+dgvkhIjEUM0/oNQlfVqRBiedHgoz8iLknzPy5PqtDweib2IQdsiIoxnTQ5HpBXeocln9UZOQigPicigHu9858e2GRCxaglnwMaADz7/tZGOeE5hrGJcQ3pQLyOVRXwgByq4LtIXkuPKre+EUyLF60SczYgIu/Phz8KAPIsXRJhxHgOc8AYQws8f3jGPL8g0CC1I7Cu3PrByU3bkTJxp/j75xX8x4vu97/25vDlvpTxsiyt5ysqGQxAP/fL+gzCBDEpoEgaPXzy/kSFlJ2wDcTP/8F//T4YPhA5kz4bugZxj00E8/ZhAiBPEEfXE67Vd5A+ER5eeh7whmyQ4C2XR1XvOjpm4gMhnsuGhPAAhaikbhC9eyEmRIlVVisur+4xgF0EL+Qkx2qf2gAfbkAhe2iskAYQjy9PpY3jGnpJnGuWGfE73PINkhnyGmMFbGLIpIqz6jYShfg0qB6EgPv7F39h1F69/Q6T5uyYz8oesoX4QZ3g84+lIe+hXzOQuTXSAYbETfQVSDSLs89/+gy1xB/f+S9eNxEc2/FGfdDIRuUFAdSusCATbGV3PBAp1eXrvUyMEIf1IkMXbKfIAjzwUFfZA/ZN+BDFNPkwWgSPPiwispLw4H8mr+8vw5N5HRmxH8hPho3toFxE5SL+9n+q3/8raKB77Ub99ZKsZkFdh/fYDyf+KEd5M+tz5/T9u91uV8Tj1W4hudCJe8s8VY3tmYmxbJDqyFQSSF+0ZD3l1A3ngPxXpuPO6HTfpS7PiRkPOQeBBuqnRZl6S9TvkMSsrhtXvwJZysaEiE2Tmua5JwfT+FvX/BdO1eIXS7xkLCGFBmJjdiEfIY9o4k0Sf/fqn8nD/ROPTkBHUxCJvVh+NCM0ovAETF3jeQozH8e5ZcUD/xDOeSR76OhNp1JswGISwQeezwWn/xRvWdmm/1xXbe1VlpU8zNti4kBWN4v0IAY6uYxIHvY2nPpO56Dr6EZNonGNi99rUHxoWhJMBByYEO3r7rR+CL+R5lXQtE7asxkDPmp6XLsAb+Qd/+T9bRYh/DKY8A3myqR6/EWOY3yGsjcxm0k1tDlKXFUqMuejDQhL3UHbGRfSITexpPGKl0mfa7BKvcGTPM2lPtAc2/2TCCS9yJl+7z1w0WUftIHo641TP6UvSjeMWeoO6sGqC60uhlwvBgLHNkyPgCDgCjoAj4Ag4AkVFwN83igrvUc+8pARyQqRpo0jcWsg+eQeVOkHcEoO4rllkjLyQsyXKxTVRrOJsV4h0Eul8riH7/fEdGIiQ0ZDAkOV4GuN1VFMbeUDyG97CxDPeLUFG98uz+dTpU+a9DAGNYcRGMEkZrXhLQ35SL7yfN0SIr+DdJA9kfm8UwUd85MNO5jEmAxtDH0MUUsi8jGWIcQxRyBL2U1oua0aofidBFENKQeJNiczF2w8DF+MOYsNIiiyVIz9iIOP9vCqPymrhg4FP6Ivz8oA9deEtK0d8P6Qnhu2c4ifXN7RG5KHwg2TEmw6C68zlW+ZpRT5440EIcx+EBAQixirXV4tozEwQyiRMu3Tzjt/N+0sG+tnWW0bCQjZgoOIlaKSETQYkjDzGmIeoJY4my7JXZPyzpBhZQwZARO54gD21eP9AFEHMQuoSqgDPLTDBuytZ2yg57fSaxUOcv8wEWQixkpn+//bOrDtuJLvzwdy5l0RJpaVK3aqlu6pVanfXLHafsf3gh3maeZxP0cdv/gD+fPaDfY67ym573FXVPaWFWiiRFJnJzCTn/gMZIBIJZAaQCKz/0KGADARi+d1YblwEAuDe38Sft9LcXPdWK8qerFJm7EmKVXI3ZLsEGDoAAEYRtDXwBU/IENsfwGgQNEQhPv2au9TJn/z8l5LOlhjW3uj7TVo4YhUzjA5YDQ+DNuqX76Q9buBPzG5I/8FPf6blAuMnuNy8+1DXVXyASTKkjVQI99Gjx/IQ5efaGA2jCQzUB7L6Dft/w7ABB4Mc9nqGvLHKMS+nX92WuowtYW7fe6iNJTCe7gpHtL2wYQf1tdOS1di6XcKgJFupiDEKxnQYIbHPNO6BYRIO8oTxBXUcskc9gqzRZ6J/gxxgEIRBC/vXYpUyDF+QK/oQOLNvMvIFY47ea1Zf8VaPm3b7UFZLY4Wky3aLlfZVarfoL2D0x0MAMB7vXH/4bIZQH9BWb4mxzzjIZplDf9rt4SGN9wDQhDUPQ5AWDK6Qf1vqhHFop9j3G8Y/9KcwgoHnBwdiFJYHDmgHHWm/YYf0sKc5DJnoP9BOUTbUUTyk9Ppl6QPEuBl8I0OnJ302yoPVwcjTh2hn0l6RN13/pV/DmygwDqPt4aERVtGjD8YDPbwh4q3ilX258caQjDFXl13pzyfaAAkjKj4yiXKg/qLfRtmQDzxsQH3P22FFdlu2kdEPYIUX3qrASmvwxgMgtCnwg4Eeq5DxKAF1BHUF/jCw37qLB3hipBVZodxRW5WgzPgLO/SbXWEKrkGHdg2jMuQBfnizY1uM0uizkziMrefvZbsk4Q2DNsYf5BHxokwoC9LBSnW81YL6A30CY+kdkesdMSLjLRXzZoVJG3XilqzchtzxUBm87ks/fyAs0FfRFUwgqFQVnBWnyUu9k8q8PAnNoilAlqPgVRIgARIgARLIlEBThlcLfSPXWQxW6D6W1bT4iN7e/vx+mJkKuCSRYdIF15WtM7BaGBMZGH9hCI76eF5ctmEY7MpkyBjdsTISfiZ+3IdzGGAGGwPfUIN7tFExLmJbfyitKRRTYziAkRH79GKyio8iDfR2At7KaHy5HRN2GCq0YUGuG6fLJJPem2IcfPKb/6mNrXg9FpN5xBnnMOGHMcAYEaay4g4GJBg3YIyA0Sp4v/7In6xyxQQfxoeeTDQxMcREFKu2kI/b93+iJ5ZXcg3nmzu76pMvcc9Q9nWefcwrLkPCD0YLbGGhDSgyccWkfE+2P8DKU7zij8k18oGyIr37YkyHsf3nv/5L/RsTfLPFA/IGgwoMEdj64ZasEsWKVhglMEHWrx6LoSI3J/mFgRDGEZQLlcXlCjsYGVCXsC8xVrjCWPxQPnK1J6+qw7B/+PQHvYIbhoDP/+w38qqx90pyFA+whkw+e/IXejU7jCow6gcdjM4wNMAAhu0k5pzc3xbjEVZc33skq49FZsgfwkJOkBEMM3AHYmD/+q//t34ggv2BUb/Qpq+E3QdyH9KAsRgfB4TzPrp3SxvG0DZcO9RBGHceyspoGHCxkg+rt73Vid62KzAWL3PgiXoKwx64Yh90+OGBka6XUkasSn/83/5GrzhEfYXxzfRT3v07YtD7RBuYtXFaP6jY1PXrgRjiEBfqO/okxGkMVqh7MM7fl9fpIXvEFdVuP/2F127RJ6BPjnWzdos+INhusX92sN0i/Sq1Wzw0AcOfSJuB4QxbKmTh0P6xVQu2SgAz47B699GXX0tfeaGNq3pLFqlrxsHwi9W6MN5hdSuMl+gv0c/r/kzqEd4eMA5yRn+IBwMIgzqCBzyQN5w2LIsBF+0e8WA8QJ3UhmFJFw9pfinjCR56oe/AClPwgNER8SF+nOOjjjBC46EF4kRdwUplPMz47Kv/rrc90A80ZulKAJ0+xhA8rEQ5UXbvYYe3Nz/yinvCD7L0jTn9B06eTnH9MWOMHYYf8teVh99wQT0D19Gvww8PfdAAww+T9E0J/8M4/dmTP9d9uNaRJH5sXZM0bjy8/PTJb7Th+KbIHg+VoCvhYdXXf/W/1Be/+ivdZ5h6peUqMsaDAfTF8Iecw87TJz7WdRsPGtDvQG/BA5awsTl8L3/nQcBr93mkVHgapq+JzQj6IPlbMqzN3arRNYjfXOH5gwRIoPEEoLexH2x8NbAH0KDxcoW+kasBGZOPTVlxCwOySwOTfUVwH9JMuoLlxSQJ/voaJkvCBU4bUSIEZuJYlVustmnL5M84xIt713Y6DiilFlopwszCYZIM4wAMyWZFEiZc8EdZwQErOuGMXzCvhpE2YInBAA6TvlVlMnvz4pVZGBA0P13nvFWOYSMY8gQDhHEmXbxqjEklXHDlJc5hhE7rUG78ea9GH+jBC3HCcIG0YdiCAQ+vS4OL9yerOIXZnJN7MLmFsQMGczisxrNhNBdPwh8wHkCu2P8XRiMYS7DaCxP+pJP+hEnr4DB2wDALIxUm/+enJ7Jf61O91zb2/8b2BJAbDFIw1OKhwdyq4VCiMNzeHFzLP3R55U/wbvVhdBloWcTdgNe9H8hqVThwC7KCjL09OCUfs/YTF48rf3Dt92FMkw+PSd2DQ51b1d7C+UFdRnuHAQ1vGMBh9aOpl3qlthiW0QbQRpGuJOJHg/vxF3bghS1nYMDFWw3o78IcsRLaGAJxP+IxnHGeVbvFhxShdCLOqrRbw1PXNTGU4QEV/lw780APxlr0HaZPM+n25MGefsAgdQYPcOAQDmzRbnX9MIHlqB8qYMW7GB7x4AYuWEex0hQr+rf35UGQDEeQv16NKnUMe9rCqPug96V+QIE6ifzAYAo5Gtdvy8pS6WPCrtu7rccs04eHr+O3GT+C13R8QY+Cz3UeY/prXAuy8LMKfvjTHtd6hn895Ynuf/teP4H4fWfbDwbugVzggvHA0Is6iGvYJgd6EeRuHlIgvB6/xC/KoX6g38A4B8M0nNatwuNx1M30I4FcCczaT6AZLU/+Wl9fCBdoVwvX6EECJEACdSCg+7kl/WC4jLpvte5gw3fzNwnUhsD1jCmHIg1lD9+jV94eyIOPZLVSYBVSDsmXJglMwTDBwWpkbOuBFcpwWI24YCQsUa5nM8elOcL0zfyhi21JOTdkAmbKhcn89STUMyzJdG9uwhdOQLOaTe6CE8NwOPMbBgYYlmCEwHwS4wM+BKXT1YOFCekdvfjnjbM6HYkHRgy4sNHZuzPd/6YM3iR0caUXGGHFnc67GMlM3uNS0waVQD5N/HHh1/XHhB8rA83DABih8lyJpQ1S93+qDUuddk+9efmjrNo9lxWBI5nYd+VhgOwd/OmX2nj8QFZyY3UZjABFO1MvkY+l9SmijqbO+8ygou+3jDfYHtapS6i3MMzABeuwNshgJbe0TZwjDZt0EAaGLTwkw3YYclckx3B70BnI4D+Tx6q22wwQpIrC6888Ax5kE6wLiNC0C7Rd04+AtX54EWPU0/cF6rORjefv1burK0+9wTWkaVwwP5K6pI+0oo2H5p7wMZhekmvhsPztEYjkGZCvFSfp6/xpXaDfg+yxLQb0kvn6N98/rUoDeUTbh4vM76oIeJ0ESkcAynGGmQq0O2kkGUbMqEiABEjAFYEk/eDMwoGDjWM/aEOJYSpIIFcD8kheTX15+EqvQL5/e34fvDzYweAg633lX67FXijalcxl+x3ZO1Ze5X7y1S/Vdt97bfJnv5CPdMlqmazyh7KizIU56Tgx0cKkTaZqC9nQ14wvFM+g8mn8Z0ddCsui6Hj1RM/eKBA1IbyOJ5SZDH7q9ISNrIVaiA0T3nZn0X8h4MzDZT6j0sS+l2YLBhhesCUJXotP7vSUPvFtMOpv46GEcMJr6bvSjrA35Vg+ooTV51hheCDbemC1KvbKTpe3xNlaeUPectIZmlNe0MYismnant/+vDckIkIm8tLl3Vhsg6gzrd6i/6rIvfhWdwIuOSNuTIyr2G5X8XV1fVV/ZuQFw25Sp+URuknHF1HvTLBV+THhVh2j0l51D687JDDX112no+uD6CBzTvo69CSoC77z+7+Zj+5qAv2NxE+Z+7SqdwL5xtSR6hWmpDme4xujb0RlPdzWosLQjwRIgAQKJzDTCQKqwfIssR9czqemVxugbyxa9RzKEh+Oe/PaW4GM87wdzMfdK1lRepV8opplXrst+VDUYKC+kFWSN/7PgTo9PdXR7+7K/p3ywbz+VRpj3GIOu1JOlLkSbk7xtMhxeLIXdQuV0igqa/thlSC2JsBev9qYJqtCg3tKWycAY6b1IDwfKyby+ADWLXxkSz6CNJY9T7GdBVYtYv9MrOCG4RhbetAZAgI7irewhCjM31wgtjMDj0cSIIG6EKC+URdJshylJRCjb0Tmd6Z94GDjkrZfmzgZhgRIgAQyJ8B+MHOkjLAUBHI1IGO7hp0d+RiYrCA0H4TLkwK2U+jhFWj5V7gTu9aO7Mt37467PSjbbTEf11XRSlIuGsEyre7Yz3azk8FHMJPIMKIEep/UHdmPWXn7VEcEode6BNaU0brJ834SIAESKJxAkn5wpm9oWxjOg3/BguiHeVFP9IKBeJ4ZgSQyzCxRRmRHYNYOrJsDWpd1YLssMBQJkAAJFEogRT9o/dANBWOfmZt4G6Bv5GpA3tvbVY+/+kJvYbG3n4EBKmFNaMteh3352JWNPTFh1KUMjvqLMjfeJWnItpUjSZyNFwABkAAJkAAJkEADCAR0A8zt9PwOfgF/j4JcsdY3cAd1OY+b+R9kycTQaNaRcm+WvFlaEiCBRQLQKxZ9o32ob0RzsfWlvhEmlasBGR8g2dwcaAOy+RhJOEMuf+O1946syqUjgVgCC5O82JDeBZsJoK5yDah3YJGU3wq8vEwYTrFMAAAf1ElEQVQCJEACJEAC9SMgOoG1WoDJCyaAlhSaoHOAhTU/S24MRgIkQAIkQAK1I0B9Yy2RUt9YwJerAXk4HKmjV94eyIOP+mrQ6y9kiB4kUCkCSQymq4zNSeKqFCRmlgRIgARIgARIIB2BmaXU2mAKY/MKazP1jXSi4F0kQAIkQAIkUFsC1DdqK9oMC5arAXk0GqmXh6/0CuT7t+9kWAxGRQIVIFD3CVvdy1eBKsYskgAJkAAJNJ1AktVGFWVFfaOigmO2SYAESIAE6kOA+kZ9ZGlfklwNyBejC/XmtbcCGed0JEACJEACJEACJEACJEACJOCGAN8/dcOVsZIACZAACZAACVwTaIa+0bousPuzTrejdna21c7utup0crVduy8cU1Ab8sG+bqen2u2Wmk7GajIeqavLS5LJmQCYgz1kAFlAJpBNWudErqter02b2Rrfl7VcDSon8jWR82hNwJV8TQYoZ0Oi2KMrOVO+xcrVpO5KviZ+HlMQWLGbR4oYeQsJkAAJkAAJkAAJzBNoiL6RqwF5b29XPf7qC/X48Rdqb393Hjh/VZ5Au91Rm9vbqi97W49HZ+r8/YmaTseVL1fVCgDmYH8hMuh1e2qwtSWG5PQPbHAv4kBciJNyLaZGZC1XUwrK15Ao9uhKvqZUlLMhUezRlZwp32LlalJ3JV8TP48kQAIkQAIkQAIkQAIkUBSB9FalFDlut9tqc3Og90DGOV29CPR6PXXr4EC9n5yq85PX6u3LZ6rd6apOlx9LzFPSF6OhZn9+/FrtyWr/Wwc7CrJJ6+bkKnFmIlfuX5hYHL5cpW1lIVeTASfyNZHzaE3Al29G7TacMOUcJlLMb1/ObMfFCMBxqr58HbVjx9mvZ/TUN+opV5aKBEiABEiABMpEoCH6Rq4G5OFwpI5eeXsgDz7qq4GsVKWrD4HtrU318OEDdT59ro5fPVUvNvfV9v5NtbWzX59CVqAkw7NT9fxP/1dk8KO6c2tfZHJXQTZp3bxcf1TPtyjXtCxT3ydbfkCuL7Rcn2YiV5MXyteQKPaYdbsNlyYs5xdsx2FEufxmO84Fc2GJuG7HhRWMCTeHALYYa8gkuDlCZUlJgARIgARIIBsCuRqQR6ORenn4Sq9Avn/7TjYlYCylIbCzu6M+/+xTdS67Vvzh/z1XT6dKfXDwoer2BrK1xa6sRE6/CrY0hSxxRibjC729xOtnP6in332rpqfP1Scf3VU/+/wz2Xd8J3XOcS/i8OX6HeWaGmaKG41c30Cu3/+rL1e0tXXkarJC+RoSxRyNfLNut+HShOX8o7TjffbPYUzOfhs5sx07Q1xoxEH5PtP99Av1ycf3ZOzMpp8utHClShwbDKb/pkOpilLWzNB4XFbJMF8kQAIkQAK5EaC+EYe6/bd/99u/j7uYtf/JuxP1x+/+JPvjjtWDu3fV/t5e1kkwvgIJtETp3NrcVKPhUH37zTfq+bPn2mjckY+4DbZ2VX+wVWDu6p/0+5O36tkP/65++Ld/Un/45h9Uf2Oo/vIv/ov6+ldP1J3bt1S/n27Fv5HrhTwA+uZ3v5vJta/aen9lkWtfVjdzwuGsgkGuzyHX30Ou/6jl+j/+/Ou15WoyvFK+bLcGlZOjq3YbzizlHCaS72+243x5552aa/nmXZ7SpqfnczQgl1Y+zBgJkAAJkAAJ1IEA9Y1YKea6ArnT7aidnW01EMNTp5Nr0rEAeCE7AptiPH7w4L56c3SkHn38oZp8L1tZHP6g/tRqqcnovdq9+aHqyGpkfOwHBkcYNOro0N/k4a7wmqH8TacTNbkYquM3L7QB+fjwe/XBVkvL4NNPHmqZYO/xtC5art+LXDe0XPdu3FEdMSLbyjUvPmnLG74v71p6GZLrCeT6x//QbSlLuZpyrpRvqN1u1LTdGh6uj3m123A5CpGz1OWm1pcmteO8+8hw3S7id97yLaKMTJMESIAEKkMAujP108qIixklARKoLoGN3z/7Njd7znQ8URdnI72FxZ2bB2p7kytSq1t1FnMOw8h0OlUvXhyqb779N/Uv3/xe/fPv/kO9PDpVva09tbV7oHbF2NiX1citlnxEUQzLdNoGnA7D5aW6vJyq0dmJOjl6oc7ko0wXZ8fq9o0d9esnP1NPHv9cPf7FF+rDD++Icbed2pATJdd/+pd/9+W6DbmKkdFKrrB5pyttYXflro/OyfVwTq6/+urzzORqgEbJd1m7vdpguzXsUh3n5Ouu3YbzFiXnYDv2+mfLdhyOPOL3hm7pYlpMYV3EPDDO5d4e4zKyyn9OzsW0Y5fyDRa/MjIJZnrd85zlu252G3k/DUqNFDsL3UACbOsNFDqLTAIlItCwPijXZcAwYmEl5EC2NMA5Xb0IYKUZVpbfvHlTffX4S9Xv9RS2Pfju+z+q0/NzdXV+qMatsboaYsuD9AbNelFLWpprC6y3Amoqq4DP1cb5kdppX6idOzvqk0cP1X/99RP1uey9eOPGjbVX+0fLdaj+8J0nVzV8qcbvJnZylQ52iW0oKQzn4T3DSAoL2Bo5g6FPXS3K9dFPs5WryWK0fDNotxWTteHh+hgn36zbbbgc0XK+bsdZ9s/XBsWkbUf6B4sOAmUpu4uTc77t2I18w+wTyWPWLxTRt4bzvc7vvOW7Tl55LwnUn4AZOMo/NtRfFnmXUGRfAZ0gbypMjwRIgARcEVi9Ahljckbj8fBsqI5eHWkD8qOPPlYfcA9kV3JNGO/ySXvSiR5WIV9cjNXp6al6/fqNenH4Uv349Ll6+fpI/M7UUK5dXi5PM2EBGhkccmnJNhKDXle2htlStw9uqAf376oP79xWBwc3xW9H9eRaVg9r1pZrRQ2KiYwjGdTEvOVqsry2fE1E5lhReZvsuzpey7endnfdt9twOZbJ+eQE/fNF6v5ZqwregBFOdvXvhPXFtl1qQ9/q1HUI2zhtoruWcz79s8mTS/maNMLHJNySyCOYTpI0gve5Oi9Kvq7KU8t4pU+hYamWkl0sFGW9yKTuPuvKfN376863FuVbbmvw1NWMjFy14MVCpCbQsP5kuQE5KYwVxuZ3R+/UD//5R21A/rNffCmGrjup5cQb8ySwvAMO5iSqMz45OVVPnz5Th2JIfv3mjTo7OxMDxaWsNEOFoUtLABPqlmwDsrW1pQ5k1fcdMRzfv39PjFI7aaNMdB/lmgiXdeCi5WoySvkaEtkeyyJfUyrK2ZDI9lgWOddFvtAXwLQsrizyLQsP5oMECiWQdL5aaGaZeOEEktaXJOGThC0cRNMzsJ59o+n0WP7mEojfwiJNB7hCt78YXag3sgoVW1hghSpdVQhsJFjEAaPwfIc8GPTVvXt31Y2bN9RYVrdNJhNvVQjqGF16AjKZRpPDtiFd2S5k0O/rLWLSR5jsTmxHA4P1TVntbOSqJUq5JgMZDl2wXE121pZvmjHEJF7nY0nkaxCvLWcT0TrHOtaVksi5FPJdp25Y3rvsgbQTw3NJ5GuJh8FIgARIgARAII2+If29tUsS1jpSBnRDYD37xrI8edUgQb1ZFhmvkUDJCEQbkGEFctABdrodea1+Ww26vbX3ZS0ZR2bHJ+B1lsHq0+12Ff721K4f6vpk3th87b94xs54kUmRPjBcY7VzXiueiyxrE9NeW75plPQmgi64zMnkbB76ZagUs544rQHJ5Os0KyWInPpGCYTALJAACZCABQHqGxaQGCQ3Aov2jeVJQ98wdXh5SNo3lvPh1fIRWDQga+Oxm4zu7e2qx199oVcg7+0bY6LDBN0Ug7FmSsDl078MjRyZlrkukbHt+pKkEcxHwZM6E8iyT50p1sGnjc7Rsc9yjrjUCVDfKLV4lmaObdfHQ33DR8GTOhOgvlFn6da/bNQ3qitj6hu+7GL0jUUDcpb9tZ+6d4KPeeF1SmxhkdWHvUJJ8GetCXiV097ewNVGTqsD+1eneP3IYzpv/zpPSMAZAZeN3KGy4YwHI24OAeobpZK1y66oVAUtODPUNwoWQJOTd9nIqW80uWaVv+zUN0olI5ddUakKmj4ziwbk9HGtvHM4HKmjV94eyIOP+mrQ68s97NRXgmOAlAT49C8lOEe3oUcOO7b/MJGF3/ZPTBZupQcJJCNgtCZzrFv7rFt5kkmXoV0SoL7hkm7yuKlvJGcmd1DfSIWNN6UhYPQMc6zb+Fy38qSRMe9xQ4D6hhuuaWNtnr6RqwF5NBqpl4ev9Ark+7fvpJUS7yMBBwS8gd5ed+bq5uRCCCtT6HCjOt1lMYfjWBY2x2slzVaOBJhUVQnMrTgzFdkcq1oo5psEykzAa1/UN1zKKNyHUd9wSZtxk4AVAeobVpgYiASyI0B9IzuWcTE1T9/I1YB8MbpQb157K5BxXi5nDFnhSlCuXDI3ZSGQ7OlfLTfSt5/9xggtaVtLOgFMGn9MNld6m75jZcDqB5hT/qtfnEaXwMhy7Xa8nCL6vg3HaSzPQRmvmj4jrz6qjAyYJ3sC1DfWXxmbtK1R37Cvn45CmjHKUfSMNkcCRpaOdQHqG1Eypb4RRYV+cQSob1DfMHXD9B3m9/UxVwNyp9tROzvbatDtKXwZvDTODGzLMmQTZtn9vNZgAsk64+tVuUknPHVHnIRHzOQP3lkrsC7iLKUopaBJRFDKMjQ8U8FxLOt2EIOWxuMQmKAMQpf8nzZh/MA8IYEgAeobQRrpz5MMdtQ30nOOu5P6RhyZyvgHxzHqG8WILSiDuBzYhIm7l/4NJ0B9I5sKUD19w60VVxtWrtHu7e2qx199obew2Nvfvb5Q5Jltx5nT4FckCqZdBgJJOpEy5LeseYjhGONd1lKUKl+6P08AMEHQUpWzBpnxVuGgICEh5DWO2Y6rWbIuIs2k+bfNY15ySpp/hq8ZgVD/ULPS5VecGI4x3vnlq8IpUd+ojPCob5RUVNQ3SiqYpmaLA2I2ko/hGOOdTZqLsbQWvTL0QWHQgc1cu91WW1ubalP+Wu2WXLq+ZsIEw/t+rk5sO1dX6TNeEiABEqglgYi+vZblLFGhAuOpt+o3Z20iiKIIAyjSDDAIZif2PGn42IgsLlDfsIDEICRAAiSQlAD1jaTE1g4fGDupb1jSDDCzvCN9MOob6dnxThIggZUE3K5ARvKBieRI9j1+9+ad6re7qne3o3q7XdVqtSRIYKJrJoFBv5XFSBlgrTSgsATynTILtbqNA1atxFnPwrDd5iJXjZn9Yy6sTSJrjWcmkjWOZej/kzJA+LzynTRvc6JgvzWHAz/ykttCwvQgAVsCbLe2pNYKR31jLXypbl5rPEuV4vxNZej/kzKgvjEvwyr9KkN9qxIv5rUAAvnqG25XIIfwjcdjdXx8ot6+PVbn50M1mUxkDoACh5zpZEPe5foJ40hE3suVSeaGBEiABEigsgRkjNFjJMcaZyKkvuEMLSMmARIgARKoCgHqG84lRX3DOWImQAIk4J5AfgZkGZcuLy8VViEPh+fqXP5GFxdqKn6RrhKdbGTO6UkC9ScQ9eCn/qVmCUkgBwJBY7E8qMRYyLddknFP2j9R30jGl6FJIE8CSdtznnljWiRQaQLUN9YWX9L+ifrG2sgZAQk4I5C0PTvLSLkjdr+FhSm/zIGxB/Lm1kC1VUu1Ox2ZEuPfEmc6WT2BXhJu5SUMkEtTWhnDYgAXcS6mQh8SKB8BqftZN6fyFZI5IoGCCFS0cZUp22l0hzT3RNYQF7qBizgjM09PEigZAeobJRMIs1MrAmUauBOALVO20+gOae6JxONCN3ARZ2Tm6UkCJSNAfcNWIPkZkCVH/c2++vDeHdVrd9QHu/tqMOjrPZCXZhadrN4qYp3RYp17I3KHpxM6XxHX6EUCtSeQcXuqPS8WkATsCHhfM69g+yrjmJhmjKa+YVdRGYoEciNQwf4wNzZMiATSE6C+kZ7dwp3UNxaQ0IMEqkeA+oatzHI1IHdk1XF7R9YfX22o89FQXU0v1dbmpur1uvpDeivWI9uWyX24NAOF+1wxhSIJlNGAUiQPpk0CJJCYwNwHZRPfzRtqSYD6Ri3FulahqG+shY83kwAJYB0UjSWsByECrBMhIPzJDxazDkQRyNWAjKed+Ds9PVNvX75V/XZXPfzogbrxwZ7e3iJ+MMMgZ/tKhW24KBz0I4GUBDjopgSX523oG+hIgASWE2j6GEp9Y3n94NXCCVDfKFwEqzNAfWM1I4YgAeobtG+wFZSaAPWNUovHy1z++kZ+H9EL4L8Yj9W70xP19uRYDWUl8mQyVVeXqwpv+6TUNlwgQ8tOsdJDG6+XBeI1EiCB0hPQXUzG/QP6hqyjLD1IZtA5AT3uOE9FJ4CHuvNOKvSC33yIKv1aLJ9N7m0btW04mzQlDPUNS1AMRgIlJ0B9o+QCYvZ8AjmO94vjMfUN+0kE9Q2/zvKEBEjgmkAB+kauBmSsMMZfp9tRXdm2ot1tq+nlpRiQJ3pl8jWJhGfOBj8Yh9BhZ9xpJyweg5MACZSUgJNOu4xlRV9YxnzVNE+un/gHxsz4N3/qwVaXL1DetUuVZVxzmaG+MYeDP0iABOYJUN+Y58Ff2RCgvpENR4mF+kZmKBkRCZBAkQRW6Bu5bmEBDsaAvL27JXshi/26vaHG04lSo5HqTaeq2+2u/rDeHFAz6ZrzzOgHLSb2ICEH+9AMSQIkUDUCbOBVk9hCfmH8xGTR9YRxIeGCPVBeU/a1skJ9Yy18md1MfSMzlIyIBEpJgPpGKcWSJFNmzKW+kYRaICz1jQCMAk+pbxQIn0mXlEDuBmRwwEfzbhzcUC2xOHb7PTW6nKiz46HqtTtqf39X9ft9C1zSoLXFkkqGBSz3QbQ4KAv3oJkCCRRAwHS3VklT2bLCZBPITMBswi6EMUIzRwnQtIlckMlaRmTDkGNcEGlh51oclEVh/JkwCbgkYLpbqzQkMLsCK1IrA1HfWInIOgD1DWtUpQ9IfaP0ImIG8ydQiAG53W6rzc22jPkbenfh92dn6ujwSHU3xE863f39lup02itWIrvQGBJpLflLiymSAAmQQNkJUNnKTkJJDb5zE0AzRppjdtmqbEypUaS+cQkq6htL4PASCZAACawmQH1jNSPbENQ3bEnZhUutNqS+cUm+qG8sgcNLJEACCQkUYkA2eby8kv2Pp5fqzdu36j+/+061ZUsL7IvcFuPxzva2rFTOYYvmyAm3ySGPJEACJEACJFAUARulH2HgZNKRdALo3dig/zExs2HqCAn1DUdgGS0JkAAJkMB6BGzGRuob9oypb9izYkgSIIEqESjUgIx5HL7IeiknU/l/InshH5+eqMHbgboYX+j9kBGm0+morc1N+d3xP7anN6pfkzTSziKeNbPB20mABKpKwMVCgaqyYL4dELCpYDZhkmRNBt2so0ySvPOwKBwmwfkWkvqGc8EyARKoN4F8u6x6s2TpIgjYVDCbMBFRx3pR34hFs8YF6htrwOOtJEACK6dIhRqQYbzFdha7ezvqJ48+VsPzoRpdjdWzV4fq1ZuO2rjaUJeyQnlvZ0d9/PEDtdfZ8Q3IkG1q4+9sFVDq+1mxSIAESEATyFqZJlYSKJiAtq0mrNcJgxdcQkkeGc7JiEx9o3hxMwckUAsCletoa0GdhXBIgPpGtnCpb2TLk7GRQGMJLNc3CjUge2/cbqj+oK9u3r6pzs/O1fvT93IcquPhWI1HYzUZT9T7vX21vbulppdTNR6P1XQi65Wlk8Q+yZubAxHthhoNR3rVMq61ZcXy9vaW3kM57L+1tSVG65Z1+Lh46B/iLMb/i4knm2X8yS3EzbLeklsG3C5GaioPpFg/L3QfmoiD9MPtbje2X52rn+Rc7fFFHuyORhdW46mWO8IPJfwkRb1aMV7P1St5K2nV+J44vOgDLYf6APWNDPrtKLlT34jUbxPX/xg9mfFkUG85DqYfB6lv2I+/rYrPZ6lv2OnVUeNgaP5IfSODfjuKM/UN6htL7Iql0JcK0DeKNSDPrPpYhdzv91Vro6UrKR5InsmH9U7O36sLmchOrqZq8GKgXr09Uqcnp+rs/bn4j9Tm1qa6/+Ce3LehXrx4qY7evJX7ztX2zrZ69MlD1RODB/1z4vD8UB0dvSN/1kO2u6b3P6+P1JkoXOyHKzoeiaL04vBVgvFUwr9IEp7jMvWTNfU06hscZ5s+znK+483vqG9Ue55LfYP2irLbbahvUN+gvrFg32v/7d/99u9ndly3hyVvi2IriZY8RTV/0+lUnZ+fq5G2qE/026YbrQ11Phyqt++O1buTY9kr+VSNZcVru9tSZ+J/+EoMyEdH6uj4WPZSHqveoKeGcj/834j/W/Efi3+/Af5xHOL8M+HzUgwIYuCP4u803RzkG5f/OP9MeC6pz67TzSr/ecUTbu9Z8YmLpyr+WfO35iz9wNvjk8b0t1lzLnyckoezh6+kP48ZTxf9L2oxzi6Wy9MfkvrXrj6s0KMK4UN9I3P9thA55qC/Zd0ercfBhPOOpPzLFr4wztQ3qj3+Ut+Ys1ckbddZt7vC9U/qG7naqYqqb0WlW7X2UmZ9IxsD8hLj8JxVevl2GnpPYxiTsfk7jMhYWdyRD+e15Q/bXUxkC4vLq0vV6rRUp9dR3X5Hf4DvAttaiD/CDrYHarA1UDA4w8Ac9N9smH8chzj/rPjExR/nn1W6ruOJy3+cf1b5iYs/zj+rdKsSTxyHOP+k5YqLpyr+ScsbF966vJ2u7ofj4qG/N06Vm4NsEbViPL2uD7K1BLaUmoUvd7mu9YS4fF6Xa15/SOofF39d/YviU1S6ruVYVLmKStc1z6zid80nafxlC587Z+obNZjnXusPq+sz9Q3aN+LtPHH1J/d+qWL6cBy3OH/yzGceF8c/zj+pXOLisfHf+P2zb2H+Te5mG7Unv3H5HTAej+SJ5ImsYMMq5PHFWPaCkv2QL2QrC9kX6/LyUu9/vDwWXiUBEiABEiiEgKOxoZCyNDHRpPJLGj4NU9uH1Gni5j0kQAIkQALVJJDH+FNNMtXIdVL5JQ2fhgL1jTTUeA8JkECDCKzeAznYkQbPZXWwC4cVyF3Zu3hvf09tyQc+sBIZH8I7OT6Vj+udqQsxJF+JHwzNdCRAAiRAAiUj4GhsKFkpmZ08CbhRN/IsAdMiARIgARLImgD1jayJMj7qG6wDJEACJLCUwKIB2RhmzaAc7EiD50ujXe8iPqqHv16vpw3FXXlFSYm9uC37JA9HQzWZTMRf6e0sLqeXOow2KEv+8CE+uCvZ0gJ+CIeiYH9l7INBf3JgfWhgu7i80tvasB9gf8hxYcU4KG/5SGuxHzeThg+Oy1rPkPzgX9Cf47U9f3KjXsf2Uq72Qn2D/Tnnm3bz7qT6Q9LwwfGR+ka5+knaZ9hPsp+06yeD/VhY3ytI3/AMyNKIRYae0x3s7DzrgwDQvZdlvFiNDNftddX27rbq9XuynYXsfzTxViBP5IjtLszWFtgXqCtfdIWDkRmrl7HlBYxGvV5fJ01/cmB9aGC7wJ7q+qEU6z/rfwPrv8txUMbaSxnbS1evRH/o9eV7CKJGcNxnv1e6+km9tL76OfUNzr847riZd1PfoD5De0759G3qM8XpMwXpG5611RiPtem1XP/BiIzVyP1+X29t0Zv0tJCwWgmG5NGop8azvZG97S86WDsV0cH2ZCIZ4S/bZWxIxV+cYMaEl1XRkfE02V/koD9uqDsQCz4ID4NGG4Z9i/BzDwIY3psIk0MSDniYZN5qWNl+oaCGDW5y//wDKfKP5C9vhLBdBw3UDagncxO6WXllTJ7io7d+OyqAgzYgw3AaMe4XNe5Q35hNfNaoD9Q3qK8W1X4t06W+EV7As0Z7X6b/U99onl5KfcO+/6e+QX1jWf9ZpH5uay9i/le296L0jcUtLFzaj2Uil8ZhAghjhTnCeAyH42Aw0MZLeCF6hME/GDR1uNnqan3/Un+sakak8ifxrA6fNP4ah5dOSENLzU22I5E4YuUFoWi5zOrBUjkuiQcCpnzjOZOPRb+BCrSif5BtdJL3PzWpt/IqjewjxP6zUf2M9P9XGHxXtAv224F2QX0jnZ4m/ST1jeaOL43qV6WwelKyol+lvhHoV2uiRzWunntTSLt5N/WN5PML6hvUN1aMI9TPOY4k1DfyNSBr00u6/7RhOGiAng2wSrZHpiuYACpdUDausgOZa+efGI/QUSwZcLOD94P/k0COBOaq6NyPUCZqVlfz6gtCFPmTBJwSQBPmeOIUsXXkefUxfrftn8RksWZ9eEwp6V1iAnNVdO5HKNM1q6t59QUhivxJAk4JoAlT33CK2DryvPoYv9v2T2KyWLM+PKaU9C4xgVkVrYwBeQElO9cFJLX38GXunywvst8P+ycR4QNxBU4jAtKrTAQg0jLLay5vcz8WKaIsfhX1T6R8K+5bjIk+JEACLgiwKbqgWu44fZn7J8vz63fd/klE+EBcgdOIgPQqEwGItMzymsvb3I9FiiiLX0X9E+obi6ToQwLFEFjRhIvJFFN1SsCXuX+yPDm/6/ZPIsIH4gqcRgSkV5kIQKRlltcsb/kbkMsOpkyViHlZj4DfAP2T+PhQL3U/rP+jMh1PqvgrMxEVn5GMcjBXPed+JEsAT8rn3CyuNaKci44/SKBqBNAkWP+rJrVq5tevZ/5JfDlQL3V3Peuz+bAwnlXRV2YiKjobmaU/Vz3nfiRLgvpGMl4MXX8C6CvWaFL1B8QSZkbAr2f+SXzUqJd6HJsNZtQ34lkVfWUmoqKzYZN+fgZkA8WirttkfC4M4nYRr0nEdfwmHR6LI+DXH/+kuLww5dUEKKZFRlFKAfou0/denyzeazpQco1gQ6/KETB13kV9dq0PuI6/csKsYYb9eumf1LCQNSoSxbQoTOobi0zo00wC1DeaKfeqlNofv/yTquS8mfmsiJj+P7JiKPtQPZpMAAAAAElFTkSuQmCC;" vertex="1" parent="1">
          <mxGeometry x="60" y="585" width="1424" height="134" as="geometry" />
        </mxCell>
        <mxCell id="c27LXQE5OpBkn1K789Q8-54" value="" style="rounded=0;whiteSpace=wrap;html=1;" vertex="1" parent="1">
          <mxGeometry x="310" y="360" width="470" height="100" as="geometry" />
        </mxCell>
        <mxCell id="c27LXQE5OpBkn1K789Q8-55" value="chat" style="text;html=1;strokeColor=none;fillColor=none;align=center;verticalAlign=middle;whiteSpace=wrap;rounded=0;" vertex="1" parent="1">
          <mxGeometry x="310" y="360" width="60" height="30" as="geometry" />
        </mxCell>
        <mxCell id="c27LXQE5OpBkn1K789Q8-56" value="出席" style="rounded=0;whiteSpace=wrap;html=1;" vertex="1" parent="1">
          <mxGeometry x="364" y="370" width="50" height="30" as="geometry" />
        </mxCell>
        <mxCell id="c27LXQE5OpBkn1K789Q8-57" value="协议" style="rounded=0;whiteSpace=wrap;html=1;" vertex="1" parent="1">
          <mxGeometry x="430" y="370" width="50" height="30" as="geometry" />
        </mxCell>
        <mxCell id="c27LXQE5OpBkn1K789Q8-58" value="入站出站" style="rounded=0;whiteSpace=wrap;html=1;" vertex="1" parent="1">
          <mxGeometry x="500" y="370" width="50" height="30" as="geometry" />
        </mxCell>
        <mxCell id="c27LXQE5OpBkn1K789Q8-59" value="已读未读" style="rounded=0;whiteSpace=wrap;html=1;" vertex="1" parent="1">
          <mxGeometry x="570" y="370" width="50" height="30" as="geometry" />
        </mxCell>
        <mxCell id="c27LXQE5OpBkn1K789Q8-60" value="撤回" style="rounded=0;whiteSpace=wrap;html=1;" vertex="1" parent="1">
          <mxGeometry x="640" y="370" width="50" height="30" as="geometry" />
        </mxCell>
        <mxCell id="c27LXQE5OpBkn1K789Q8-61" value="转发分享" style="rounded=0;whiteSpace=wrap;html=1;" vertex="1" parent="1">
          <mxGeometry x="710" y="370" width="50" height="30" as="geometry" />
        </mxCell>
        <mxCell id="c27LXQE5OpBkn1K789Q8-62" value="文件" style="rounded=0;whiteSpace=wrap;html=1;" vertex="1" parent="1">
          <mxGeometry x="570" y="420" width="50" height="30" as="geometry" />
        </mxCell>
        <mxCell id="c27LXQE5OpBkn1K789Q8-63" value="音视频" style="rounded=0;whiteSpace=wrap;html=1;" vertex="1" parent="1">
          <mxGeometry x="500" y="420" width="50" height="30" as="geometry" />
        </mxCell>
        <mxCell id="c27LXQE5OpBkn1K789Q8-64" value="群名片" style="rounded=0;whiteSpace=wrap;html=1;" vertex="1" parent="1">
          <mxGeometry x="430" y="420" width="50" height="30" as="geometry" />
        </mxCell>
        <mxCell id="c27LXQE5OpBkn1K789Q8-65" value="数据同步" style="rounded=0;whiteSpace=wrap;html=1;" vertex="1" parent="1">
          <mxGeometry x="364" y="420" width="50" height="30" as="geometry" />
        </mxCell>
        <mxCell id="c27LXQE5OpBkn1K789Q8-66" value="表情" style="rounded=0;whiteSpace=wrap;html=1;" vertex="1" parent="1">
          <mxGeometry x="640" y="420" width="50" height="30" as="geometry" />
        </mxCell>
        <mxCell id="c27LXQE5OpBkn1K789Q8-67" value="..." style="rounded=0;whiteSpace=wrap;html=1;" vertex="1" parent="1">
          <mxGeometry x="710" y="420" width="50" height="30" as="geometry" />
        </mxCell>
      </root>
    </mxGraphModel>
  </diagram>
</mxfile>
